<svg xmlns="http://www.w3.org/2000/svg" xmlns:xlink="http://www.w3.org/1999/xlink" width="425.105" height="96.925" viewBox="0 0 425.105 96.925">
  <defs>
    <clipPath id="clip-path">
      <rect id="Rectángulo_9933" data-name="Rectángulo 9933" width="63.277" height="17.001" fill="rgba(0,0,0,0)"/>
    </clipPath>
    <clipPath id="clip-path-2">
      <rect id="Rectángulo_18610" data-name="Rectángulo 18610" width="45.404" height="28.416" fill="#fff"/>
    </clipPath>
    <clipPath id="clip-path-3">
      <rect id="Rectángulo_10197" data-name="Rectángulo 10197" width="54.318" height="33.814" fill="none"/>
    </clipPath>
  </defs>
  <g id="pqt_entretenimiento" transform="translate(-1126 -110)">
    <g id="Grupo_32716" data-name="Grupo 32716">
      <g id="Grupo_32710" data-name="Grupo 32710" transform="translate(1126 110)">
        <rect id="Rectángulo_18532" data-name="Rectángulo 18532" width="87.278" height="52.682" rx="5" transform="translate(0 0)" fill="none"/>
        <g id="Netflix_Logo_CMYK" transform="translate(11.792 18.085)">
          <g id="Netflix_Logo_CMYK-2" data-name="Netflix_Logo_CMYK" transform="translate(0 0)" clip-path="url(#clip-path)">
            <path id="Trazado_25345" data-name="Trazado 25345" d="M48.87,15.427q1.335.1,2.665.222V0H48.87ZM6,9.622,2.532,0H0V17q1.33-.191,2.665-.364V7.392l3.086,8.864q1.454-.168,2.918-.319V0H6Zm5.228,6.071q3.685-.333,7.4-.55v-2.63q-2.377.137-4.736.324V8.864c1.033-.009,2.395-.04,3.6-.027V6.212c-.962,0-2.51.013-3.6.027V2.652h4.736V0h-7.4ZM20.34,2.652h2.789V14.93q1.33-.049,2.665-.084V2.652h2.789V0H20.34Zm9.951,12.119h2.665V8.709h3.614V6.084H32.956V2.652h4.771V0H30.291ZM63.277,0H60.35L58.422,4.474,56.688,0H53.806l3.1,7.991-3.383,7.84q1.4.137,2.8.293l1.969-4.558,1.947,5.024q1.521.2,3.037.412h0L59.81,8.048ZM42.1,0H39.438V14.9q3.632.124,7.237.364V12.642q-2.279-.151-4.572-.257Z" fill="#fff"/>
          </g>
        </g>
      </g>
      <g id="Grupo_32711" data-name="Grupo 32711" transform="translate(1238 110)">
        <rect id="Rectángulo_18532-2" data-name="Rectángulo 18532" width="87.278" height="52.682" rx="5" transform="translate(0 0)" fill="none"/>
        <g id="Grupo_20453" data-name="Grupo 20453" transform="translate(21.229 11.794)" clip-path="url(#clip-path-2)">
          <path id="Trazado_43170" data-name="Trazado 43170" d="M1.138,25.267a.481.481,0,0,1-.331-.1.449.449,0,0,1-.1-.34V13.2a.449.449,0,0,1,.1-.34.481.481,0,0,1,.331-.1H2.393a.45.45,0,0,1,.488.383L3,13.605a3.855,3.855,0,0,1,1.264-.8,4.036,4.036,0,0,1,1.508-.3A3.236,3.236,0,0,1,8.45,13.745a5.228,5.228,0,0,1,.985,3.347,6.1,6.1,0,0,1-.488,2.528,3.951,3.951,0,0,1-1.325,1.665,3.267,3.267,0,0,1-1.918.584,4.076,4.076,0,0,1-1.36-.227,3.269,3.269,0,0,1-1.1-.628v3.817a.477.477,0,0,1-.1.34.477.477,0,0,1-.34.1ZM4.955,19.95a1.632,1.632,0,0,0,1.438-.662A3.719,3.719,0,0,0,6.856,17.2a3.818,3.818,0,0,0-.453-2.11,1.629,1.629,0,0,0-1.447-.662,3.317,3.317,0,0,0-1.708.471V19.48a3.2,3.2,0,0,0,1.708.471" transform="translate(-0.487 -8.672)" fill="#fff"/>
          <path id="Trazado_43171" data-name="Trazado 43171" d="M35.186,22.071a.376.376,0,0,1-.436-.436V13.6a.449.449,0,0,1,.1-.34.481.481,0,0,1,.331-.1h1.255a.451.451,0,0,1,.488.383l.227.942A4.973,4.973,0,0,1,38.472,13.4a2.808,2.808,0,0,1,1.316-.323h.244a.51.51,0,0,1,.348.1.448.448,0,0,1,.1.34v1.464a.48.48,0,0,1-.1.331.448.448,0,0,1-.34.1q-.122,0-.314-.017c-.128-.011-.291-.017-.488-.017a5.2,5.2,0,0,0-.976.113,4.8,4.8,0,0,0-.976.288v5.857a.482.482,0,0,1-.1.331.449.449,0,0,1-.34.1Z" transform="translate(-24.095 -9.067)" fill="#fff"/>
          <path id="Trazado_43172" data-name="Trazado 43172" d="M58.307,2.719a1.514,1.514,0,0,1-1.063-.366,1.278,1.278,0,0,1-.4-.994,1.278,1.278,0,0,1,.4-.994,1.728,1.728,0,0,1,2.126,0,1.28,1.28,0,0,1,.4.994,1.28,1.28,0,0,1-.4.994,1.516,1.516,0,0,1-1.063.366M57.47,13a.376.376,0,0,1-.436-.436V4.532a.448.448,0,0,1,.1-.34.481.481,0,0,1,.331-.1h1.674a.476.476,0,0,1,.34.1.476.476,0,0,1,.1.34v8.036a.48.48,0,0,1-.1.331.448.448,0,0,1-.34.1Z" transform="translate(-39.414 0)" fill="#fff"/>
          <path id="Trazado_43173" data-name="Trazado 43173" d="M73.243,21.676a.376.376,0,0,1-.436-.436V13.2a.449.449,0,0,1,.1-.34.481.481,0,0,1,.331-.1H74.5a.45.45,0,0,1,.488.383l.14.471a7.517,7.517,0,0,1,1.665-.863,4.689,4.689,0,0,1,1.525-.253,2.346,2.346,0,0,1,2.214,1.115,7.138,7.138,0,0,1,1.674-.854,5.087,5.087,0,0,1,1.621-.262,2.537,2.537,0,0,1,1.891.68,2.587,2.587,0,0,1,.671,1.9V21.24a.481.481,0,0,1-.1.331.449.449,0,0,1-.34.1H84.277a.377.377,0,0,1-.436-.436v-5.6q0-1.185-1.063-1.185a4.42,4.42,0,0,0-1.9.453V21.24a.48.48,0,0,1-.1.331.448.448,0,0,1-.34.1H78.769a.376.376,0,0,1-.436-.436v-5.6q0-1.185-1.063-1.185a4.25,4.25,0,0,0-1.918.47V21.24a.481.481,0,0,1-.1.331.449.449,0,0,1-.34.1Z" transform="translate(-50.483 -8.672)" fill="#fff"/>
          <path id="Trazado_43174" data-name="Trazado 43174" d="M126.692,21.938a4.434,4.434,0,0,1-3.321-1.185,4.66,4.66,0,0,1-1.159-3.4A5.056,5.056,0,0,1,123.4,13.8a4.251,4.251,0,0,1,3.295-1.29,3.776,3.776,0,0,1,2.536.784,2.617,2.617,0,0,1,.915,2.092,2.241,2.241,0,0,1-.985,1.979,5.166,5.166,0,0,1-2.9.671,6.866,6.866,0,0,1-1.726-.192,2.367,2.367,0,0,0,.706,1.673,2.778,2.778,0,0,0,1.822.506,7.237,7.237,0,0,0,.95-.061,11.81,11.81,0,0,0,1.281-.27.654.654,0,0,1,.1-.026.548.548,0,0,1,.087-.009q.3,0,.3.4v.8a.723.723,0,0,1-.078.392.641.641,0,0,1-.305.2,7.482,7.482,0,0,1-2.7.488m-.575-5.473a2.368,2.368,0,0,0,1.29-.27.93.93,0,0,0,.4-.828q0-1.1-1.307-1.1-1.674,0-1.935,2.057a7.916,7.916,0,0,0,1.551.14" transform="translate(-84.74 -8.672)" fill="#fff"/>
          <path id="Trazado_43175" data-name="Trazado 43175" d="M41.04,65.954c-4.971,3.668-12.177,5.619-18.383,5.619A33.267,33.267,0,0,1,.2,63.007c-.465-.42-.05-.994.509-.669A45.2,45.2,0,0,0,23.179,68.3a44.7,44.7,0,0,0,17.138-3.507c.84-.356,1.545.554.722,1.161" transform="translate(0 -43.158)" fill="#fff" fill-rule="evenodd"/>
          <path id="Trazado_43176" data-name="Trazado 43176" d="M126.534,61.571c-.636-.814-4.2-.386-5.805-.194-.485.058-.561-.366-.123-.673,2.846-2,7.508-1.421,8.05-.752s-.143,5.349-2.81,7.58c-.41.343-.8.16-.619-.293.6-1.5,1.944-4.853,1.307-5.668" transform="translate(-83.426 -41.136)" fill="#fff" fill-rule="evenodd"/>
        </g>
      </g>
      <g id="Grupo_32712" data-name="Grupo 32712" transform="translate(-7537 -3050.359)">
        <rect id="Rectángulo_18532-3" data-name="Rectángulo 18532" width="88.105" height="53.18" rx="5" transform="translate(8887 3160.359)" fill="none"/>
        <g id="paramount_Blanco" data-name="paramount + Blanco" transform="translate(8903.669 3169.884)">
          <g id="paramount_Blanco-2" data-name="paramount + Blanco" transform="translate(0 0)" clip-path="url(#clip-path-3)">
            <path id="Trazado_25772" data-name="Trazado 25772" d="M363.269,246.624c-.131-.054-.352-.3.012-.984l.847-1.771c.024-.054-.036-.119-.077-.078l-.74.746a12.778,12.778,0,0,0-1.062,1.581l-.895,1.491a.119.119,0,0,1,.107.179l-.823,1.378c-.2.34.161.585.209.5,1.288-2.082,2.04-1.915,2.04-1.915l.43-1a.1.1,0,0,0,0-.08.1.1,0,0,0-.056-.057" transform="translate(-339.071 -229.238)" fill="#fff"/>
            <path id="Trazado_25773" data-name="Trazado 25773" d="M244.166,0a13.367,13.367,0,0,0-10.754,21.3,2.788,2.788,0,0,0,1.1-.883L237,17.237a.507.507,0,0,1,.2-.155l.376-.161,4.092-5.189.6-.465,1.217-1.7a.506.506,0,0,1,.113-.113l.531-.388a.382.382,0,0,1,.441-.006l.644.453a2.535,2.535,0,0,1,.817.942L248.609,15a.406.406,0,0,0,.2.2,3.55,3.55,0,0,1,1.479,1.02c.31.334,1.664,1.855,3.567,4.211a2.7,2.7,0,0,0,1.074.871A13.368,13.368,0,0,0,244.166,0M234.4,14.106l-.865-.28-.537.74v-.913l-.865-.28.865-.28v-.919l.537.74.865-.28-.537.74Zm-.2,2.982-.28.865-.28-.865h-.913l.74-.537-.286-.865.74.537.74-.537-.28.865.74.537Zm.173-6.9.28.865-.74-.537-.74.537.28-.865-.74-.537h.913l.28-.865.28.865h.913Zm1.461-1.962-.537-.74-.865.28.537-.74-.537-.74.865.28.537-.74V6.74l.865.28-.865.28Zm2.278-3.191-.28.871-.28-.871h-.913l.74-.537-.28-.865.74.537.74-.537-.28.865.74.537Zm2.869-1.461-.537.74V3.4l-.865-.28.865-.28V1.926l.537.74.865-.28-.537.74.537.74Zm3.638-.835.28.865-.74-.537-.74.537.28-.865-.74-.537h.913l.28-.865.28.865h.913Zm3.268.662v.913l-.537-.74-.865.28.537-.74-.537-.74.865.28.537-.74v.924l.865.28Zm6.042,9.233.865.28.537-.74v.913l.865.28-.865.28v.913l-.537-.74-.865.28.537-.74ZM250.5,5.9l-.28-.865h-.913l.74-.537-.28-.865.74.537.74-.537-.28.865.74.537h-.918Zm2,2.32V7.312l-.865-.28.865-.28V5.839l.537.74.865-.28-.537.74.537.74-.865-.28Zm1.634,1.425.28-.865.28.865h.913l-.74.537.28.865-.74-.537-.74.537.28-.865-.74-.537Zm.561,7.438-.274.865-.28-.865h-.913l.74-.537-.286-.865.74.537.739-.537-.28.865.74.537Z" transform="translate(-217.034)" fill="#fff"/>
            <path id="Trazado_25774" data-name="Trazado 25774" d="M423.351,177.571a.857.857,0,0,0-.03-.823l-.59-1.592c-.084-.2.1-.328.215-.191a17.685,17.685,0,0,1,1.408,1.825l.549.913c.477.03,1.783.066,3.042.066a3.585,3.585,0,0,1-.352-.406c-2.147-2.666-3.513-4.151-3.525-4.163a2.407,2.407,0,0,0-.972-.716l-.155-.072v.406a.049.049,0,0,1-.1.024l-3.161-5.553v-.018a1.778,1.778,0,0,0-.567-.656l-.31-.215-1.509,3.477a.328.328,0,0,1,.3.453l-1.4,3.221h1.276a3.8,3.8,0,0,1,1.443.286l.34.137a10.645,10.645,0,0,0-1.02,3.2,2.29,2.29,0,0,0,.083.591h2.344l-.1-.65a25.04,25.04,0,0,0,2.785.459" transform="translate(-391.376 -156.475)" fill="#fff"/>
            <path id="Trazado_25775" data-name="Trazado 25775" d="M13.874,360.191c0-2.153-2.284-3.191-4.992-3.191-2.9,0-5.565,1.288-6.537,3.28a3.776,3.776,0,0,0-.412,1.712,2.576,2.576,0,0,0,.412,1.455,2.553,2.553,0,0,0,2.26,1.008c1.348,0,2.41-.74,2.41-2.022a.351.351,0,0,0-.4-.358c-.418,0-.429.239-.418.358a1.59,1.59,0,0,1-1.616,1.813c-1.2,0-1.694-1.014-1.694-2.105a4.762,4.762,0,0,1,3.418-4.336,6.96,6.96,0,0,1,2.553-.447c1.974,0,3.591.758,3.591,2.791a3.386,3.386,0,0,1-3.131,3.268l.072-.227a12.484,12.484,0,0,1,1.473-3.62,2.79,2.79,0,0,1,.191-.256l-.1-.119a4.149,4.149,0,0,0-.429.3c-3.268,2.553-3.37,9.728-7.724,9.728a3.372,3.372,0,0,1-.447-.03,1.524,1.524,0,0,1-1.384-1.6c0-.167.06-.4.06-.531a.435.435,0,0,0-.429-.447H.55c-.388,0-.549.31-.561.746-.03,1.264.907,2,2.35,2.141.161.012.316.018.489.018,3.4,0,5.481-2.571,6.37-5.69a7.48,7.48,0,0,0,1.324-.28c1.575-.441,3.352-1.5,3.352-3.358" transform="translate(0.011 -335.707)" fill="#fff"/>
            <path id="Trazado_25776" data-name="Trazado 25776" d="M216.459,423.1h-1.193l-.274.626-.471,1.056h-.561l-.167.358h.579l-.692,1.545c-.5,1.086-1.276,2.153-1.724,2.153-.1,0-.161-.042-.161-.137a1.417,1.417,0,0,1,.137-.471c.107-.28.37-.805.537-1.157a5.682,5.682,0,0,0,.65-1.682.672.672,0,0,0-.74-.7,2.3,2.3,0,0,0-1.5.805l.3-.716h-1.121l-.919,2.093c-.37.74-1.115,1.962-1.587,1.962-.1,0-.137-.06-.137-.161a.841.841,0,0,1,.071-.257l.591-1.378.99-2.279h-1.217l-.966,2.219c-.3.686-1.056,1.855-1.545,1.855a.155.155,0,0,1-.167-.137v-.042a1.663,1.663,0,0,1,.161-.5l.507-1.115,1.044-2.279h-1.2l-.239.519a1.17,1.17,0,0,1-.954.757.4.4,0,0,1-.388-.179,1.189,1.189,0,0,0-1.276-1.175,2.578,2.578,0,0,0-2.171,1.306,6.677,6.677,0,0,0-.716,1.586c-.429.71-.877,1.259-1.235,1.259-.09,0-.149-.048-.149-.167a1.96,1.96,0,0,1,.161-.489l.775-1.688a3.283,3.283,0,0,0,.37-1.2.615.615,0,0,0-.656-.62,2.4,2.4,0,0,0-1.676.865,1.141,1.141,0,0,0,.018-.256.538.538,0,0,0-.608-.608,2.168,2.168,0,0,0-1.545.865l.316-.775h-1.091l-.924,2.094c-.441.984-1.145,1.962-1.545,1.962-.089,0-.149-.048-.149-.167a5.253,5.253,0,0,1,.286-.847l1.229-2.779c.089-.209-.5-.34-1.247-.34a3.561,3.561,0,0,0-2.135.865,1.928,1.928,0,0,1-.859.507c-.149,0-.107-.042-.107-.089,0-.167.412-.65.412-1.014,0-.167-.09-.28-.322-.28a2.159,2.159,0,0,0-1.336.859l.316-.769h-1.074l-.924,2.094c-.441.984-1.169,2.016-1.563,2.016-.089,0-.149-.048-.149-.167a4.314,4.314,0,0,1,.31-.889l1.229-2.791c.089-.209-.5-.34-1.247-.34a3.684,3.684,0,0,0-2.75,1.515,4.868,4.868,0,0,0-1.068,2.421.817.817,0,0,0,.889.936,2.241,2.241,0,0,0,1.515-.924,1.988,1.988,0,0,0-.042.238c0,.4.161.686.65.686a2.071,2.071,0,0,0,1.455-.924l-.37.847h1.163l1.145-2.6c.382-.847.805-1.288.924-1.288s.06.018.06.048a1.785,1.785,0,0,0-.179.549c0,.221.119.388.441.388a1.306,1.306,0,0,0,.775-.28,4.294,4.294,0,0,0-.984,2.32.817.817,0,0,0,.889.936,2.361,2.361,0,0,0,1.533-1,2.431,2.431,0,0,0-.018.28.651.651,0,0,0,.668.716c.447,0,.895-.31,1.4-.918l-.37.835h1.2l1.1-2.481c.477-1.074,1.127-1.652,1.443-1.652a.143.143,0,0,1,.161.131v.03a1.074,1.074,0,0,1-.1.346l-1.575,3.638h1.229l1.115-2.529c.477-1.086,1.008-1.616,1.408-1.616.119,0,.167.06.167.191a1.086,1.086,0,0,1-.107.4l-1.08,2.29a2.126,2.126,0,0,0-.179.7c0,.352.191.656.728.656.7,0,1.229-.531,1.825-1.318v.167a1.185,1.185,0,0,0,1.324,1.175,2.861,2.861,0,0,0,2.523-1.962,4.253,4.253,0,0,0,.388-1.348.759.759,0,0,0,.388.078,1.051,1.051,0,0,0,.519-.131l-.191.411c-.221.459-.459.966-.65,1.4a2.248,2.248,0,0,0-.209.805.674.674,0,0,0,.728.74,2.45,2.45,0,0,0,1.634-1.109h.012a1.84,1.84,0,0,0-.048.412c0,.358.107.7.608.7a2.2,2.2,0,0,0,1.467-.948l-.37.835h1.2l.966-2.195c.549-1.235,1.1-1.986,1.6-1.986a.167.167,0,0,1,.167.149v.03a6.373,6.373,0,0,1-.567,1.348c-.268.573-.441.919-.567,1.229a2.344,2.344,0,0,0-.209.829.617.617,0,0,0,.68.668,2.66,2.66,0,0,0,1.783-1.187,2.48,2.48,0,0,0-.137.757.946.946,0,0,0,1.008,1.05,1.868,1.868,0,0,0,1.085-.358,4.974,4.974,0,0,0,1.139-1.235l-.209-.2A4.451,4.451,0,0,1,215,429.41a1.013,1.013,0,0,1-.62.238c-.251,0-.412-.131-.412-.447a4.1,4.1,0,0,1,.382-1.324c.012-.012.34-.745.65-1.455.257-.6.519-1.175.567-1.294h.787l.161-.358h-.775Zm-34,5.75c-.167,0-.286-.06-.286-.28a5.5,5.5,0,0,1,1.109-2.469,2.128,2.128,0,0,1,1.587-1.008l-.757,1.694c-.567,1.276-1.187,2.064-1.646,2.064m7.455,0a.259.259,0,0,1-.3-.28,5.5,5.5,0,0,1,1.109-2.469,2.128,2.128,0,0,1,1.587-1.008l-.769,1.694c-.579,1.306-1.163,2.064-1.634,2.064m13.235-3.3a7.9,7.9,0,0,1-1.264,3.149c-.268.376-.5.489-.7.489s-.358-.227-.316-.567a7.64,7.64,0,0,1,1.229-2.911c.31-.429.519-.608.758-.608s.31.2.3.447" transform="translate(-170.199 -397.865)" fill="#fff"/>
            <path id="Trazado_25777" data-name="Trazado 25777" d="M793.121,411.335l1.1-2.535h-1.3l-1.1,2.535h-2.762L788.6,412.4h2.762l-1.1,2.535h1.3l1.1-2.535h2.761l.459-1.062Z" transform="translate(-741.565 -384.418)" fill="#fff"/>
          </g>
        </g>
      </g>
      <g id="Grupo_32713" data-name="Grupo 32713" transform="translate(1463 110)">
        <rect id="Rectángulo_18532-4" data-name="Rectángulo 18532" width="88.105" height="53.18" rx="5" transform="translate(0 0)" fill="none"/>
        <g id="Grupo_22158" data-name="Grupo 22158" transform="translate(14.288 10.319)">
          <path id="Trazado_42240" data-name="Trazado 42240" d="M44.983-378.069c-.54.025-1.08.047-1.62.06-.107,0-.133.028-.132.134,0,1.088,0,2.176,0,3.264,0,.245.008.491-.006.735a1.2,1.2,0,0,1-1.359,1.265,1.083,1.083,0,0,1-1.055-.8,2,2,0,0,1-.088-.6c0-1.241,0-2.482,0-3.723,0-.139-.035-.161-.167-.155-.591.028-1.181.078-1.773.07v4.383a1.437,1.437,0,0,1,.09.406,2.488,2.488,0,0,0,1.768,1.984,4.361,4.361,0,0,0,2.577.011,2.5,2.5,0,0,0,1.726-1.694,4.552,4.552,0,0,0,.207-1.447c0-1.241,0-2.482.006-3.723C45.164-378.055,45.111-378.075,44.983-378.069Z" transform="translate(-38.788 390.88)" fill="#fff"/>
          <path id="Trazado_42241" data-name="Trazado 42241" d="M232.621-372.585c-.124,0-.148-.043-.148-.158,0-1.655,0-3.31.006-4.965,0-.13-.038-.162-.156-.166-.535-.02-1.07-.043-1.6-.076-.129-.008-.146.032-.146.146q0,3.379,0,6.758c0,.115.022.153.146.152.976-.006,1.951,0,2.927,0l2.053,0v-1.655C234.673-372.567,233.647-372.58,232.621-372.585Z" transform="translate(-176.05 390.795)" fill="#fff"/>
          <path id="Trazado_42242" data-name="Trazado 42242" d="M140.908-423.1c0-.009.013-.015.008-.026h-.889c-.005.011,0,.018.008.027Z" transform="translate(-111.245 423.13)" fill="#fff"/>
          <path id="Trazado_42243" data-name="Trazado 42243" d="M143.367-423.106c0-.008.011-.015.006-.025h-.214c0,.009,0,.017,0,.026Z" transform="translate(-113.487 423.13)" fill="#fff"/>
          <path id="Trazado_42244" data-name="Trazado 42244" d="M139.483-423.1a.168.168,0,0,0,0-.027h-.215c-.005.01,0,.017.006.025Z" transform="translate(-110.704 423.13)" fill="#fff"/>
          <path id="Trazado_42245" data-name="Trazado 42245" d="M90.414-412.535a14.6,14.6,0,0,1,.716-1.551,14.418,14.418,0,0,1,4.953-5.459,13.935,13.935,0,0,1,8.283-2.211,14.234,14.234,0,0,1,3.973.725,15.206,15.206,0,0,1,6.622,4.377,15.014,15.014,0,0,1,2.826,4.617c.041.106.087.154.205.145.153-.012.306,0,.46,0,.178,0,.179,0,.123-.165a15.986,15.986,0,0,0-4.262-6.653A15.961,15.961,0,0,0,104.06-423.1a.131.131,0,0,1,0-.026h-.184a.059.059,0,0,1,0,.025h-.008c0,.007,0,.016-.005.022a.164.164,0,0,1-.2-.021h-.012c0,.008,0,.018-.007.024a2.691,2.691,0,0,1-.859,0c-.008-.005,0-.015-.006-.022h-.011a.167.167,0,0,1-.2.019c-.007-.006,0-.014,0-.021h-.008a.123.123,0,0,1,0-.025h-.184a.068.068,0,0,1,0,.027,16.2,16.2,0,0,0-14.4,10.74c.774-.018,1.544-.036,2.314-.05C90.377-412.415,90.391-412.475,90.414-412.535Z" transform="translate(-73.989 423.13)" fill="#fff"/>
          <path id="Trazado_42246" data-name="Trazado 42246" d="M72.137-378.8c0-.106-.023-.135-.134-.131-.535.021-1.071.034-1.607.046-.111,0-.151.035-.151.158.005,1.154,0,2.309,0,3.463a.323.323,0,0,1-.024.182l-.175-.233-2.521-3.371c-.043-.057-.077-.111-.167-.108-.515.019-1.03.036-1.545.046-.106,0-.137.032-.137.139q0,3.441,0,6.88c0,.112.036.133.139.132.526,0,1.052-.007,1.578,0,.126,0,.16-.031.159-.159-.005-1.195,0-2.39,0-3.585,0-.05-.019-.107.027-.157q1.4,1.9,2.794,3.789a.229.229,0,0,0,.211.112q.7-.01,1.41,0c.113,0,.143-.023.143-.14-.005-1.154,0-2.309,0-3.463C72.134-376.4,72.133-377.6,72.137-378.8Z" transform="translate(-58.034 391.496)" fill="#fff"/>
          <path id="Trazado_42247" data-name="Trazado 42247" d="M160.207-374.53c-.056-.089-.053-.122.048-.174a2.244,2.244,0,0,0,1.165-1.389,2.951,2.951,0,0,0,.1-1.122,2.3,2.3,0,0,0-1.3-1.973,3.208,3.208,0,0,0-1.448-.333c-1.057-.007-2.115,0-3.172,0-.109,0-.147.02-.147.141q.006,3.609,0,7.218c0,.11.02.148.14.146q.82-.011,1.64,0c.128,0,.147-.042.146-.155,0-.664,0-1.328-.005-1.992,0-.125.038-.152.153-.147a5.732,5.732,0,0,0,.628,0,.246.246,0,0,1,.269.161c.35.679.709,1.353,1.064,2.029.029.054.044.1.127.1.7,0,1.408,0,2.141,0l-.1-.168Q160.932-373.361,160.207-374.53Zm-.617-2.051a.811.811,0,0,1-.694.589,10.576,10.576,0,0,1-1.451.035c-.086,0-.064-.062-.064-.108,0-.27,0-.54,0-.811s0-.531,0-.8c0-.06,0-.108.083-.106.444.011.888-.023,1.33.016A.88.88,0,0,1,159.59-376.581Z" transform="translate(-122.288 391.922)" fill="#fff"/>
          <path id="Trazado_42248" data-name="Trazado 42248" d="M131.832-372.022q2.636-.006,5.271,0c.1,0,.127-.025.126-.125-.005-.485-.008-.971,0-1.456,0-.146-.023-.2-.186-.194-1.078.009-2.155,0-3.234.007-.11,0-.164-.013-.159-.145.011-.3.012-.592,0-.888-.005-.138.037-.167.17-.166.96.006,1.92,0,2.881.006.115,0,.146-.03.144-.144-.007-.449-.008-.9,0-1.348,0-.129-.034-.159-.16-.158-.965.005-1.931,0-2.9.005-.105,0-.14-.026-.138-.135.007-.281.01-.562,0-.843-.005-.129.03-.158.157-.157,1.077.006,2.156,0,3.233.005.092,0,.132-.013.13-.121q-.01-.758,0-1.517c0-.117-.043-.129-.142-.129q-2.59,0-5.179,0c-.12,0-.152.03-.151.151,0,1.2,0,2.4,0,3.6s0,2.411,0,3.616C131.7-372.056,131.72-372.021,131.832-372.022Z" transform="translate(-105.287 391.923)" fill="#fff"/>
          <path id="Trazado_42249" data-name="Trazado 42249" d="M183.748-376.188a6.526,6.526,0,0,0-1.349-.48,3.282,3.282,0,0,1-.968-.365.43.43,0,0,1-.243-.455.446.446,0,0,1,.38-.35,1.568,1.568,0,0,1,.609-.012,3.334,3.334,0,0,1,1.5.648c.089.065.121.054.178-.035.255-.4.515-.8.784-1.187.071-.1.059-.152-.034-.229a4.064,4.064,0,0,0-2.656-.934,3.528,3.528,0,0,0-.9.1,2.227,2.227,0,0,0-1.739,2.714,2.05,2.05,0,0,0,1.093,1.348,6.03,6.03,0,0,0,1.495.566,3.144,3.144,0,0,1,.856.315.43.43,0,0,1,.225.422.44.44,0,0,1-.3.388,1.2,1.2,0,0,1-.435.073,3.234,3.234,0,0,1-2.093-.774c-.152-.121-.152-.122-.273.036l-.776,1.006c-.165.215-.167.218.044.393a4.511,4.511,0,0,0,3.768.98,2.2,2.2,0,0,0,1.955-1.925A1.956,1.956,0,0,0,183.748-376.188Z" transform="translate(-139.128 391.966)" fill="#fff"/>
          <path id="Trazado_42250" data-name="Trazado 42250" d="M207.31-374.48l-1.633-4.08c-.028-.068-.042-.135-.151-.137q-.8-.01-1.607-.04c-.109,0-.146.04-.182.132q-1.155,2.893-2.316,5.785l-.538,1.342c.02.01.028.018.037.018.623,0,1.246,0,1.87,0,.085,0,.1-.052.12-.109.139-.361.281-.721.416-1.083a.136.136,0,0,1,.153-.1q1.2.006,2.391,0a.136.136,0,0,1,.152.107c.133.357.275.712.407,1.07a.158.158,0,0,0,.177.121c.6-.005,1.2,0,1.793,0,.034,0,.068,0,.1-.006.016-.046-.01-.075-.023-.108Zm-3.39.159.77-2.021.747,2.021Z" transform="translate(-154.801 391.358)" fill="#fff"/>
          <path id="Trazado_42251" data-name="Trazado 42251" d="M108.288-379.369q-.385,1.264-.777,2.525c-.208.673-.417,1.347-.627,2.026-.052-.026-.053-.073-.065-.108q-.376-1.074-.747-2.149-.4-1.146-.8-2.292c-.02-.058-.033-.106-.119-.105-.668,0-1.337,0-2.039,0,.029.088.041.126.055.164q1.343,3.588,2.684,7.176a.154.154,0,0,0,.177.116q.781-.008,1.563,0a.17.17,0,0,0,.193-.136q1.136-3.184,2.279-6.365c.118-.328.235-.657.358-1h-.171c-.6.005-1.195.014-1.792.012C108.351-379.506,108.317-379.465,108.288-379.369Z" transform="translate(-84.829 391.916)" fill="#fff"/>
          <path id="Trazado_42252" data-name="Trazado 42252" d="M95.172-379.166c-.576.018-1.152.028-1.729.036-.09,0-.107.03-.107.113q0,3.569,0,7.139c0,.1.031.115.121.115.557,0,1.113-.005,1.67,0,.116,0,.152-.023.151-.147-.005-1.18,0-2.359,0-3.539s0-2.39,0-3.585C95.275-379.106,95.29-379.17,95.172-379.166Z" transform="translate(-77.829 391.665)" fill="#fff"/>
          <path id="Trazado_42253" data-name="Trazado 42253" d="M184.874-345.146h-2.048v-2.048h-1.658v2.048H179.12v1.658h2.048v2.048h1.658v-2.048h2.048Z" transform="translate(-139.225 368.782)" fill="#fff"/>
          <path id="Trazado_42254" data-name="Trazado 42254" d="M105.454-336.858a16.585,16.585,0,0,1-3.969-.115,14.577,14.577,0,0,1-4.5-1.405,14.135,14.135,0,0,1-6.108-5.971,15.581,15.581,0,0,1-.952-2.1c-.019-.052-.02-.12-.112-.119-.469,0-.937,0-1.4,0-.023.055.007.091.02.128a15.1,15.1,0,0,0,3.5,5.768,15.659,15.659,0,0,0,9.969,4.757,16.683,16.683,0,0,0,5.742-.424,15.341,15.341,0,0,0,7.087-3.9l-.975-.049A14.035,14.035,0,0,1,105.454-336.858Z" transform="translate(-74.299 368.332)" fill="#fff"/>
        </g>
      </g>
      <ellipse id="Elipse_406" data-name="Elipse 406" cx="3.503" cy="3.503" rx="3.503" ry="3.503" transform="translate(1222 133)" fill="#fff"/>
      <ellipse id="Elipse_407" data-name="Elipse 407" cx="3.503" cy="3.503" rx="3.503" ry="3.503" transform="translate(1334 133)" fill="#fff"/>
      <ellipse id="Elipse_408" data-name="Elipse 408" cx="3.503" cy="3.503" rx="3.503" ry="3.503" transform="translate(1447 133)" fill="#fff"/>
    </g>
    <g id="Grupo_32717" data-name="Grupo 32717" transform="translate(4 -13)">
      <g id="Grupo_32714" data-name="Grupo 32714" transform="translate(1232 167)">
        <g id="Grupo_32673" data-name="Grupo 32673" transform="translate(4.069 21.703)">
          <path id="Trazado_42373" data-name="Trazado 42373" d="M76.595,8.884a.176.176,0,0,0-.152-.282h-.23v.579h.109V8.955h.08l.124.225h.125l-.137-.241A.168.168,0,0,0,76.595,8.884Zm-.161-.035h-.113V8.71h.113c.055,0,.084.023.084.069S76.49,8.849,76.434,8.849Zm-.033-.5a.544.544,0,1,0,.544.544A.544.544,0,0,0,76.4,8.348Zm0,.982a.438.438,0,1,1,.438-.438A.439.439,0,0,1,76.4,9.33Zm-.123-3.435H74.627V8.164H72.4V5.895H70.131V3.667H72.4V1.4h2.228V3.667h2.888Zm-5.65.94V9.305H63.365V.257h7.263V2.728H66.093v.939H69.43V5.895H66.093v.94ZM54.9.257h7.761V2.728h-2.5V9.305H57.436V2.728H54.9Zm-4.564,0L46.757,9.3h2.891l.326-.983h3.164l.326.983h2.891L52.773.257Zm.237,6.252.98-2.953.98,2.953ZM47.365,4.781c-.01,2.448-1,4.781-4.361,4.781-3.312,0-4.51-2.333-4.521-4.781C38.494,2.333,39.585,0,43.005,0h0c3.529,0,4.092,2.333,4.1,3.041H44.35s-.118-.9-1.338-.9c-.993,0-1.774.618-1.774,2.637,0,2.127.94,2.637,1.771,2.637a1.528,1.528,0,0,0,1.605-1.535H42.924V3.98h4.441ZM37.922,6.566c0,1.675-1.212,3-4.026,3-3.8,0-4.085-2.333-4.095-3.041h2.757c0,.387.226.9,1.338.9,1.007,0,1.3-.388,1.3-.753,0-1.48-5.161-.066-5.161-3.937,0-.639.519-2.727,3.848-2.727,3.275,0,3.774,2.139,3.774,2.829H35.031c0-.286-.2-.818-1.192-.818-.885,0-1.192.322-1.192.717C32.647,4.179,37.922,2.728,37.922,6.566ZM26.268.257H29V9.305H26.268L23.539,4.781V9.305H20.811V.257H23.54l2.728,4.524ZM15.256,0c-3.474,0-4.593,2.333-4.6,4.781.01,2.448,1.129,4.781,4.6,4.781s4.593-2.333,4.6-4.781C19.849,2.333,18.73,0,15.256,0Zm0,7.418c-.885,0-1.829-.51-1.829-2.637s.944-2.637,1.829-2.637,1.829.51,1.829,2.637S16.141,7.418,15.256,7.418ZM6.973.257H9.7V9.305H6.973ZM2.728,6.834h3.4V9.305H0V.257H2.728Z" transform="translate(0)" fill="#fff"/>
        </g>
        <rect id="Rectángulo_18532-5" data-name="Rectángulo 18532" width="87.278" height="52.682" rx="5" transform="translate(0 0)" fill="none"/>
      </g>
      <g id="Grupo_32715" data-name="Grupo 32715" transform="translate(1348 166)">
        <rect id="Rectángulo_18532-6" data-name="Rectángulo 18532" width="89.337" height="53.925" rx="5" transform="translate(0 0)" fill="none"/>
        <g id="Grupo_22160" data-name="Grupo 22160" transform="translate(10.852 18.665)">
          <path id="Trazado_42620" data-name="Trazado 42620" d="M0,12.179A5.936,5.936,0,0,1,6.1,6.132a5.6,5.6,0,0,1,5.7,3.9L9.1,10.7a3.038,3.038,0,0,0-2.99-1.977,3.25,3.25,0,0,0-3.289,3.439,3.306,3.306,0,0,0,3.289,3.472A2.994,2.994,0,0,0,9.1,13.69l2.691.681a5.544,5.544,0,0,1-5.648,3.854A5.948,5.948,0,0,1,0,12.179" transform="translate(0 -5.29)" fill="#fff"/>
          <rect id="Rectángulo_18371" data-name="Rectángulo 18371" width="2.658" height="8.472" transform="translate(15.732 4.231)" fill="#fff"/>
          <path id="Trazado_42621" data-name="Trazado 42621" d="M176.926,7.827V19.455h-2.243l-5.233-6.661v6.661h-2.758V7.827h2.243l5.233,6.661V7.827Z" transform="translate(-143.801 -6.752)" fill="#fff"/>
          <path id="Trazado_42622" data-name="Trazado 42622" d="M284.734,13.641c0,3.372-2.176,5.814-5.5,5.814H273.87V7.827h5.366c3.272,0,5.5,2.359,5.5,5.814m-2.791-.05c0-2.043-1.213-3.289-2.774-3.289h-2.575V16.98h2.575c1.562,0,2.774-1.345,2.774-3.389" transform="translate(-236.26 -6.752)" fill="#fff"/>
          <path id="Trazado_42623" data-name="Trazado 42623" d="M433.444,10.319v2.027h5.216v2.409h-5.216v2.209h6.047v2.492h-8.738V7.827h8.755v2.492Z" transform="translate(-371.598 -6.752)" fill="#fff"/>
          <path id="Trazado_42624" data-name="Trazado 42624" d="M114.447,1.777A1.777,1.777,0,1,1,112.669,0a1.778,1.778,0,0,1,1.777,1.777" transform="translate(-95.663 0)" fill="#fff"/>
          <rect id="Rectángulo_18372" data-name="Rectángulo 18372" width="2.658" height="8.472" transform="translate(52.394 0.768)" fill="#fff"/>
          <path id="Trazado_42625" data-name="Trazado 42625" d="M379.8,72.1a1.777,1.777,0,1,0,1.777,1.778A1.778,1.778,0,0,0,379.8,72.1" transform="translate(-326.109 -62.195)" fill="#fff"/>
          <path id="Trazado_42626" data-name="Trazado 42626" d="M9.568,115.588v1.548h-.4v-.2a.6.6,0,0,1-.5.239c-.407,0-.612-.272-.612-.688v-.9h.4v.826c0,.236.107.388.33.388s.373-.177.373-.453v-.762Z" transform="translate(-6.951 -99.714)" fill="#fff"/>
          <path id="Trazado_42627" data-name="Trazado 42627" d="M23.465,115.961v.905h-.4v-.829c0-.236-.107-.385-.33-.385s-.373.177-.373.449v.765h-.4v-1.548h.4v.2a.615.615,0,0,1,.5-.239c.4,0,.609.272.609.685" transform="translate(-18.939 -99.445)" fill="#fff"/>
          <path id="Trazado_42628" data-name="Trazado 42628" d="M43.68,115.946v.921h-.4v-.835c0-.232-.086-.379-.3-.379s-.327.162-.327.425v.789h-.407v-.835c0-.229-.083-.379-.29-.379s-.333.165-.333.437v.777h-.4v-1.547h.4v.183a.562.562,0,0,1,.459-.226.517.517,0,0,1,.465.232.644.644,0,0,1,.523-.232.591.591,0,0,1,.612.67" transform="translate(-35.558 -99.445)" fill="#fff"/>
          <path id="Trazado_42629" data-name="Trazado 42629" d="M63.218,115.588v1.548h-.4v-.2a.6.6,0,0,1-.5.239c-.407,0-.612-.272-.612-.688v-.9h.4v.826c0,.236.107.388.33.388s.373-.177.373-.453v-.762Z" transform="translate(-53.233 -99.714)" fill="#fff"/>
          <path id="Trazado_42630" data-name="Trazado 42630" d="M77.115,115.961v.905h-.4v-.829c0-.236-.107-.385-.33-.385s-.373.177-.373.449v.765h-.4v-1.548h.4v.2a.615.615,0,0,1,.5-.239c.4,0,.609.272.609.685" transform="translate(-65.221 -99.445)" fill="#fff"/>
          <path id="Trazado_42631" data-name="Trazado 42631" d="M90.368,110.6v2.233h-.407v-.19a.615.615,0,0,1-.5.232.818.818,0,0,1,0-1.633.613.613,0,0,1,.5.229V110.6Zm-.395,1.456a.436.436,0,0,0-.44-.453.456.456,0,0,0,0,.911.439.439,0,0,0,.44-.459" transform="translate(-76.517 -95.41)" fill="#fff"/>
          <path id="Trazado_42632" data-name="Trazado 42632" d="M103.063,116.093a.827.827,0,1,1,.829.817.8.8,0,0,1-.829-.817m1.263,0a.435.435,0,1,0-.434.45.427.427,0,0,0,.434-.45" transform="translate(-88.909 -99.445)" fill="#fff"/>
          <path id="Trazado_42633" data-name="Trazado 42633" d="M123.8,110.6v2.233h-.407v-.19a.615.615,0,0,1-.5.232.818.818,0,0,1,0-1.633.613.613,0,0,1,.5.229V110.6Zm-.395,1.456a.436.436,0,0,0-.44-.453.456.456,0,0,0,0,.911.439.439,0,0,0,.44-.459" transform="translate(-105.355 -95.41)" fill="#fff"/>
          <path id="Trazado_42634" data-name="Trazado 42634" d="M136.491,116.093a.784.784,0,0,1,.81-.817.815.815,0,0,1,.789.939h-1.2a.4.4,0,0,0,.45.352.4.4,0,0,0,.376-.2l.364.107a.846.846,0,0,1-1.587-.376m1.214-.132a.379.379,0,0,0-.407-.343.4.4,0,0,0-.41.343Z" transform="translate(-117.747 -99.445)" fill="#fff"/>
          <path id="Trazado_42635" data-name="Trazado 42635" d="M155.22,116.093a.784.784,0,0,1,.81-.817.815.815,0,0,1,.789.939h-1.2a.4.4,0,0,0,.45.352.4.4,0,0,0,.376-.2l.364.107a.846.846,0,0,1-1.587-.376m1.214-.132a.379.379,0,0,0-.407-.343.4.4,0,0,0-.41.343Z" transform="translate(-133.904 -99.445)" fill="#fff"/>
          <path id="Trazado_42636" data-name="Trazado 42636" d="M170.672,115.961v.905h-.4v-.829c0-.236-.107-.385-.33-.385s-.373.177-.373.449v.765h-.4v-1.548h.4v.2a.615.615,0,0,1,.5-.239c.4,0,.609.272.609.685" transform="translate(-145.93 -99.445)" fill="#fff"/>
          <path id="Trazado_42637" data-name="Trazado 42637" d="M182.948,113.935a.929.929,0,0,1-.361.073.484.484,0,0,1-.517-.553v-.664h-.26v-.355h.26v-.5h.407v.5h.453v.355h-.453v.664a.172.172,0,0,0,.19.2.377.377,0,0,0,.184-.043Z" transform="translate(-156.842 -96.563)" fill="#fff"/>
          <path id="Trazado_42638" data-name="Trazado 42638" d="M193.035,115.393v.379c-.33-.052-.511.1-.511.517v.673h-.4v-1.548h.4v.229a.465.465,0,0,1,.511-.251" transform="translate(-165.737 -99.54)" fill="#fff"/>
          <path id="Trazado_42639" data-name="Trazado 42639" d="M199.382,116.093a.784.784,0,0,1,.81-.817.815.815,0,0,1,.789.939h-1.2a.4.4,0,0,0,.45.352.4.4,0,0,0,.376-.2l.364.107a.846.846,0,0,1-1.587-.376m1.214-.132a.379.379,0,0,0-.407-.343.4.4,0,0,0-.41.343Z" transform="translate(-172.001 -99.445)" fill="#fff"/>
          <path id="Trazado_42640" data-name="Trazado 42640" d="M212.992,113.935a.929.929,0,0,1-.361.073.484.484,0,0,1-.517-.553v-.664h-.26v-.355h.26v-.5h.407v.5h.453v.355h-.453v.664a.172.172,0,0,0,.19.2.376.376,0,0,0,.183-.043Z" transform="translate(-182.76 -96.563)" fill="#fff"/>
          <path id="Trazado_42641" data-name="Trazado 42641" d="M220.94,116.093a.784.784,0,0,1,.81-.817.815.815,0,0,1,.789.939h-1.2a.4.4,0,0,0,.45.352.4.4,0,0,0,.376-.2l.364.107a.846.846,0,0,1-1.587-.376m1.214-.132a.379.379,0,0,0-.407-.343.4.4,0,0,0-.41.343Z" transform="translate(-190.598 -99.445)" fill="#fff"/>
          <path id="Trazado_42642" data-name="Trazado 42642" d="M236.392,115.961v.905h-.4v-.829c0-.236-.107-.385-.33-.385s-.373.177-.373.449v.765h-.4v-1.548h.4v.2a.615.615,0,0,1,.5-.239c.4,0,.609.272.609.685" transform="translate(-202.625 -99.445)" fill="#fff"/>
          <path id="Trazado_42643" data-name="Trazado 42643" d="M248.4,110.809a.242.242,0,1,1,.242.239.236.236,0,0,1-.242-.239m.034.456h.407v1.548h-.407Z" transform="translate(-214.286 -95.391)" fill="#fff"/>
          <path id="Trazado_42644" data-name="Trazado 42644" d="M257.008,115.946v.921h-.4v-.835c0-.232-.086-.379-.3-.379s-.327.162-.327.425v.789h-.407v-.835c0-.229-.083-.379-.29-.379s-.333.165-.333.437v.777h-.4v-1.547h.4v.183a.561.561,0,0,1,.459-.226.517.517,0,0,1,.465.232.643.643,0,0,1,.523-.232.591.591,0,0,1,.612.67" transform="translate(-219.589 -99.445)" fill="#fff"/>
          <path id="Trazado_42645" data-name="Trazado 42645" d="M274.99,110.809a.242.242,0,1,1,.242.239.236.236,0,0,1-.242-.239m.034.456h.407v1.548h-.407Z" transform="translate(-237.226 -95.391)" fill="#fff"/>
          <path id="Trazado_42646" data-name="Trazado 42646" d="M280.446,116.093a.784.784,0,0,1,.81-.817.755.755,0,0,1,.8.8.743.743,0,0,1-.009.144h-1.2a.4.4,0,0,0,.45.352.4.4,0,0,0,.376-.2l.364.107a.846.846,0,0,1-1.587-.376m1.214-.132a.379.379,0,0,0-.407-.343.4.4,0,0,0-.41.343Z" transform="translate(-241.933 -99.445)" fill="#fff"/>
          <path id="Trazado_42647" data-name="Trazado 42647" d="M295.9,115.961v.905h-.4v-.829c0-.236-.107-.385-.33-.385s-.373.177-.373.449v.765h-.4v-1.548h.4v.2a.615.615,0,0,1,.5-.239c.4,0,.609.272.609.685" transform="translate(-253.96 -99.445)" fill="#fff"/>
          <path id="Trazado_42648" data-name="Trazado 42648" d="M308.176,113.935a.929.929,0,0,1-.361.073.484.484,0,0,1-.517-.553v-.664h-.26v-.355h.26v-.5h.407v.5h.453v.355H307.7v.664a.172.172,0,0,0,.19.2.376.376,0,0,0,.183-.043Z" transform="translate(-264.873 -96.563)" fill="#fff"/>
          <path id="Trazado_42649" data-name="Trazado 42649" d="M316.123,116.093a.827.827,0,1,1,.829.817.8.8,0,0,1-.829-.817m1.263,0a.435.435,0,1,0-.434.45.427.427,0,0,0,.434-.45" transform="translate(-272.71 -99.445)" fill="#fff"/>
          <path id="Trazado_42650" data-name="Trazado 42650" d="M335.61,110.809a.242.242,0,1,1,.242.239.236.236,0,0,1-.242-.239m.034.456h.407v1.548h-.407Z" transform="translate(-289.521 -95.391)" fill="#fff"/>
          <path id="Trazado_42651" data-name="Trazado 42651" d="M343.268,115.961v.905h-.4v-.829c0-.236-.107-.385-.33-.385s-.373.177-.373.449v.765h-.4v-1.548h.4v.2a.615.615,0,0,1,.5-.239c.4,0,.609.272.609.685" transform="translate(-294.824 -99.445)" fill="#fff"/>
          <path id="Trazado_42652" data-name="Trazado 42652" d="M356.522,110.6v2.233h-.407v-.19a.615.615,0,0,1-.5.232.818.818,0,0,1,0-1.633.613.613,0,0,1,.5.229V110.6Zm-.395,1.456a.436.436,0,0,0-.44-.453.456.456,0,0,0,0,.911.439.439,0,0,0,.44-.459" transform="translate(-306.12 -95.41)" fill="#fff"/>
          <path id="Trazado_42653" data-name="Trazado 42653" d="M369.216,116.093a.784.784,0,0,1,.81-.817.815.815,0,0,1,.789.939h-1.2a.4.4,0,0,0,.45.352.4.4,0,0,0,.376-.2l.364.107a.846.846,0,0,1-1.587-.376m1.214-.132a.379.379,0,0,0-.407-.343.4.4,0,0,0-.41.343Z" transform="translate(-318.512 -99.445)" fill="#fff"/>
          <path id="Trazado_42654" data-name="Trazado 42654" d="M384.824,116.093a.775.775,0,0,1-.761.817.621.621,0,0,1-.5-.232v.832h-.4v-2.19h.4v.186a.619.619,0,0,1,.5-.229.773.773,0,0,1,.761.817m-.4,0a.426.426,0,0,0-.434-.453.456.456,0,0,0,0,.911.429.429,0,0,0,.434-.459" transform="translate(-330.538 -99.445)" fill="#fff"/>
          <path id="Trazado_42655" data-name="Trazado 42655" d="M396.831,116.093a.784.784,0,0,1,.81-.817.816.816,0,0,1,.789.939h-1.2a.4.4,0,0,0,.45.352.4.4,0,0,0,.376-.2l.364.107a.845.845,0,0,1-1.587-.376m1.214-.132a.379.379,0,0,0-.407-.343.4.4,0,0,0-.41.343Z" transform="translate(-342.334 -99.445)" fill="#fff"/>
          <path id="Trazado_42656" data-name="Trazado 42656" d="M412.284,115.961v.905h-.4v-.829c0-.236-.107-.385-.33-.385s-.373.177-.373.449v.765h-.4v-1.548h.4v.2a.614.614,0,0,1,.5-.239c.4,0,.609.272.609.685" transform="translate(-354.362 -99.445)" fill="#fff"/>
          <path id="Trazado_42657" data-name="Trazado 42657" d="M425.537,110.6v2.233h-.407v-.19a.615.615,0,0,1-.5.232.818.818,0,0,1,0-1.633.613.613,0,0,1,.5.229V110.6Zm-.395,1.456a.436.436,0,0,0-.44-.453.456.456,0,0,0,0,.911.439.439,0,0,0,.44-.459" transform="translate(-365.658 -95.41)" fill="#fff"/>
          <path id="Trazado_42658" data-name="Trazado 42658" d="M438.655,110.809a.242.242,0,1,1,.242.239.236.236,0,0,1-.242-.239m.034.456h.407v1.548h-.407Z" transform="translate(-378.415 -95.391)" fill="#fff"/>
          <path id="Trazado_42659" data-name="Trazado 42659" d="M444.112,116.093a.784.784,0,0,1,.81-.817.816.816,0,0,1,.789.939h-1.2a.4.4,0,0,0,.45.352.4.4,0,0,0,.376-.2l.364.107a.846.846,0,0,1-1.587-.376m1.214-.132a.38.38,0,0,0-.407-.343.4.4,0,0,0-.41.343Z" transform="translate(-383.122 -99.445)" fill="#fff"/>
          <path id="Trazado_42660" data-name="Trazado 42660" d="M459.564,115.961v.905h-.4v-.829c0-.236-.107-.385-.33-.385s-.373.177-.373.449v.765h-.4v-1.548h.4v.2a.615.615,0,0,1,.5-.239c.4,0,.609.272.609.685" transform="translate(-395.149 -99.445)" fill="#fff"/>
          <path id="Trazado_42661" data-name="Trazado 42661" d="M471.841,113.935a.928.928,0,0,1-.361.073.484.484,0,0,1-.517-.553v-.664h-.26v-.355h.26v-.5h.407v.5h.453v.355h-.453v.664a.172.172,0,0,0,.19.2.377.377,0,0,0,.184-.043Z" transform="translate(-406.062 -96.563)" fill="#fff"/>
          <path id="Trazado_42662" data-name="Trazado 42662" d="M479.789,116.093a.784.784,0,0,1,.81-.817.815.815,0,0,1,.789.939h-1.2a.4.4,0,0,0,.45.352.4.4,0,0,0,.376-.2l.364.107a.845.845,0,0,1-1.587-.376m1.214-.132a.379.379,0,0,0-.407-.343.4.4,0,0,0-.41.343Z" transform="translate(-413.9 -99.445)" fill="#fff"/>
        </g>
      </g>
      <ellipse id="Elipse_409" data-name="Elipse 409" cx="3.503" cy="3.503" rx="3.503" ry="3.503" transform="translate(1330 189)" fill="#fff"/>
    </g>
  </g>
</svg>
