<svg xmlns="http://www.w3.org/2000/svg" xmlns:xlink="http://www.w3.org/1999/xlink" width="369.17" height="100.821" viewBox="0 0 369.17 100.821">
  <defs>
    <clipPath id="clip-path">
      <rect id="Rectángulo_18610" data-name="Rectángulo 18610" width="32.656" height="20.438" fill="#fff"/>
    </clipPath>
    <clipPath id="clip-path-2">
      <rect id="Rectángulo_9933" data-name="Rectángulo 9933" width="45.511" height="12.228" fill="rgba(0,0,0,0)"/>
    </clipPath>
    <clipPath id="clip-path-3">
      <rect id="Rectángulo_10197" data-name="Rectángulo 10197" width="39.067" height="24.321" fill="none"/>
    </clipPath>
  </defs>
  <g id="pqt_entretenimiento_total" transform="translate(-8570 -3160)">
    <g id="Grupo_32733" data-name="Grupo 32733" transform="translate(8685.078 3222.24)">
      <g id="Grupo_32686" data-name="Grupo 32686">
        <rect id="Rectángulo_18532" data-name="Rectángulo 18532" width="63.92" height="38.582" rx="5" transform="translate(0 0)" fill="none"/>
        <g id="Grupo_32685" data-name="Grupo 32685" transform="translate(11.708 7.805)">
          <path id="Trazado_43304" data-name="Trazado 43304" d="M4.969,18.2H7.5V25.04H4.969v-.613a2.226,2.226,0,0,1-1.833.807A2.829,2.829,0,0,1,.877,24.211,3.854,3.854,0,0,1,0,21.621a3.844,3.844,0,0,1,.877-2.587A2.828,2.828,0,0,1,3.135,18a2.231,2.231,0,0,1,1.833.807Zm-2.1,4.339a1.139,1.139,0,0,0,.883.37,1.139,1.139,0,0,0,.883-.37,1.423,1.423,0,0,0,0-1.835,1.139,1.139,0,0,0-.883-.37,1.139,1.139,0,0,0-.883.37,1.423,1.423,0,0,0,0,1.835" transform="translate(1.038 -14.887)" fill="#fff"/>
          <path id="Trazado_43305" data-name="Trazado 43305" d="M54.045,18.007a2.284,2.284,0,0,1,1.8.768,3.391,3.391,0,0,1,.678,2.3v3.967H53.99V21.366q0-.917-.848-.917a.848.848,0,0,0-.691.288,1.2,1.2,0,0,0-.237.793v3.515H49.678V18.2h2.536v.671a2.117,2.117,0,0,1,1.831-.868" transform="translate(-40.044 -14.891)" fill="#fff"/>
          <path id="Trazado_43306" data-name="Trazado 43306" d="M95.791,2.792a1.359,1.359,0,0,1-.993-.417A1.357,1.357,0,0,1,94.76.456L94.8.418A1.354,1.354,0,0,1,95.791,0a1.34,1.34,0,0,1,.979.417,1.358,1.358,0,0,1,.038,1.92l-.038.038a1.346,1.346,0,0,1-.979.417m-1.273.521H97.05v6.84H94.518Z" transform="translate(-77.012 0)" fill="#fff"/>
          <path id="Trazado_43307" data-name="Trazado 43307" d="M124.212,18.007a2.372,2.372,0,0,1,1.862.746,3.112,3.112,0,0,1,.676,2.133v4.159h-2.537V21.229q0-.78-.7-.781-.806,0-.807,1.013v3.583h-2.532V21.229q0-.78-.7-.781-.809,0-.808,1.013v3.583h-2.532V18.2h2.532v.64a2.255,2.255,0,0,1,1.862-.837,1.854,1.854,0,0,1,1.712.848,2.484,2.484,0,0,1,1.971-.848" transform="translate(-95.002 -14.891)" fill="#fff"/>
          <path id="Trazado_43308" data-name="Trazado 43308" d="M184.185,22.485a1.389,1.389,0,0,0,1.4.685,1.792,1.792,0,0,0,1.163-.429l1.657,1.4a3.748,3.748,0,0,1-2.9,1.108,3.885,3.885,0,0,1-2.815-1.024,3.407,3.407,0,0,1-1.061-2.567,3.558,3.558,0,0,1,3.643-3.648,3.444,3.444,0,0,1,2.567,1.024,3.511,3.511,0,0,1,1,2.568,3.646,3.646,0,0,1-.109.9Zm-.041-1.629h2.3a1.044,1.044,0,0,0-1.11-.821,1.181,1.181,0,0,0-1.194.824Z" transform="translate(-149.158 -14.891)" fill="#fff"/>
          <g id="Polígono_5" data-name="Polígono 5" transform="matrix(0.719, -0.695, 0.695, 0.719, 0, 15.948)" fill="#fff">
            <path d="M1.11,0l1.11,1.479H0Z" stroke="none"/>
            <path d="M 1.109604120254517 4.76837158203125e-07 L 2.219204187393188 1.479480504989624 L 4.053115844726562e-06 1.479480504989624 L 1.109604120254517 4.76837158203125e-07 Z" stroke="none" fill="#fff"/>
          </g>
          <g id="Polígono_6" data-name="Polígono 6" transform="translate(6.321 14.387) rotate(49)" fill="#fff">
            <path d="M1.11,0l1.11,1.479H0Z" stroke="none"/>
            <path d="M 1.109591484069824 4.529953002929688e-06 L 2.219181537628174 1.47944450378418 L 1.430511474609375e-06 1.47944450378418 L 1.109591484069824 4.529953002929688e-06 Z" stroke="none" fill="#fff"/>
          </g>
          <path id="Trazado_43309" data-name="Trazado 43309" d="M284.085,18.11a2.3,2.3,0,0,0-2.1,1.1v-.932h-1.126V24.75h1.126V21.322a2.209,2.209,0,0,1,.518-1.612,1.829,1.829,0,0,1,1.36-.528,1.579,1.579,0,0,1,1.178.434,1.665,1.665,0,0,1,.427,1.224V24.75H286.6V20.778a2.7,2.7,0,0,0-.686-1.949,2.4,2.4,0,0,0-1.825-.719" transform="translate(-272.111 -3.704)" fill="#fff"/>
          <path id="Trazado_43310" data-name="Trazado 43310" d="M324.681,18.11a3.271,3.271,0,0,0-2.449.968,3.34,3.34,0,0,0-.944,2.434,3.3,3.3,0,0,0,.968,2.441,3.4,3.4,0,0,0,2.505.968,3.163,3.163,0,0,0,2.848-1.463l-.957-.545a2.025,2.025,0,0,1-1.865.947,2.477,2.477,0,0,1-1.547-.484,2.131,2.131,0,0,1-.8-1.342h5.425a3.3,3.3,0,0,0,.039-.5,3.494,3.494,0,0,0-.9-2.421,2.992,2.992,0,0,0-2.324-1m-2.24,2.94a2.15,2.15,0,0,1,2.24-1.877,2.077,2.077,0,0,1,1.359.484,2.182,2.182,0,0,1,.726,1.4Z" transform="translate(-305.922 -3.704)" fill="#fff"/>
          <path id="Trazado_43311" data-name="Trazado 43311" d="M371.16,19.39a2.748,2.748,0,0,0-2.435-1.283,3.158,3.158,0,0,0-2.343.978,3.47,3.47,0,0,0,0,4.789,3.146,3.146,0,0,0,2.343.984,2.759,2.759,0,0,0,2.435-1.3v.92a1.881,1.881,0,0,1-.578,1.452,2.237,2.237,0,0,1-1.585.531,2.115,2.115,0,0,1-2.111-1.089l-.984.557A2.711,2.711,0,0,0,367.1,27.1a4.036,4.036,0,0,0,1.877.408,3.557,3.557,0,0,0,2.331-.8,2.728,2.728,0,0,0,.968-2.233v-6.2H371.16Zm-.661,3.729a2.322,2.322,0,1,1,.661-1.64,2.234,2.234,0,0,1-.661,1.64" transform="translate(-342.832 -3.701)" fill="#fff"/>
          <path id="Trazado_43312" data-name="Trazado 43312" d="M419.249,19.392a2.747,2.747,0,0,0-2.447-1.283,3.106,3.106,0,0,0-2.318.991,3.539,3.539,0,0,0,0,4.841,3.106,3.106,0,0,0,2.318.991,2.744,2.744,0,0,0,2.447-1.282v1.1h1.127V18.279h-1.127Zm-.66,3.774a2.346,2.346,0,0,1-3.276,0,2.39,2.39,0,0,1,0-3.3,2.346,2.346,0,0,1,3.276,0,2.393,2.393,0,0,1,0,3.3" transform="translate(-383.062 -3.703)" fill="#fff"/>
          <rect id="Rectángulo_18629" data-name="Rectángulo 18629" width="1.127" height="6.474" transform="translate(38.699 14.576)" fill="#fff"/>
          <path id="Trazado_43313" data-name="Trazado 43313" d="M463.44,4.2a.748.748,0,0,0,.747-.749.748.748,0,0,0-.22-.538.715.715,0,0,0-.526-.229.726.726,0,0,0-.545.226.747.747,0,0,0-.22.537.726.726,0,0,0,.217.534.741.741,0,0,0,.548.218" transform="translate(-424.167 9.198)" fill="#fff"/>
          <path id="Trazado_43314" data-name="Trazado 43314" d="M237.975,19.582l-2.278.347a3.46,3.46,0,0,0-2.455,0l-2.325-.345.419,2.514a3.432,3.432,0,0,0-.1.833,3.193,3.193,0,0,0,3.161,3.224h.063a3.147,3.147,0,0,0,2.292-.932,3.1,3.1,0,0,0,.944-2.292,3.437,3.437,0,0,0-.1-.832Zm-6.229,1.532-.171-.887.9.127Zm4.261,3.371a2.164,2.164,0,0,1-3.7-1.556,2.115,2.115,0,0,1,.626-1.558,2.207,2.207,0,0,1,3.077,0,2.25,2.25,0,0,1,0,3.114m1.138-3.349-.738-.75.892-.144Z" transform="translate(-230.342 -4.935)" fill="#fff"/>
        </g>
      </g>
      <g id="Grupo_32684" data-name="Grupo 32684" transform="translate(75.52)">
        <rect id="Rectángulo_18532-2" data-name="Rectángulo 18532" width="63.256" height="38.181" rx="5" transform="translate(0 0)" fill="none"/>
        <g id="edye_calado" data-name="edye calado" transform="translate(8.782 5.854)">
          <g id="Grupo_19717" data-name="Grupo 19717" transform="translate(0 0)">
            <path id="Trazado_42096" data-name="Trazado 42096" d="M52.644,55.2a1.089,1.089,0,0,0-1.137,1.171,1.242,1.242,0,0,0,1.238,1.31,1.224,1.224,0,0,0,1.3-1.25A1.288,1.288,0,0,0,52.644,55.2Z" transform="translate(-37.018 -39.672)" fill="#fff"/>
            <path id="Trazado_42097" data-name="Trazado 42097" d="M23.617,49.272c-.224-.96-.751-1.367-1.493-1.2-.853.2-1.19.791-1,1.835Z" transform="translate(-15.143 -34.523)" fill="#fff"/>
            <path id="Trazado_42098" data-name="Trazado 42098" d="M140.179,50.967c-.866-.153-1.4.273-1.635,1.308l2.551.374C141.257,51.677,140.928,51.1,140.179,50.967Z" transform="translate(-99.57 -36.608)" fill="#fff"/>
            <g id="Grupo_19716" data-name="Grupo 19716" transform="translate(0 5.074)">
              <path id="Trazado_42099" data-name="Trazado 42099" d="M136.8,63.887a5.315,5.315,0,0,0,2.472.324,5.52,5.52,0,0,0,.588-.085.241.241,0,0,1,.281.138.241.241,0,0,0-.283-.143,5.6,5.6,0,0,1-.588.084,5.318,5.318,0,0,1-2.472-.323,1.386,1.386,0,0,1-.968-1.129A1.373,1.373,0,0,0,136.8,63.887Z" transform="translate(-97.619 -50.173)" fill="none"/>
              <path id="Trazado_42100" data-name="Trazado 42100" d="M140.179,50.966c-.866-.153-1.4.267-1.635,1.308l2.551.374C141.257,51.676,140.928,51.1,140.179,50.966Z" transform="translate(-99.57 -41.681)" fill="none"/>
              <path id="Trazado_42101" data-name="Trazado 42101" d="M121.89,47.92a5.413,5.413,0,0,1,1.387-2.8c.06-.061.123-.119.186-.177a4.55,4.55,0,0,1,7.087,1.434,4.55,4.55,0,0,0-7.089-1.44c-.064.061-.126.116-.186.177a5.409,5.409,0,0,0-1.387,2.8A5.235,5.235,0,0,0,122,50.333,5.236,5.236,0,0,1,121.89,47.92Z" transform="translate(-87.535 -36.562)" fill="none"/>
              <path id="Trazado_42102" data-name="Trazado 42102" d="M49.418,24.632c-.872.034-.888.05-.91.941-.031,1.348-.036,2.7-.052,4.1a1.622,1.622,0,0,1-.209-.074,4.077,4.077,0,0,0-5.312,1.213,4.626,4.626,0,0,0-.866,2.877,7.248,7.248,0,0,0,.129,1.232c.01.049.021.1.031.146a3.994,3.994,0,0,0,4.14,3.353,13.976,13.976,0,0,0,2.286-.517c-.14.633.354.715.882.723.822.007,1.644-.024,2.465,0,.441.014.539-.167.55-.578q.013-.383.023-.767.094-3.238.2-6.476.061-1.959.124-3.915c0-.132.015-.262.015-.393,0-.052.006-.256.014-.515,0-.159.015-.318.015-.478.006-.191.011-.385.011-.585V24.59c-.945,0-1.892,0-2.839.021Q49.765,24.619,49.418,24.632Z" transform="translate(-30.231 -22.746)" fill="none"/>
              <path id="Trazado_42103" data-name="Trazado 42103" d="M15.055,47.62a5.5,5.5,0,0,1-2.918.956,1.3,1.3,0,0,1-1.461-1.063c-.022-.131.032-.157.116-.143a1.981,1.981,0,0,1,.335.106c1.313.518,3.745-.348,4.174-1.149a.471.471,0,0,0,.062-.294c-.513-3.3-3.731-4.859-6.776-2.862a4.213,4.213,0,0,0-1.6,1.98c-.965,2.45.145,5.865,2.817,6.63a5.626,5.626,0,0,0,4.1-.422,4.785,4.785,0,0,0,1.764-1.324,2.059,2.059,0,0,0,.142-1.244C15.71,48.07,15.408,47.376,15.055,47.62Z" transform="translate(-4.771 -35.463)" fill="none"/>
              <path id="Trazado_42104" data-name="Trazado 42104" d="M90.463,40.422c-.082-.014-.255.172-.3.3-.206.578-.4,1.168-.6,1.763-.09.267-.179.538-.269.809l-.176.532-.3.925c-.069-.291-.1-.435-.138-.578l-.006-.024q-.231-.973-.462-1.944-.168-.695-.334-1.388c-.055-.231-.139-.4-.43-.347-.957.162-1.917.32-2.9.48-.28.045-.648.114-.932.161a1.617,1.617,0,0,0,.141.463c.048.137.094.275.141.414q.284.825.564,1.65.489,1.428.985,2.851.363,1.037.741,2.069a1.4,1.4,0,0,1-.009,1.2c-.458.961-.883,1.937-1.337,2.939a12.054,12.054,0,0,0,3.237,1.369c.685.177.692.178.966-.447q1.747-3.968,3.474-7.944l.578-1.327c.139-.323.271-.649.4-.98.177-.432.346-.873.524-1.335l.1-.246.244-.619C93.007,40.9,91.735,40.646,90.463,40.422Z" transform="translate(-60.092 -34.124)" fill="none"/>
              <path id="Trazado_42105" data-name="Trazado 42105" d="M44.982,27.884a5.854,5.854,0,0,0-1.451-2.66,6.359,6.359,0,0,0-5.946-1.667,6.014,6.014,0,0,0-.771.2c-.1.033-.237-.042-.33-.073-.145-.048-.3-.08-.446-.115-1.374-.333-2.76-.61-4.147-.884-.355-.071-.712-.159-1.072-.2a.639.639,0,0,1-.116-.007,2.043,2.043,0,0,0-1.775.578,2.2,2.2,0,0,0-1.882-.529c-.835.141-1.659.276-2.524.418l.066-2.089c0-.2.007-.386.009-.585V20l.021-1.67s-4.549-.324-5.505-.291a2.72,2.72,0,0,0-2.051.719,2.768,2.768,0,0,0-.665,2.056c-.012.56-.021,1.113-.027,1.672a5.824,5.824,0,0,0-1.761.183,6.814,6.814,0,0,0-3.527,2.456,8.034,8.034,0,0,0-2.16-1.653,6.6,6.6,0,0,0-7.7,2.183A6.442,6.442,0,0,0,.008,29.2a7.4,7.4,0,0,0,2.528,6.021c2.639,2.116,7,1.459,9.383-.753.021-.019.249-.242.248-.244A5.7,5.7,0,0,0,15.6,35.592a5.95,5.95,0,0,0,1.2-.059,3.125,3.125,0,0,0,.473-.1c.071-.022.242-.115.317-.068a3.2,3.2,0,0,0,1.72.43c.79.011,1.578,0,2.368,0,.347,0,1.4-.027,1.579-.432-.069.153-.139.309-.209.462l-.687,1.521a25.28,25.28,0,0,0,2.931,1.619,8.222,8.222,0,0,0,3.226.983,2.111,2.111,0,0,0,.9-.195,2.547,2.547,0,0,0,1.226-1.387c.694-1.537,1.341-3.093,2.031-4.632.041-.1.319-.561.282-.645A5.766,5.766,0,0,0,34.663,35.3a7.433,7.433,0,0,0,4.61,1.586c.219,0,.441-.01.661-.028a6.417,6.417,0,0,0,3.02-.871,3.732,3.732,0,0,0,1.361-2.143,4.517,4.517,0,0,0,.154-1.763,2.711,2.711,0,0,0,.5-1.034A6.7,6.7,0,0,0,44.982,27.884ZM10.889,32.609a4.785,4.785,0,0,1-1.764,1.324,5.626,5.626,0,0,1-4.1.422c-2.672-.765-3.783-4.18-2.817-6.63a4.213,4.213,0,0,1,1.6-1.98c3.045-2,6.263-.439,6.776,2.862a.471.471,0,0,1-.062.294c-.429.8-2.86,1.667-4.174,1.149a1.982,1.982,0,0,0-.335-.106c-.084-.014-.138.012-.116.143a1.3,1.3,0,0,0,1.461,1.063,5.5,5.5,0,0,0,2.918-.956c.353-.244.655.45.747,1.171A2.059,2.059,0,0,1,10.889,32.609Zm11.83-12.392c0,.2-.005.394-.011.585,0,.16-.011.318-.015.478-.007.259-.012.462-.014.515,0,.131-.011.261-.015.393Q22.6,24.143,22.54,26.1q-.1,3.238-.2,6.476-.011.384-.023.767c-.012.412-.11.592-.55.578-.821-.024-1.643.007-2.465,0-.529-.008-1.022-.09-.882-.723a13.974,13.974,0,0,1-2.286.517A3.994,3.994,0,0,1,12,30.363c-.011-.048-.022-.1-.031-.146a7.247,7.247,0,0,1-.129-1.232,4.626,4.626,0,0,1,.866-2.877,4.077,4.077,0,0,1,5.312-1.213,1.622,1.622,0,0,0,.209.074c.016-1.407.021-2.757.052-4.1.022-.891.039-.907.91-.941q.347-.014.694-.022c.947-.023,1.894-.021,2.839-.021ZM34.028,25.7l-.1.246c-.178.462-.347.9-.524,1.335-.133.331-.266.657-.4.98l-.578,1.327Q30.7,33.56,28.952,37.528c-.274.625-.281.623-.966.447a12.055,12.055,0,0,1-3.237-1.369c.453-1,.879-1.979,1.337-2.939a1.4,1.4,0,0,0,.009-1.2q-.378-1.031-.741-2.069-.5-1.423-.985-2.851-.281-.826-.564-1.65c-.048-.139-.094-.277-.141-.414a1.618,1.618,0,0,1-.141-.463c.284-.046.652-.116.932-.161.983-.161,1.943-.318,2.9-.48.291-.05.375.116.43.347q.167.694.334,1.388.232.971.462,1.944l.006.024c.034.143.069.287.138.578l.3-.925L29.2,27.2c.09-.271.179-.542.269-.809.2-.594.4-1.184.6-1.763.044-.124.217-.309.3-.3,1.272.224,2.544.477,3.9.742Zm9.11,4.953c-.091.372-.748.572-1.551.586a4.426,4.426,0,0,1-2.915-.884,2,2,0,0,0-.268-.232c-.071-.045-.127-.053-.163.088a1.232,1.232,0,0,0-.031.409,1.386,1.386,0,0,0,.968,1.129,5.318,5.318,0,0,0,2.472.324,5.606,5.606,0,0,0,.588-.084.241.241,0,0,1,.283.143,2.629,2.629,0,0,1-.648,2.321,4.8,4.8,0,0,1-2.139.541A5.613,5.613,0,0,1,35.792,33.8a3.967,3.967,0,0,1-1.325-2,5.235,5.235,0,0,1-.116-2.418,5.409,5.409,0,0,1,1.387-2.8c.06-.061.123-.116.186-.177a4.55,4.55,0,0,1,7.089,1.44A4.686,4.686,0,0,1,43.138,30.648Z" transform="translate(0 -18.036)" fill="#fff"/>
              <path id="Trazado_42106" data-name="Trazado 42106" d="M140.739,55.73c-.091.372-.748.578-1.551.586a4.426,4.426,0,0,1-2.915-.884A1.96,1.96,0,0,0,136,55.2c-.071-.045-.131-.042-.163.088a1.221,1.221,0,0,0-.028.415,1.232,1.232,0,0,1,.031-.409c.036-.141.092-.133.163-.088a2,2,0,0,1,.268.232,4.426,4.426,0,0,0,2.915.884c.8-.014,1.46-.214,1.551-.586a4.686,4.686,0,0,0-.124-2.792A4.671,4.671,0,0,1,140.739,55.73Z" transform="translate(-97.603 -43.124)" fill="#153188"/>
              <path id="Trazado_42107" data-name="Trazado 42107" d="M129.929,69.625a4.793,4.793,0,0,1-2.139.541,5.613,5.613,0,0,1-3.942-1.186,3.965,3.965,0,0,1-1.322-1.989,3.967,3.967,0,0,0,1.325,2,5.613,5.613,0,0,0,3.942,1.186,4.8,4.8,0,0,0,2.139-.541,2.629,2.629,0,0,0,.648-2.321A2.637,2.637,0,0,1,129.929,69.625Z" transform="translate(-88.057 -53.219)" fill="#153188"/>
            </g>
            <path id="Trazado_42108" data-name="Trazado 42108" d="M37.4,31.78a.747.747,0,1,0-.747-.747A.746.746,0,0,0,37.4,31.78Z" transform="translate(-26.346 -21.767)" fill="#fff"/>
            <path id="Trazado_42109" data-name="Trazado 42109" d="M40.607,23.673a1.294,1.294,0,1,0-1.295-1.295A1.294,1.294,0,0,0,40.607,23.673Z" transform="translate(-28.253 -15.153)" fill="#fff"/>
            <path id="Trazado_42110" data-name="Trazado 42110" d="M32.58,11.6a1.855,1.855,0,1,0-1.855-1.855A1.855,1.855,0,0,0,32.58,11.6Z" transform="translate(-22.082 -5.671)" fill="#fff"/>
            <path id="Trazado_42111" data-name="Trazado 42111" d="M41.021,2.22a1.11,1.11,0,1,0-1.11-1.11A1.11,1.11,0,0,0,41.021,2.22Z" transform="translate(-28.683 0)" fill="#fff"/>
          </g>
        </g>
      </g>
      <ellipse id="Elipse_397" data-name="Elipse 397" cx="3.241" cy="3.241" rx="3.241" ry="3.241" transform="translate(66.889 15.823)" fill="#fff"/>
    </g>
    <g id="Grupo_32732" data-name="Grupo 32732" transform="translate(8607.4 3189.12)">
      <g id="Grupo_32679" data-name="Grupo 32679" transform="translate(231.595)">
        <rect id="Rectángulo_18532-3" data-name="Rectángulo 18532" width="63.256" height="38.181" rx="5" transform="translate(0 0)" fill="none"/>
        <g id="EkzKVN" transform="translate(4.878 13.659)">
          <g id="Grupo_16319" data-name="Grupo 16319" transform="translate(0 0)">
            <path id="Trazado_22262" data-name="Trazado 22262" d="M1154.048,1047.293c0-.645-.009-1.29,0-1.935a2.641,2.641,0,0,1,.095-.751.9.9,0,0,1,1.025-.686.884.884,0,0,1,.862.877c.034.486.021.977.016,1.465,0,.3.088.358.388.263a3.025,3.025,0,0,1,3.654,1.009,3.51,3.51,0,0,1-.06,4.16,3.34,3.34,0,0,1-3.866,1,3.4,3.4,0,0,1-2.112-3.354c-.022-.683,0-1.368,0-2.052Zm2,2.319a1.344,1.344,0,0,0,1.4,1.451,1.459,1.459,0,0,0-.011-2.912A1.343,1.343,0,0,0,1156.044,1049.613Z" transform="translate(-1139.456 -1043.655)" fill="#fff"/>
            <path id="Trazado_22263" data-name="Trazado 22263" d="M1029.678,1047.368c0-.839-.009-1.678,0-2.517a.935.935,0,0,1,.9-1.027.953.953,0,0,1,1.059.869,7.9,7.9,0,0,1,.054,1.283c0,.4.1.5.519.38a3.057,3.057,0,0,1,4.006,2.27,3.344,3.344,0,1,1-6.477,1.664,9.2,9.2,0,0,1-.059-1.751C1029.67,1048.148,1029.677,1047.758,1029.678,1047.368Zm3.306.708a1.373,1.373,0,0,0-1.368,1.445,1.376,1.376,0,1,0,1.368-1.445Z" transform="translate(-1029.666 -1043.572)" fill="#fff"/>
            <path id="Trazado_22264" data-name="Trazado 22264" d="M1098.69,1068.435a10.93,10.93,0,0,1-.009,1.286.97.97,0,0,1-1.545.763.708.708,0,0,0-.7-.046,3.082,3.082,0,0,1-4.249-1.983,3.343,3.343,0,0,1,2.286-4.291,3.3,3.3,0,0,1,4.159,2.639A8.2,8.2,0,0,1,1098.69,1068.435Zm-4.673-1.072a1.352,1.352,0,1,0,1.345-1.434A1.3,1.3,0,0,0,1094.016,1067.362Z" transform="translate(-1084.716 -1061.43)" fill="#fff"/>
            <path id="Trazado_22265" data-name="Trazado 22265" d="M1215.985,1067.292c.452-1,.834-1.888,1.261-2.759a.947.947,0,0,1,1.6-.291,1.014,1.014,0,0,1,.092,1.25c-.547,1.231-1.1,2.458-1.649,3.688q-.68,1.524-1.357,3.049c-.173.388-.385.729-.877.75a.954.954,0,0,1-.977-1.333,11.973,11.973,0,0,1,.666-1.5,1.141,1.141,0,0,0-.015-1.208c-.556-.986-1.073-1.993-1.6-2.993-.1-.189-.207-.377-.29-.575a.955.955,0,0,1,.421-1.346.93.93,0,0,1,1.273.492c.4.735.776,1.488,1.163,2.233C1215.759,1066.889,1215.836,1067.022,1215.985,1067.292Z" transform="translate(-1191.248 -1061.315)" fill="#fff"/>
            <path id="Trazado_22266" data-name="Trazado 22266" d="M1392.575,1070.586a3.182,3.182,0,0,1-1.965-.728.953.953,0,0,1-.233-1.35.907.907,0,0,1,1.3-.164,1.763,1.763,0,0,0,1.269.33c.118-.019.25-.043.281-.172.043-.178-.106-.24-.238-.274-.34-.089-.685-.155-1.025-.243a2.029,2.029,0,0,1-1.7-2.02,2.1,2.1,0,0,1,1.755-1.993,3.2,3.2,0,0,1,2.622.516.944.944,0,0,1,.344,1.281.888.888,0,0,1-1.266.314,1.974,1.974,0,0,0-1.11-.307c-.134.015-.306.008-.331.176s.142.214.273.247c.378.1.764.167,1.138.278a1.918,1.918,0,0,1,1.552,1.878,2.08,2.08,0,0,1-1.537,2.045A3.568,3.568,0,0,1,1392.575,1070.586Z" transform="translate(-1347.907 -1061.278)" fill="#fff"/>
            <path id="Trazado_22267" data-name="Trazado 22267" d="M1273.686,1048.254c0-.39-.016-.781,0-1.17.026-.5,0-.9-.562-1.184a.812.812,0,0,1,.1-1.437,1.141,1.141,0,0,0,.595-.794,2.63,2.63,0,0,1,2.717-1.957.921.921,0,0,1,.2,1.825c-.274.083-.6.043-.8.3a.509.509,0,0,0-.125.311c.012.139.164.136.281.147a2.64,2.64,0,0,1,.406.044.865.865,0,0,1,.728.927.786.786,0,0,1-.825.818c-.6-.011-.713.259-.7.782.032.954.016,1.912.006,2.867-.008.772-.4,1.239-1.026,1.243-.6,0-.986-.489-.993-1.262C1273.682,1049.229,1273.686,1048.741,1273.686,1048.254Z" transform="translate(-1244.229 -1041.706)" fill="#fff"/>
            <path id="Trazado_22268" data-name="Trazado 22268" d="M1441.419,1055.582a2.347,2.347,0,0,1-2.318-2,13.881,13.881,0,0,1-.086-2.278.663.663,0,0,0-.393-.692.867.867,0,0,1,0-1.61.686.686,0,0,0,.393-.7,2.408,2.408,0,0,1,.061-.579.973.973,0,0,1,1.056-.809.934.934,0,0,1,.883.929,2.188,2.188,0,0,1,.007.41c-.039.418.083.638.562.676a.883.883,0,0,1-.057,1.763c-.379.012-.519.164-.506.536.018.565.008,1.132,0,1.7a.57.57,0,0,0,.558.67c.716.1,1.071.481,1.033,1.031A1.114,1.114,0,0,1,1441.419,1055.582Z" transform="translate(-1390.179 -1046.29)" fill="#fff"/>
            <path id="Trazado_22269" data-name="Trazado 22269" d="M1344.831,1067.252c0-.722-.01-1.444,0-2.166.014-.839.582-1.277,1.359-1a1.382,1.382,0,0,0,1.006-.023,2.394,2.394,0,0,1,1.934.1.847.847,0,0,1,.509,1.008.787.787,0,0,1-.908.644c-.312-.012-.625-.027-.937-.015-.73.028-1.022.312-1.04,1.053-.021.858,0,1.717-.01,2.576-.008.753-.347,1.148-.958,1.14s-.949-.414-.957-1.151C1344.824,1068.7,1344.831,1067.974,1344.831,1067.252Z" transform="translate(-1307.864 -1061.305)" fill="#fff"/>
            <path id="Trazado_22270" data-name="Trazado 22270" d="M1319.659,1067.405c0,.76.013,1.52,0,2.28a.96.96,0,1,1-1.915,0q-.02-2.309,0-4.618a.921.921,0,0,1,.92-.994.932.932,0,0,1,.992.991C1319.674,1065.846,1319.658,1066.625,1319.659,1067.405Z" transform="translate(-1283.947 -1061.452)" fill="#fff"/>
            <path id="Trazado_22271" data-name="Trazado 22271" d="M1319.75,1042.785a.951.951,0,0,1-1.9.064.92.92,0,0,1,.912-.994A.946.946,0,0,1,1319.75,1042.785Z" transform="translate(-1284.049 -1041.838)" fill="#fff"/>
          </g>
        </g>
      </g>
      <ellipse id="Elipse_396" data-name="Elipse 396" cx="3.241" cy="3.241" rx="3.241" ry="3.241" transform="translate(221.526 15.823)" fill="#fff"/>
      <g id="Grupo_32675" data-name="Grupo 32675" transform="translate(0)">
        <rect id="Rectángulo_18532-4" data-name="Rectángulo 18532" width="63.369" height="38.25" rx="5" transform="translate(0 0)" fill="none"/>
        <g id="Grupo_22158" data-name="Grupo 22158" transform="translate(10.277 7.422)">
          <path id="Trazado_42240" data-name="Trazado 42240" d="M43.243-378.069c-.388.018-.777.034-1.165.043-.077,0-.1.02-.1.1,0,.782,0,1.565,0,2.347,0,.176.006.353,0,.529a.86.86,0,0,1-.978.91.779.779,0,0,1-.759-.575,1.442,1.442,0,0,1-.063-.434c0-.893,0-1.785,0-2.678,0-.1-.025-.116-.12-.111-.425.02-.849.056-1.275.051v3.152a1.033,1.033,0,0,1,.065.292,1.789,1.789,0,0,0,1.271,1.427,3.136,3.136,0,0,0,1.854.008,1.794,1.794,0,0,0,1.242-1.219,3.274,3.274,0,0,0,.149-1.041c0-.893,0-1.785,0-2.678C43.374-378.059,43.336-378.074,43.243-378.069Z" transform="translate(-38.788 387.283)" fill="#fff"/>
          <path id="Trazado_42241" data-name="Trazado 42241" d="M232.046-374.092c-.09,0-.107-.031-.106-.114,0-1.19,0-2.381,0-3.571,0-.093-.027-.116-.112-.12-.385-.015-.77-.031-1.154-.055-.093-.006-.105.023-.105.105q0,2.43,0,4.861c0,.082.015.11.105.109.7,0,1.4,0,2.1,0l1.477,0v-1.191C233.522-374.079,232.784-374.088,232.046-374.092Z" transform="translate(-191.358 387.189)" fill="#fff"/>
          <path id="Trazado_42242" data-name="Trazado 42242" d="M140.661-423.112c0-.006.009-.011.006-.018h-.639c0,.008,0,.013.006.02Z" transform="translate(-119.325 423.13)" fill="#fff"/>
          <path id="Trazado_42243" data-name="Trazado 42243" d="M143.308-423.112c0-.006.008-.01,0-.018h-.154c0,.006,0,.012,0,.018Z" transform="translate(-121.817 423.13)" fill="#fff"/>
          <path id="Trazado_42244" data-name="Trazado 42244" d="M139.424-423.111a.121.121,0,0,0,0-.02h-.154c0,.007,0,.012,0,.018Z" transform="translate(-118.724 423.13)" fill="#fff"/>
          <path id="Trazado_42245" data-name="Trazado 42245" d="M89.728-415.51a10.5,10.5,0,0,1,.515-1.116,10.37,10.37,0,0,1,3.562-3.926,10.023,10.023,0,0,1,5.958-1.59,10.238,10.238,0,0,1,2.858.522,10.937,10.937,0,0,1,4.763,3.148,10.8,10.8,0,0,1,2.032,3.32c.029.076.062.111.148.1.11-.008.22,0,.331,0,.128,0,.128,0,.088-.119a11.5,11.5,0,0,0-3.065-4.785,11.48,11.48,0,0,0-7.374-3.158.1.1,0,0,1,0-.019h-.132a.042.042,0,0,1,0,.018h-.006c0,.005,0,.012,0,.016a.118.118,0,0,1-.144-.015h-.008c0,.006,0,.013-.005.017a1.936,1.936,0,0,1-.618,0c-.006,0,0-.011,0-.016h-.008a.12.12,0,0,1-.145.014c-.005,0,0-.01,0-.015H98.46a.088.088,0,0,1,0-.018h-.132a.048.048,0,0,1,0,.019,11.648,11.648,0,0,0-10.357,7.725c.557-.013,1.11-.026,1.664-.036C89.7-415.423,89.711-415.466,89.728-415.51Z" transform="translate(-77.914 423.13)" fill="#fff"/>
          <path id="Trazado_42246" data-name="Trazado 42246" d="M70.324-378.835c0-.077-.017-.1-.1-.094-.385.015-.77.025-1.156.033-.08,0-.109.025-.108.114,0,.83,0,1.661,0,2.491a.232.232,0,0,1-.017.131l-.126-.168-1.813-2.425c-.031-.041-.056-.08-.12-.078-.37.014-.741.026-1.111.033-.076,0-.1.023-.1.1q0,2.475,0,4.949c0,.08.026.1.1.095.378,0,.757,0,1.135,0,.091,0,.115-.022.115-.114,0-.859,0-1.719,0-2.579,0-.036-.014-.077.019-.113q1.01,1.368,2.01,2.725a.165.165,0,0,0,.152.08q.507-.007,1.014,0c.081,0,.1-.016.1-.1,0-.83,0-1.661,0-2.491C70.322-377.109,70.321-377.972,70.324-378.835Z" transform="translate(-60.181 387.968)" fill="#fff"/>
          <path id="Trazado_42247" data-name="Trazado 42247" d="M158.873-375.932c-.04-.064-.038-.087.035-.125a1.614,1.614,0,0,0,.838-1,2.122,2.122,0,0,0,.072-.807,1.651,1.651,0,0,0-.933-1.419,2.307,2.307,0,0,0-1.041-.239c-.761,0-1.521,0-2.282,0-.079,0-.106.015-.105.1q0,2.6,0,5.192c0,.079.014.106.1.105q.59-.008,1.179,0c.092,0,.106-.03.105-.112,0-.478,0-.955,0-1.433,0-.09.027-.109.11-.106a4.124,4.124,0,0,0,.451,0,.177.177,0,0,1,.193.116c.252.488.51.973.765,1.459.02.039.032.075.092.075.506,0,1.013,0,1.54,0l-.073-.121Q159.395-375.092,158.873-375.932Zm-.444-1.475a.583.583,0,0,1-.5.423,7.609,7.609,0,0,1-1.043.025c-.062,0-.046-.044-.046-.077,0-.194,0-.389,0-.583s0-.382,0-.572c0-.043,0-.078.06-.076.319.008.639-.017.957.012A.633.633,0,0,1,158.429-377.407Z" transform="translate(-131.601 388.441)" fill="#fff"/>
          <path id="Trazado_42248" data-name="Trazado 42248" d="M131.795-374.129q1.9,0,3.791,0c.072,0,.091-.018.09-.09,0-.349-.006-.7,0-1.047,0-.105-.017-.14-.134-.139-.775.006-1.55,0-2.326,0-.079,0-.118-.009-.114-.1.008-.213.008-.426,0-.639,0-.1.026-.12.122-.12.69,0,1.381,0,2.072,0,.083,0,.1-.021.1-.1,0-.323-.006-.647,0-.97,0-.093-.025-.114-.115-.114-.694,0-1.389,0-2.083,0-.076,0-.1-.019-.1-.1.005-.2.007-.4,0-.606,0-.092.022-.114.113-.113.775,0,1.55,0,2.326,0,.066,0,.095-.009.094-.087q-.007-.545,0-1.091c0-.084-.031-.093-.1-.093q-1.863,0-3.725,0c-.086,0-.109.022-.109.109,0,.863,0,1.727,0,2.59s0,1.734,0,2.6C131.7-374.154,131.714-374.129,131.795-374.129Z" transform="translate(-112.703 388.443)" fill="#fff"/>
          <path id="Trazado_42249" data-name="Trazado 42249" d="M182.411-377.143a4.7,4.7,0,0,0-.97-.345,2.36,2.36,0,0,1-.7-.262.309.309,0,0,1-.175-.327.321.321,0,0,1,.274-.252,1.128,1.128,0,0,1,.438-.009,2.4,2.4,0,0,1,1.078.466c.064.047.087.039.128-.025.184-.287.371-.573.564-.854.051-.075.043-.109-.025-.164a2.923,2.923,0,0,0-1.91-.672,2.536,2.536,0,0,0-.644.07,1.6,1.6,0,0,0-1.251,1.952,1.474,1.474,0,0,0,.786.97,4.336,4.336,0,0,0,1.075.407,2.262,2.262,0,0,1,.616.227.309.309,0,0,1,.162.3.316.316,0,0,1-.217.279.863.863,0,0,1-.313.053,2.326,2.326,0,0,1-1.505-.557c-.109-.087-.109-.088-.2.026l-.558.724c-.119.155-.12.157.032.283a3.245,3.245,0,0,0,2.71.7,1.58,1.58,0,0,0,1.406-1.384A1.407,1.407,0,0,0,182.411-377.143Z" transform="translate(-150.318 388.491)" fill="#fff"/>
          <path id="Trazado_42250" data-name="Trazado 42250" d="M205.506-375.675l-1.174-2.934c-.02-.049-.03-.1-.108-.1q-.578-.007-1.156-.029c-.079,0-.105.029-.131.095q-.831,2.081-1.666,4.161l-.387.965c.014.007.02.013.026.013.448,0,.9,0,1.345,0,.061,0,.071-.037.086-.078.1-.259.2-.518.3-.779a.1.1,0,0,1,.11-.075q.86,0,1.72,0a.1.1,0,0,1,.109.077c.1.257.2.512.293.77a.113.113,0,0,0,.127.087c.43,0,.86,0,1.29,0,.025,0,.049,0,.072,0,.011-.033-.007-.054-.017-.078Zm-2.438.115.554-1.454.538,1.454Z" transform="translate(-167.739 387.814)" fill="#fff"/>
          <path id="Trazado_42251" data-name="Trazado 42251" d="M106.836-379.411q-.277.909-.559,1.816c-.149.484-.3.969-.451,1.457-.038-.019-.038-.053-.047-.078q-.27-.772-.537-1.546l-.573-1.648c-.015-.042-.024-.077-.085-.076-.481,0-.961,0-1.466,0,.021.063.029.091.04.118q.966,2.58,1.93,5.161a.111.111,0,0,0,.127.083q.562-.006,1.124,0a.122.122,0,0,0,.139-.1q.817-2.29,1.639-4.578l.257-.72h-.123c-.43,0-.859.01-1.289.009C106.882-379.51,106.857-379.48,106.836-379.411Z" transform="translate(-89.963 388.435)" fill="#fff"/>
          <path id="Trazado_42252" data-name="Trazado 42252" d="M94.657-379.166c-.414.013-.829.02-1.243.026-.065,0-.077.021-.077.081q0,2.567,0,5.134c0,.071.022.083.087.083.4,0,.8,0,1.2,0,.083,0,.109-.017.109-.106,0-.849,0-1.7,0-2.545s0-1.719,0-2.578C94.731-379.123,94.741-379.169,94.657-379.166Z" transform="translate(-82.182 388.156)" fill="#fff"/>
          <path id="Trazado_42253" data-name="Trazado 42253" d="M183.259-345.721h-1.473v-1.473h-1.192v1.473H179.12v1.193h1.473v1.473h1.192v-1.473h1.473Z" transform="translate(-150.426 362.721)" fill="#fff"/>
          <path id="Trazado_42254" data-name="Trazado 42254" d="M100.667-339.583a11.928,11.928,0,0,1-2.854-.083,10.483,10.483,0,0,1-3.237-1.011,10.167,10.167,0,0,1-4.393-4.295,11.2,11.2,0,0,1-.685-1.509c-.014-.037-.015-.086-.08-.086-.337,0-.674,0-1.008,0-.016.04.005.065.014.092a10.863,10.863,0,0,0,2.518,4.149,11.263,11.263,0,0,0,7.17,3.422,12,12,0,0,0,4.13-.305,11.034,11.034,0,0,0,5.1-2.8l-.7-.035A10.1,10.1,0,0,1,100.667-339.583Z" transform="translate(-78.259 362.221)" fill="#fff"/>
        </g>
      </g>
      <g id="Grupo_32676" data-name="Grupo 32676" transform="translate(76.959)">
        <rect id="Rectángulo_18532-5" data-name="Rectángulo 18532" width="64.255" height="38.785" rx="5" transform="translate(0 0)" fill="none"/>
        <g id="Grupo_22160" data-name="Grupo 22160" transform="translate(7.805 13.425)">
          <path id="Trazado_42620" data-name="Trazado 42620" d="M0,10.481A4.269,4.269,0,0,1,4.385,6.132a4.027,4.027,0,0,1,4.1,2.808l-1.936.478A2.185,2.185,0,0,0,4.4,8a2.338,2.338,0,0,0-2.366,2.473,2.378,2.378,0,0,0,2.366,2.5,2.154,2.154,0,0,0,2.151-1.4l1.936.49A3.987,3.987,0,0,1,4.421,14.83,4.278,4.278,0,0,1,0,10.481" transform="translate(0 -5.526)" fill="#fff"/>
          <rect id="Rectángulo_18371" data-name="Rectángulo 18371" width="1.912" height="6.094" transform="translate(11.315 3.043)" fill="#fff"/>
          <path id="Trazado_42621" data-name="Trazado 42621" d="M174.053,7.827v8.363H172.44L168.676,11.4v4.791h-1.983V7.827h1.613l3.764,4.791V7.827Z" transform="translate(-150.228 -7.054)" fill="#fff"/>
          <path id="Trazado_42622" data-name="Trazado 42622" d="M281.684,12.009a3.883,3.883,0,0,1-3.955,4.182H273.87V7.827h3.859a3.87,3.87,0,0,1,3.955,4.182m-2.007-.036a2.1,2.1,0,0,0-2-2.366H275.83v4.8h1.852a2.162,2.162,0,0,0,2-2.437" transform="translate(-246.819 -7.054)" fill="#fff"/>
          <path id="Trazado_42623" data-name="Trazado 42623" d="M432.688,9.619v1.458h3.752v1.732h-3.752V14.4h4.349V16.19h-6.285V7.827h6.3V9.619Z" transform="translate(-388.206 -7.054)" fill="#fff"/>
          <path id="Trazado_42624" data-name="Trazado 42624" d="M113.449,1.278A1.278,1.278,0,1,1,112.17,0a1.278,1.278,0,0,1,1.278,1.278" transform="translate(-99.939 0)" fill="#fff"/>
          <rect id="Rectángulo_18372" data-name="Rectángulo 18372" width="1.912" height="6.093" transform="translate(37.684 0.552)" fill="#fff"/>
          <path id="Trazado_42625" data-name="Trazado 42625" d="M379.3,72.1a1.278,1.278,0,1,0,1.278,1.278A1.278,1.278,0,0,0,379.3,72.1" transform="translate(-340.685 -64.975)" fill="#fff"/>
          <path id="Trazado_42626" data-name="Trazado 42626" d="M9.144,115.588V116.7h-.29v-.141a.434.434,0,0,1-.356.172c-.293,0-.44-.2-.44-.495v-.649h.29v.594c0,.169.077.279.238.279s.268-.128.268-.326v-.548Z" transform="translate(-7.261 -104.171)" fill="#fff"/>
          <path id="Trazado_42627" data-name="Trazado 42627" d="M23.041,115.769v.651h-.29v-.6c0-.169-.077-.277-.238-.277s-.268.127-.268.323v.55h-.29v-1.113h.29v.141a.442.442,0,0,1,.359-.172c.29,0,.438.2.438.493" transform="translate(-19.785 -103.89)" fill="#fff"/>
          <path id="Trazado_42628" data-name="Trazado 42628" d="M42.989,115.758v.662H42.7v-.6c0-.167-.062-.273-.213-.273s-.235.117-.235.306v.567h-.293v-.6c0-.165-.059-.273-.209-.273s-.24.119-.24.315v.559h-.29v-1.113h.29v.132a.4.4,0,0,1,.33-.163.372.372,0,0,1,.334.167.463.463,0,0,1,.376-.167.425.425,0,0,1,.44.482" transform="translate(-37.147 -103.89)" fill="#fff"/>
          <path id="Trazado_42629" data-name="Trazado 42629" d="M62.794,115.588V116.7H62.5v-.141a.434.434,0,0,1-.356.172c-.293,0-.44-.2-.44-.495v-.649H62v.594c0,.169.077.279.238.279s.268-.128.268-.326v-.548Z" transform="translate(-55.612 -104.171)" fill="#fff"/>
          <path id="Trazado_42630" data-name="Trazado 42630" d="M76.691,115.769v.651H76.4v-.6c0-.169-.077-.277-.238-.277s-.268.127-.268.323v.55H75.6v-1.113h.29v.141a.442.442,0,0,1,.359-.172c.29,0,.438.2.438.493" transform="translate(-68.136 -103.89)" fill="#fff"/>
          <path id="Trazado_42631" data-name="Trazado 42631" d="M89.9,110.6V112.2h-.293v-.136a.442.442,0,0,1-.359.167.589.589,0,0,1,0-1.175.441.441,0,0,1,.359.165V110.6Zm-.284,1.047a.313.313,0,0,0-.317-.326.328.328,0,0,0,0,.655.316.316,0,0,0,.317-.33" transform="translate(-79.937 -99.675)" fill="#fff"/>
          <path id="Trazado_42632" data-name="Trazado 42632" d="M103.063,115.863a.6.6,0,1,1,.6.587.577.577,0,0,1-.6-.587m.908,0a.313.313,0,1,0-.312.323.307.307,0,0,0,.312-.323" transform="translate(-92.883 -103.89)" fill="#fff"/>
          <path id="Trazado_42633" data-name="Trazado 42633" d="M123.327,110.6V112.2h-.293v-.136a.442.442,0,0,1-.359.167.589.589,0,0,1,0-1.175.441.441,0,0,1,.359.165V110.6Zm-.284,1.047a.313.313,0,0,0-.317-.326.328.328,0,0,0,0,.655.316.316,0,0,0,.317-.33" transform="translate(-110.063 -99.675)" fill="#fff"/>
          <path id="Trazado_42634" data-name="Trazado 42634" d="M136.491,115.863a.564.564,0,0,1,.583-.587.586.586,0,0,1,.568.675h-.864a.29.29,0,0,0,.323.253.284.284,0,0,0,.271-.147l.262.077a.608.608,0,0,1-1.142-.271m.873-.095a.273.273,0,0,0-.293-.246.286.286,0,0,0-.295.246Z" transform="translate(-123.009 -103.89)" fill="#fff"/>
          <path id="Trazado_42635" data-name="Trazado 42635" d="M155.22,115.863a.564.564,0,0,1,.583-.587.586.586,0,0,1,.568.675h-.864a.29.29,0,0,0,.323.253.284.284,0,0,0,.271-.147l.262.077a.608.608,0,0,1-1.142-.271m.873-.095a.273.273,0,0,0-.293-.246.286.286,0,0,0-.295.246Z" transform="translate(-139.888 -103.89)" fill="#fff"/>
          <path id="Trazado_42636" data-name="Trazado 42636" d="M170.248,115.769v.651h-.29v-.6c0-.169-.077-.277-.238-.277s-.268.127-.268.323v.55h-.29v-1.113h.29v.141a.442.442,0,0,1,.359-.172c.29,0,.438.2.438.493" transform="translate(-152.452 -103.89)" fill="#fff"/>
          <path id="Trazado_42637" data-name="Trazado 42637" d="M182.628,113.374a.668.668,0,0,1-.26.053.348.348,0,0,1-.372-.4v-.477h-.187V112.3H182v-.361h.293v.361h.326v.255h-.326v.477a.123.123,0,0,0,.136.141.271.271,0,0,0,.132-.031Z" transform="translate(-163.852 -100.879)" fill="#fff"/>
          <path id="Trazado_42638" data-name="Trazado 42638" d="M192.779,115.391v.273c-.238-.037-.367.073-.367.372v.484h-.29v-1.113h.29v.165a.335.335,0,0,1,.367-.18" transform="translate(-173.145 -103.989)" fill="#fff"/>
          <path id="Trazado_42639" data-name="Trazado 42639" d="M199.382,115.863a.564.564,0,0,1,.583-.587.586.586,0,0,1,.568.675h-.864a.29.29,0,0,0,.323.253.284.284,0,0,0,.271-.147l.262.077a.608.608,0,0,1-1.142-.271m.873-.095a.273.273,0,0,0-.293-.246.286.286,0,0,0-.295.246Z" transform="translate(-179.688 -103.89)" fill="#fff"/>
          <path id="Trazado_42640" data-name="Trazado 42640" d="M212.672,113.374a.668.668,0,0,1-.26.053.348.348,0,0,1-.372-.4v-.477h-.187V112.3h.187v-.361h.292v.361h.326v.255h-.326v.477a.123.123,0,0,0,.136.141.271.271,0,0,0,.132-.031Z" transform="translate(-190.929 -100.879)" fill="#fff"/>
          <path id="Trazado_42641" data-name="Trazado 42641" d="M220.94,115.863a.564.564,0,0,1,.583-.587.586.586,0,0,1,.568.675h-.864a.29.29,0,0,0,.323.253.284.284,0,0,0,.271-.147l.262.077a.608.608,0,0,1-1.142-.271m.873-.095a.273.273,0,0,0-.293-.246.286.286,0,0,0-.295.246Z" transform="translate(-199.117 -103.89)" fill="#fff"/>
          <path id="Trazado_42642" data-name="Trazado 42642" d="M235.968,115.769v.651h-.29v-.6c0-.169-.077-.277-.238-.277s-.268.127-.268.323v.55h-.29v-1.113h.29v.141a.442.442,0,0,1,.359-.172c.29,0,.438.2.438.493" transform="translate(-211.681 -103.89)" fill="#fff"/>
          <path id="Trazado_42643" data-name="Trazado 42643" d="M248.4,110.744a.174.174,0,1,1,.174.172.17.17,0,0,1-.174-.172m.024.328h.293v1.113h-.293Z" transform="translate(-223.864 -99.655)" fill="#fff"/>
          <path id="Trazado_42644" data-name="Trazado 42644" d="M256.317,115.758v.662h-.29v-.6c0-.167-.062-.273-.213-.273s-.235.117-.235.306v.567h-.293v-.6c0-.165-.059-.273-.209-.273s-.24.119-.24.315v.559h-.29v-1.113h.29v.132a.4.4,0,0,1,.33-.163.372.372,0,0,1,.334.167.463.463,0,0,1,.376-.167.425.425,0,0,1,.44.482" transform="translate(-229.404 -103.89)" fill="#fff"/>
          <path id="Trazado_42645" data-name="Trazado 42645" d="M274.99,110.744a.174.174,0,1,1,.174.172.17.17,0,0,1-.174-.172m.024.328h.293v1.113h-.293Z" transform="translate(-247.828 -99.655)" fill="#fff"/>
          <path id="Trazado_42646" data-name="Trazado 42646" d="M280.446,115.863a.564.564,0,0,1,.583-.587.543.543,0,0,1,.574.572.535.535,0,0,1-.007.1h-.864a.29.29,0,0,0,.323.253.284.284,0,0,0,.271-.147l.262.077a.608.608,0,0,1-1.142-.271m.873-.095a.273.273,0,0,0-.292-.246.286.286,0,0,0-.295.246Z" transform="translate(-252.746 -103.89)" fill="#fff"/>
          <path id="Trazado_42647" data-name="Trazado 42647" d="M295.475,115.769v.651h-.29v-.6c0-.169-.077-.277-.238-.277s-.268.127-.268.323v.55h-.29v-1.113h.29v.141a.442.442,0,0,1,.359-.172c.29,0,.438.2.438.493" transform="translate(-265.31 -103.89)" fill="#fff"/>
          <path id="Trazado_42648" data-name="Trazado 42648" d="M307.856,113.374a.669.669,0,0,1-.26.053.348.348,0,0,1-.372-.4v-.477h-.187V112.3h.187v-.361h.293v.361h.326v.255h-.326v.477a.123.123,0,0,0,.136.141.271.271,0,0,0,.132-.031Z" transform="translate(-276.711 -100.879)" fill="#fff"/>
          <path id="Trazado_42649" data-name="Trazado 42649" d="M316.123,115.863a.6.6,0,1,1,.6.587.577.577,0,0,1-.6-.587m.909,0a.313.313,0,1,0-.312.323.307.307,0,0,0,.312-.323" transform="translate(-284.899 -103.89)" fill="#fff"/>
          <path id="Trazado_42650" data-name="Trazado 42650" d="M335.61,110.744a.174.174,0,1,1,.174.172.17.17,0,0,1-.174-.172m.024.328h.293v1.113h-.293Z" transform="translate(-302.461 -99.655)" fill="#fff"/>
          <path id="Trazado_42651" data-name="Trazado 42651" d="M342.844,115.769v.651h-.29v-.6c0-.169-.077-.277-.237-.277s-.268.127-.268.323v.55h-.29v-1.113h.29v.141a.442.442,0,0,1,.359-.172c.29,0,.438.2.438.493" transform="translate(-308.001 -103.89)" fill="#fff"/>
          <path id="Trazado_42652" data-name="Trazado 42652" d="M356.053,110.6V112.2h-.293v-.136a.442.442,0,0,1-.359.167.589.589,0,0,1,0-1.175.441.441,0,0,1,.359.165V110.6Zm-.284,1.047a.313.313,0,0,0-.317-.326.328.328,0,0,0,0,.655.316.316,0,0,0,.317-.33" transform="translate(-319.802 -99.675)" fill="#fff"/>
          <path id="Trazado_42653" data-name="Trazado 42653" d="M369.216,115.863a.564.564,0,0,1,.583-.587.586.586,0,0,1,.568.675H369.5a.29.29,0,0,0,.323.253.284.284,0,0,0,.27-.147l.262.077a.608.608,0,0,1-1.142-.271m.873-.095a.273.273,0,0,0-.293-.246.286.286,0,0,0-.295.246Z" transform="translate(-332.747 -103.89)" fill="#fff"/>
          <path id="Trazado_42654" data-name="Trazado 42654" d="M384.356,115.863a.558.558,0,0,1-.548.587.447.447,0,0,1-.361-.167v.6h-.29v-1.575h.29v.134a.445.445,0,0,1,.361-.165.556.556,0,0,1,.548.587m-.286,0a.306.306,0,0,0-.312-.326.328.328,0,0,0,0,.655.309.309,0,0,0,.312-.33" transform="translate(-345.311 -103.89)" fill="#fff"/>
          <path id="Trazado_42655" data-name="Trazado 42655" d="M396.831,115.863a.564.564,0,0,1,.583-.587.543.543,0,0,1,.574.572.549.549,0,0,1-.007.1h-.865a.29.29,0,0,0,.323.253.284.284,0,0,0,.27-.147l.262.077a.608.608,0,0,1-1.142-.271m.873-.095a.273.273,0,0,0-.292-.246.286.286,0,0,0-.295.246Z" transform="translate(-357.635 -103.89)" fill="#fff"/>
          <path id="Trazado_42656" data-name="Trazado 42656" d="M411.86,115.769v.651h-.29v-.6c0-.169-.077-.277-.238-.277s-.268.127-.268.323v.55h-.29v-1.113h.29v.141a.442.442,0,0,1,.359-.172c.291,0,.438.2.438.493" transform="translate(-370.2 -103.89)" fill="#fff"/>
          <path id="Trazado_42657" data-name="Trazado 42657" d="M425.068,110.6V112.2h-.293v-.136a.442.442,0,0,1-.358.167.589.589,0,0,1,0-1.175.441.441,0,0,1,.358.165V110.6Zm-.284,1.047a.313.313,0,0,0-.317-.326.328.328,0,0,0,0,.655.316.316,0,0,0,.317-.33" transform="translate(-382.001 -99.675)" fill="#fff"/>
          <path id="Trazado_42658" data-name="Trazado 42658" d="M438.655,110.744a.174.174,0,1,1,.174.172.17.17,0,0,1-.174-.172m.024.328h.292v1.113h-.292Z" transform="translate(-395.328 -99.655)" fill="#fff"/>
          <path id="Trazado_42659" data-name="Trazado 42659" d="M444.112,115.863a.564.564,0,0,1,.583-.587.587.587,0,0,1,.568.675H444.4a.29.29,0,0,0,.323.253.284.284,0,0,0,.271-.147l.262.077a.608.608,0,0,1-1.142-.271m.873-.095a.273.273,0,0,0-.293-.246.286.286,0,0,0-.295.246Z" transform="translate(-400.246 -103.89)" fill="#fff"/>
          <path id="Trazado_42660" data-name="Trazado 42660" d="M459.14,115.769v.651h-.29v-.6c0-.169-.077-.277-.238-.277s-.268.127-.268.323v.55h-.29v-1.113h.29v.141a.442.442,0,0,1,.359-.172c.29,0,.438.2.438.493" transform="translate(-412.81 -103.89)" fill="#fff"/>
          <path id="Trazado_42661" data-name="Trazado 42661" d="M471.521,113.374a.668.668,0,0,1-.26.053.348.348,0,0,1-.372-.4v-.477H470.7V112.3h.187v-.361h.292v.361h.326v.255h-.326v.477a.123.123,0,0,0,.136.141.272.272,0,0,0,.132-.031Z" transform="translate(-424.21 -100.879)" fill="#fff"/>
          <path id="Trazado_42662" data-name="Trazado 42662" d="M479.789,115.863a.564.564,0,0,1,.583-.587.586.586,0,0,1,.568.675h-.864a.29.29,0,0,0,.323.253.284.284,0,0,0,.271-.147l.262.077a.608.608,0,0,1-1.142-.271m.873-.095a.273.273,0,0,0-.293-.246.286.286,0,0,0-.295.246Z" transform="translate(-432.399 -103.89)" fill="#fff"/>
        </g>
      </g>
      <g id="Grupo_32678" data-name="Grupo 32678" transform="translate(153.917)">
        <rect id="Rectángulo_18534" data-name="Rectángulo 18534" width="64.255" height="38.421" rx="5" transform="translate(0 0)" fill="none"/>
        <g id="Grupo_32677" data-name="Grupo 32677" transform="translate(7.805 14.635)">
          <path id="Trazado_78" data-name="Trazado 78" d="M548.42,961.566h-1.545v-1.377a.267.267,0,0,0-.267-.267H545.14a.267.267,0,0,0-.267.267v1.377h-.83a1,1,0,0,0-1,1v.78a.281.281,0,0,0,.281.281h1.548v1.42a.267.267,0,0,0,.267.267h1.468a.267.267,0,0,0,.267-.267v-1.42h.854a.935.935,0,0,0,.935-.935v-.88A.244.244,0,0,0,548.42,961.566Z" transform="translate(-499.014 -959.922)" fill="#fff"/>
          <path id="Trazado_79" data-name="Trazado 79" d="M241.053,969.691a3.651,3.651,0,1,0,3.451,5.073.091.091,0,0,0-.084-.127H242.5a.2.2,0,0,0-.14.059,2.015,2.015,0,0,1-1.263.4,1.4,1.4,0,0,1-1.411-1.106h4.89a.184.184,0,0,0,.183-.158,3.648,3.648,0,0,0-3.706-4.139Zm-1.386,2.905a1.552,1.552,0,0,1,1.392-.949c.039,0,.2-.008.238,0,1.172.112,1.268.953,1.268.953Z" transform="translate(-237.49 -968.282)" fill="#fff"/>
          <path id="Trazado_80" data-name="Trazado 80" d="M382.89,970.268a3.606,3.606,0,1,0,3.606,3.606A3.606,3.606,0,0,0,382.89,970.268Zm0,5.283a1.68,1.68,0,1,1,1.578-1.677A1.63,1.63,0,0,1,382.89,975.551Z" transform="translate(-358.851 -968.777)" fill="#fff"/>
          <path id="Trazado_81" data-name="Trazado 81" d="M497.845,973.627a3.606,3.606,0,1,0-4.83,4.039q.159.061.325.107a2.2,2.2,0,0,0,2.629-1.222,1.032,1.032,0,0,0,.3.768,1.049,1.049,0,0,0,.606.269h.987v-3.732a.774.774,0,0,0,0-.107C497.856,973.727,497.849,973.647,497.845,973.627Zm-3.552,2.287a1.68,1.68,0,1,1,1.578-1.677A1.63,1.63,0,0,1,494.293,975.914Z" transform="translate(-454.209 -969.14)" fill="#fff"/>
          <path id="Trazado_82" data-name="Trazado 82" d="M350.352,971.116a.118.118,0,0,0-.015-.188,3.4,3.4,0,0,0-2.264-.4,2.982,2.982,0,0,0-2.7,2.569c0,.006-.017.179-.017.186l.009,4.02a.118.118,0,0,0,.118.118h1.748a.118.118,0,0,0,.118-.118v-3.644s0-.006,0-.009a1.339,1.339,0,0,1,1.631-1.236l.017,0c.042.011.236.063.368.112a.117.117,0,0,0,.154-.077A2.932,2.932,0,0,1,350.352,971.116Z" transform="translate(-329.812 -968.965)" fill="#fff"/>
          <path id="Trazado_83" data-name="Trazado 83" d="M299.63,971h-.808a.905.905,0,0,0-.276.072,1.208,1.208,0,0,0-.676.976c0,.007,0,.015,0,.022v2.615s0,.007,0,.01a1.318,1.318,0,0,1-1.2,1.439,1.254,1.254,0,0,1-1.4-1.279c0-.005,0-.01,0-.016l.013-3.509a.226.226,0,0,0-.229-.227l-1.607.022a.226.226,0,0,0-.223.226v3.639s.072,2.781,2.631,3a5.554,5.554,0,0,0,1.637-.055l.013,0c.122-.021,2.326-.439,2.34-3.331l.013-3.377A.226.226,0,0,0,299.63,971Z" transform="translate(-285.19 -969.406)" fill="#fff"/>
          <path id="Trazado_84" data-name="Trazado 84" d="M438.806,970.692a3.606,3.606,0,0,0-3.529,2.914c-.008.052-.017.114-.022.18,0,.026,0,.05,0,.061v5.985h.987a1.048,1.048,0,0,0,.606-.269,1.073,1.073,0,0,0,.306-.681c.005-.064,0-1.737,0-2.232a1.6,1.6,0,0,0,1.477,1.136l-.006-.006a3.115,3.115,0,0,0,1.151-.008q.166-.046.325-.107a3.606,3.606,0,0,0-1.3-6.974Zm.018,5.222a1.68,1.68,0,1,1,1.578-1.677A1.63,1.63,0,0,1,438.824,975.914Z" transform="translate(-406.756 -969.14)" fill="#fff"/>
        </g>
      </g>
      <ellipse id="Elipse_394" data-name="Elipse 394" cx="3.241" cy="3.241" rx="3.241" ry="3.241" transform="translate(66.889 15.823)" fill="#fff"/>
      <ellipse id="Elipse_395" data-name="Elipse 395" cx="3.241" cy="3.241" rx="3.241" ry="3.241" transform="translate(144.567 15.823)" fill="#fff"/>
    </g>
    <g id="Grupo_32731" data-name="Grupo 32731" transform="translate(8570 3160)">
      <g id="Grupo_32670" data-name="Grupo 32670" transform="translate(76.239)">
        <rect id="Rectángulo_18532-6" data-name="Rectángulo 18532" width="62.774" height="37.891" rx="5" transform="translate(0 0)" fill="none"/>
        <g id="Grupo_20453" data-name="Grupo 20453" transform="translate(15.269 8.483)" clip-path="url(#clip-path)">
          <path id="Trazado_43170" data-name="Trazado 43170" d="M1.016,21.685a.346.346,0,0,1-.238-.069A.323.323,0,0,1,.7,21.371V13.008a.323.323,0,0,1,.075-.244.346.346,0,0,1,.238-.069h.9a.324.324,0,0,1,.351.276l.088.326a2.773,2.773,0,0,1,.909-.577,2.9,2.9,0,0,1,1.085-.213,2.328,2.328,0,0,1,1.924.89A3.76,3.76,0,0,1,6.983,15.8a4.387,4.387,0,0,1-.351,1.818,2.842,2.842,0,0,1-.953,1.2,2.35,2.35,0,0,1-1.379.42,2.932,2.932,0,0,1-.978-.163,2.351,2.351,0,0,1-.79-.451v2.746a.343.343,0,0,1-.069.244.343.343,0,0,1-.245.069Zm2.746-3.824A1.174,1.174,0,0,0,4.8,17.384a2.675,2.675,0,0,0,.332-1.5A2.746,2.746,0,0,0,4.8,14.363a1.171,1.171,0,0,0-1.041-.476,2.385,2.385,0,0,0-1.229.339v3.3a2.3,2.3,0,0,0,1.229.339" transform="translate(-0.547 -9.749)" fill="#fff"/>
          <path id="Trazado_43171" data-name="Trazado 43171" d="M35.064,19.545a.271.271,0,0,1-.314-.313v-5.78a.323.323,0,0,1,.075-.244.346.346,0,0,1,.238-.069h.9a.324.324,0,0,1,.351.276l.163.677a3.577,3.577,0,0,1,.947-.784,2.02,2.02,0,0,1,.947-.232h.176a.367.367,0,0,1,.251.069.322.322,0,0,1,.075.244v1.053a.345.345,0,0,1-.069.238.322.322,0,0,1-.245.075q-.088,0-.226-.013c-.092-.008-.209-.013-.351-.013a3.74,3.74,0,0,0-.7.082,3.45,3.45,0,0,0-.7.207v4.213a.346.346,0,0,1-.069.238.323.323,0,0,1-.245.075Z" transform="translate(-27.086 -10.192)" fill="#fff"/>
          <path id="Trazado_43172" data-name="Trazado 43172" d="M57.9,1.956a1.089,1.089,0,0,1-.765-.263.919.919,0,0,1-.288-.715.919.919,0,0,1,.288-.715,1.243,1.243,0,0,1,1.529,0,.92.92,0,0,1,.288.715.92.92,0,0,1-.288.715,1.09,1.09,0,0,1-.765.263m-.6,7.4a.271.271,0,0,1-.313-.313V3.26a.322.322,0,0,1,.075-.244.346.346,0,0,1,.238-.069h1.2a.342.342,0,0,1,.244.069.342.342,0,0,1,.069.244V9.04a.345.345,0,0,1-.069.238.322.322,0,0,1-.244.075Z" transform="translate(-44.307 0)" fill="#fff"/>
          <path id="Trazado_43173" data-name="Trazado 43173" d="M73.121,19.1a.271.271,0,0,1-.314-.313v-5.78a.323.323,0,0,1,.075-.244.346.346,0,0,1,.238-.069h.9a.324.324,0,0,1,.351.276l.1.339a5.407,5.407,0,0,1,1.2-.62,3.373,3.373,0,0,1,1.1-.182,1.687,1.687,0,0,1,1.592.8,5.134,5.134,0,0,1,1.2-.614,3.659,3.659,0,0,1,1.166-.188,1.825,1.825,0,0,1,1.36.489,1.861,1.861,0,0,1,.483,1.366v4.426a.346.346,0,0,1-.069.238.323.323,0,0,1-.245.075h-1.2a.271.271,0,0,1-.314-.313V14.764q0-.852-.765-.852a3.179,3.179,0,0,0-1.367.326v4.551a.345.345,0,0,1-.069.238.322.322,0,0,1-.245.075h-1.2a.271.271,0,0,1-.313-.313V14.764q0-.852-.765-.852a3.057,3.057,0,0,0-1.379.338v4.539a.346.346,0,0,1-.069.238.323.323,0,0,1-.245.075Z" transform="translate(-56.751 -9.749)" fill="#fff"/>
          <path id="Trazado_43174" data-name="Trazado 43174" d="M125.434,19.29a3.189,3.189,0,0,1-2.388-.853,3.351,3.351,0,0,1-.834-2.445,3.637,3.637,0,0,1,.852-2.558,3.058,3.058,0,0,1,2.37-.928,2.716,2.716,0,0,1,1.824.564,1.882,1.882,0,0,1,.658,1.5A1.612,1.612,0,0,1,127.208,16a3.715,3.715,0,0,1-2.088.483,4.938,4.938,0,0,1-1.241-.138,1.7,1.7,0,0,0,.508,1.2,2,2,0,0,0,1.31.364,5.205,5.205,0,0,0,.683-.044,8.495,8.495,0,0,0,.921-.194.471.471,0,0,1,.075-.019.394.394,0,0,1,.063-.006q.213,0,.213.288v.577a.52.52,0,0,1-.056.282.461.461,0,0,1-.22.144,5.381,5.381,0,0,1-1.943.351m-.414-3.937a1.7,1.7,0,0,0,.928-.195.669.669,0,0,0,.288-.6q0-.79-.94-.79-1.2,0-1.392,1.48a5.694,5.694,0,0,0,1.116.1" transform="translate(-95.26 -9.749)" fill="#fff"/>
          <path id="Trazado_43175" data-name="Trazado 43175" d="M29.518,64.912A23.418,23.418,0,0,1,16.3,68.954,23.927,23.927,0,0,1,.145,62.792c-.335-.3-.036-.715.366-.481A32.51,32.51,0,0,0,16.672,66.6,32.152,32.152,0,0,0,29,64.077c.6-.256,1.111.4.52.835" transform="translate(0 -48.516)" fill="#fff" fill-rule="evenodd"/>
          <path id="Trazado_43176" data-name="Trazado 43176" d="M124.789,60.94c-.457-.585-3.023-.277-4.175-.139-.349.042-.4-.263-.089-.484,2.047-1.437,5.4-1.022,5.79-.541s-.1,3.847-2.021,5.452c-.3.247-.576.115-.445-.211.432-1.078,1.4-3.491.94-4.077" transform="translate(-93.784 -46.243)" fill="#fff" fill-rule="evenodd"/>
        </g>
      </g>
      <g id="Grupo_32669" data-name="Grupo 32669">
        <rect id="Rectángulo_18532-7" data-name="Rectángulo 18532" width="62.774" height="37.891" rx="5" transform="translate(0 0)" fill="none"/>
        <g id="Netflix_Logo_CMYK" transform="translate(8.482 13.007)">
          <g id="Netflix_Logo_CMYK-2" data-name="Netflix_Logo_CMYK" transform="translate(0 0)" clip-path="url(#clip-path-2)">
            <path id="Trazado_25345" data-name="Trazado 25345" d="M35.149,11.1q.96.073,1.917.159V0H35.149ZM4.318,6.921,1.821,0H0V12.228q.957-.137,1.917-.262V5.317l2.22,6.375q1.046-.121,2.1-.23V0H4.318Zm3.76,4.366q2.65-.239,5.323-.4V9q-1.709.1-3.406.233V6.375c.743-.006,1.722-.029,2.587-.019V4.468c-.692,0-1.805.01-2.587.019V1.907H13.4V0H8.079Zm6.551-9.38h2.006v8.831q.957-.035,1.917-.061V1.907h2.006V0H14.629Zm7.157,8.716H23.7V6.264h2.6V4.376H23.7V1.907h3.432V0H21.786ZM45.511,0h-2.1L42.019,3.218,40.772,0H38.7l2.229,5.747-2.433,5.639q1.008.1,2.016.21l1.416-3.279,1.4,3.613q1.094.14,2.185.3h0l-2.5-6.439ZM30.283,0H28.366V10.719q2.612.089,5.2.262V9.093q-1.639-.108-3.288-.185Z" fill="#fff"/>
          </g>
        </g>
      </g>
      <g id="Grupo_32671" data-name="Grupo 32671" transform="translate(153.198)">
        <rect id="Rectángulo_18532-8" data-name="Rectángulo 18532" width="62.773" height="37.89" rx="5" transform="translate(0 0)" fill="none"/>
        <g id="Grupo_22155" data-name="Grupo 22155" transform="translate(5.657 14.704)">
          <path id="Trazado_42929" data-name="Trazado 42929" d="M56.983,24.831c0,.006,0,5.5,0,5.5a.14.14,0,0,1-.122.149h-.747a.815.815,0,0,1-.8-.814V24.852a1.558,1.558,0,0,0-1.662-1.59A1.576,1.576,0,0,0,52,24.878v5.46a.134.134,0,0,1-.124.142h-.747a.831.831,0,0,1-.8-.832v-4.79a1.661,1.661,0,0,0-3.319.005v5.482a.128.128,0,0,1-.124.135h-.747a.8.8,0,0,1-.8-.8V24.852a3.128,3.128,0,0,1,3.325-3.239,3.343,3.343,0,0,1,2.5.987,3.348,3.348,0,0,1,2.494-.995,3.128,3.128,0,0,1,3.333,3.225" transform="translate(-22.997 -21.603)" fill="#fff"/>
          <path id="Trazado_42930" data-name="Trazado 42930" d="M86.218,30.457a.066.066,0,0,1-.057.1l-1.333,0a.946.946,0,0,1-.887-.417l-1.365-2.013a.509.509,0,0,0-.964,0l-1.364,2.013a.946.946,0,0,1-.887.417H78.026a.068.068,0,0,1-.056-.106L80.6,26.573a.687.687,0,0,0,0-.753L77.97,21.935a.066.066,0,0,1,.056-.1H79.36a.944.944,0,0,1,.887.415l1.364,2.013a.509.509,0,0,0,.964,0l1.365-2.013a.944.944,0,0,1,.887-.415h1.333a.067.067,0,0,1,.057.1L83.587,25.82a.69.69,0,0,0,0,.753Z" transform="translate(-35.031 -21.686)" fill="#fff"/>
          <path id="Trazado_42931" data-name="Trazado 42931" d="M72.446,21.749H71.92a.807.807,0,0,0-.7.4l-.194.339a4.018,4.018,0,0,0-2.545-.884c-2.448,0-4.077,1.73-4.077,4.469,0,2.76,1.657,4.469,4.058,4.469a3.976,3.976,0,0,0,2.413-.776.782.782,0,0,0,.8.712h.762c.074,0,.134-.032.134-.107l0-8.491a.134.134,0,0,0-.134-.134m-4,7.131c-1.392,0-2.412-1.036-2.412-2.805s1.02-2.806,2.412-2.806,2.412,1.036,2.412,2.806-1.02,2.805-2.412,2.805" transform="translate(-30.032 -21.603)" fill="#fff"/>
          <path id="Trazado_42932" data-name="Trazado 42932" d="M13.921,25.08H12.382V21.833H9.937v8.73h2.445V27.176h1.539v3.388h2.372v-8.73H13.921Z" transform="translate(-9.937 -21.687)" fill="#fff"/>
          <path id="Trazado_42933" data-name="Trazado 42933" d="M31.166,21.6a4.4,4.4,0,0,0-4,2.523,2.532,2.532,0,0,0-2.327-2.378H20.79v8.732h3.774A2.628,2.628,0,0,0,27.17,28.03a4.448,4.448,0,1,0,4-6.429m-6.918,6.843h-1.2V26.969h1.2a.748.748,0,0,1,0,1.475m0-3.278h-1.2V23.691h1.2a.748.748,0,0,1,0,1.475m1.6.877a1.871,1.871,0,0,0,.895-.55,4.042,4.042,0,0,0,.005,1.218,1.68,1.68,0,0,0-.9-.668m5.317,2.223a2.223,2.223,0,1,1,2.223-2.223,2.223,2.223,0,0,1-2.223,2.223" transform="translate(-13.941 -21.601)" fill="#fff"/>
          <path id="Trazado_42934" data-name="Trazado 42934" d="M36.212,25.872a1.747,1.747,0,1,0,1.747,1.747,1.747,1.747,0,0,0-1.747-1.747" transform="translate(-18.986 -23.177)" fill="#fff"/>
        </g>
      </g>
      <g id="Grupo_32687" data-name="Grupo 32687" transform="translate(229.438)">
        <rect id="Rectángulo_18532-9" data-name="Rectángulo 18532" width="63.369" height="38.25" rx="5" transform="translate(0)" fill="none"/>
        <g id="paramount_Blanco" data-name="paramount + Blanco" transform="translate(11.989 6.851)">
          <g id="paramount_Blanco-2" data-name="paramount + Blanco" transform="translate(0 0)" clip-path="url(#clip-path-3)">
            <path id="Trazado_25772" data-name="Trazado 25772" d="M362.513,245.825c-.094-.039-.253-.219.009-.708l.609-1.274c.017-.039-.026-.086-.056-.056l-.532.536a9.187,9.187,0,0,0-.764,1.137l-.643,1.072a.086.086,0,0,1,.077.129l-.592.991c-.146.245.116.42.15.36.927-1.5,1.467-1.377,1.467-1.377l.309-.716a.074.074,0,0,0,0-.058.073.073,0,0,0-.041-.041" transform="translate(-345.109 -233.32)" fill="#fff"/>
            <path id="Trazado_25773" data-name="Trazado 25773" d="M240.413,0a9.614,9.614,0,0,0-7.735,15.323,2.005,2.005,0,0,0,.789-.635l1.789-2.291a.365.365,0,0,1,.142-.112l.27-.116,2.943-3.732.429-.335.875-1.223A.364.364,0,0,1,240,6.8l.382-.279a.275.275,0,0,1,.317,0l.463.326a1.824,1.824,0,0,1,.588.678l1.862,3.269a.292.292,0,0,0,.146.142,2.553,2.553,0,0,1,1.064.734c.223.24,1.2,1.334,2.565,3.029a1.939,1.939,0,0,0,.772.626A9.615,9.615,0,0,0,240.413,0m-7.022,10.145-.622-.2-.386.532V9.819l-.622-.2.622-.2V8.756l.386.532.622-.2L233,9.618Zm-.146,2.145-.2.622-.2-.622h-.656l.532-.386-.206-.622.532.386.532-.386-.2.622.532.386Zm.124-4.963.2.622-.532-.386-.532.386.2-.622-.532-.386h.656l.2-.622.2.622h.656Zm1.051-1.411-.386-.532-.622.2.386-.532-.386-.532.622.2.386-.532v.656l.622.2-.622.2Zm1.639-2.3-.2.626-.2-.626H235l.532-.386-.2-.622.532.386.532-.386-.2.622.532.386Zm2.063-1.051-.386.532V2.445l-.622-.2.622-.2V1.386l.386.532.622-.2-.386.532.386.532Zm2.617-.6.2.622-.532-.386-.532.386.2-.622-.532-.386h.656l.2-.622.2.622h.656Zm2.351.476V3.1L242.7,2.57l-.622.2.386-.532-.386-.532.622.2.386-.532v.665l.622.2Zm4.346,6.641.622.2.386-.532v.656l.622.2-.622.2v.656l-.386-.532-.622.2.386-.532Zm-2.467-4.839-.2-.622h-.656l.532-.386-.2-.622.532.386.532-.386-.2.622.532.386h-.661Zm1.437,1.669V5.259l-.622-.2.622-.2V4.2l.386.532.622-.2-.386.532.386.532-.622-.2Zm1.175,1.025.2-.622.2.622h.656l-.532.386.2.622-.532-.386-.532.386.2-.622-.532-.386Zm.4,5.349-.2.622-.2-.622h-.656l.532-.386-.206-.622.532.386.532-.386-.2.622.532.386Z" transform="translate(-220.899)" fill="#fff"/>
            <path id="Trazado_25774" data-name="Trazado 25774" d="M421.344,174.435a.616.616,0,0,0-.021-.592L420.9,172.7c-.06-.146.069-.236.154-.137a12.724,12.724,0,0,1,1.012,1.313l.395.656c.343.022,1.283.047,2.188.047a2.585,2.585,0,0,1-.253-.292c-1.544-1.918-2.527-2.986-2.535-2.994a1.732,1.732,0,0,0-.7-.515l-.112-.051v.292a.035.035,0,0,1-.069.017l-2.274-3.994v-.013a1.279,1.279,0,0,0-.408-.472l-.223-.154-1.085,2.5a.236.236,0,0,1,.215.326l-1,2.316h.918a2.733,2.733,0,0,1,1.038.206l.244.1a7.656,7.656,0,0,0-.734,2.3,1.646,1.646,0,0,0,.06.425h1.686l-.073-.468a18.006,18.006,0,0,0,2,.33" transform="translate(-398.346 -159.262)" fill="#fff"/>
            <path id="Trazado_25775" data-name="Trazado 25775" d="M9.976,359.3c0-1.549-1.643-2.3-3.591-2.3-2.085,0-4,.927-4.7,2.359a2.716,2.716,0,0,0-.3,1.231,1.853,1.853,0,0,0,.3,1.047,1.836,1.836,0,0,0,1.626.725c.969,0,1.733-.532,1.733-1.454a.253.253,0,0,0-.287-.257c-.3,0-.309.172-.3.257a1.144,1.144,0,0,1-1.163,1.3c-.862,0-1.218-.729-1.218-1.514a3.425,3.425,0,0,1,2.458-3.119,5.006,5.006,0,0,1,1.836-.322c1.42,0,2.582.545,2.582,2.008A2.436,2.436,0,0,1,6.7,361.616l.051-.163a8.979,8.979,0,0,1,1.06-2.6,2.005,2.005,0,0,1,.137-.184l-.073-.086a2.985,2.985,0,0,0-.309.215c-2.351,1.836-2.424,7-5.555,7a2.423,2.423,0,0,1-.321-.021,1.1,1.1,0,0,1-1-1.154c0-.12.043-.287.043-.382a.313.313,0,0,0-.309-.322H.392c-.279,0-.395.223-.4.536-.021.909.652,1.441,1.69,1.54.116.009.227.013.352.013,2.445,0,3.942-1.849,4.582-4.092a5.38,5.38,0,0,0,.952-.2c1.133-.317,2.411-1.077,2.411-2.415" transform="translate(0.011 -341.685)" fill="#fff"/>
            <path id="Trazado_25776" data-name="Trazado 25776" d="M206.5,423.1h-.858l-.2.45-.339.759h-.4l-.12.257H205l-.5,1.111c-.36.781-.918,1.549-1.24,1.549-.073,0-.116-.03-.116-.1a1.02,1.02,0,0,1,.1-.339c.077-.2.266-.579.386-.832a4.087,4.087,0,0,0,.468-1.21.484.484,0,0,0-.532-.5,1.651,1.651,0,0,0-1.081.579l.215-.515h-.806l-.661,1.506c-.266.532-.8,1.411-1.141,1.411-.073,0-.1-.043-.1-.116a.6.6,0,0,1,.051-.185l.425-.991.712-1.639h-.875l-.695,1.6c-.214.493-.759,1.334-1.111,1.334a.112.112,0,0,1-.12-.1v-.03a1.2,1.2,0,0,1,.116-.36l.365-.8.751-1.639h-.867l-.172.373a.841.841,0,0,1-.686.545.289.289,0,0,1-.279-.129.855.855,0,0,0-.918-.845,1.854,1.854,0,0,0-1.562.94,4.8,4.8,0,0,0-.515,1.141c-.309.511-.631.905-.888.905-.064,0-.107-.034-.107-.12a1.41,1.41,0,0,1,.116-.352l.558-1.214a2.362,2.362,0,0,0,.266-.862.442.442,0,0,0-.472-.446,1.725,1.725,0,0,0-1.205.622.821.821,0,0,0,.013-.184.387.387,0,0,0-.438-.438,1.559,1.559,0,0,0-1.111.622l.227-.558h-.785l-.665,1.506c-.317.708-.824,1.411-1.111,1.411-.064,0-.107-.034-.107-.12a3.777,3.777,0,0,1,.206-.609l.884-2c.064-.15-.36-.245-.9-.245a2.561,2.561,0,0,0-1.536.622,1.387,1.387,0,0,1-.618.365c-.107,0-.077-.03-.077-.064,0-.12.3-.468.3-.729,0-.12-.064-.2-.232-.2a1.553,1.553,0,0,0-.961.618l.227-.553h-.772l-.665,1.506c-.317.708-.841,1.45-1.124,1.45-.064,0-.107-.034-.107-.12a3.1,3.1,0,0,1,.223-.639l.884-2.008c.064-.15-.36-.245-.9-.245a2.65,2.65,0,0,0-1.978,1.09,3.5,3.5,0,0,0-.768,1.742.587.587,0,0,0,.639.674,1.612,1.612,0,0,0,1.09-.665,1.431,1.431,0,0,0-.03.172c0,.287.116.493.468.493a1.489,1.489,0,0,0,1.047-.665l-.266.609h.836l.824-1.87c.275-.609.579-.927.665-.927s.043.013.043.034a1.283,1.283,0,0,0-.129.395c0,.159.086.279.317.279a.94.94,0,0,0,.558-.2,3.089,3.089,0,0,0-.708,1.669.587.587,0,0,0,.639.674,1.7,1.7,0,0,0,1.1-.716,1.75,1.75,0,0,0-.013.2.468.468,0,0,0,.48.515c.322,0,.644-.223,1-.661l-.266.6h.862l.789-1.784c.343-.772.811-1.188,1.038-1.188a.1.1,0,0,1,.116.094v.021a.772.772,0,0,1-.073.249L190.9,427.69h.884l.8-1.819c.343-.781.725-1.162,1.012-1.162.086,0,.12.043.12.137a.781.781,0,0,1-.077.287l-.777,1.647a1.529,1.529,0,0,0-.129.5c0,.253.137.472.523.472.5,0,.884-.382,1.313-.948v.12a.852.852,0,0,0,.952.845,2.058,2.058,0,0,0,1.815-1.411,3.059,3.059,0,0,0,.279-.969.545.545,0,0,0,.279.056.755.755,0,0,0,.373-.094l-.137.3c-.159.33-.33.695-.468,1a1.616,1.616,0,0,0-.15.579.485.485,0,0,0,.523.532,1.762,1.762,0,0,0,1.175-.8h.009a1.324,1.324,0,0,0-.034.3c0,.257.077.5.438.5a1.58,1.58,0,0,0,1.055-.682l-.266.6h.867l.695-1.579c.395-.888.789-1.429,1.154-1.429a.12.12,0,0,1,.12.107v.021a4.585,4.585,0,0,1-.408.969c-.193.412-.317.661-.408.884a1.686,1.686,0,0,0-.15.6.444.444,0,0,0,.489.48,1.913,1.913,0,0,0,1.283-.854,1.784,1.784,0,0,0-.1.545.68.68,0,0,0,.725.755,1.343,1.343,0,0,0,.781-.257,3.577,3.577,0,0,0,.819-.888l-.15-.142a3.2,3.2,0,0,1-.674.747.729.729,0,0,1-.446.171c-.18,0-.3-.094-.3-.322a2.951,2.951,0,0,1,.275-.952c.009-.009.244-.536.468-1.047.184-.429.373-.845.408-.931h.566l.116-.257h-.558Zm-24.452,4.135c-.12,0-.206-.043-.206-.2a3.955,3.955,0,0,1,.8-1.776,1.531,1.531,0,0,1,1.141-.725l-.545,1.218c-.408.918-.854,1.484-1.184,1.484m5.362,0a.186.186,0,0,1-.215-.2,3.955,3.955,0,0,1,.8-1.776,1.531,1.531,0,0,1,1.141-.725l-.553,1.218c-.416.939-.837,1.484-1.175,1.484m9.519-2.372a5.682,5.682,0,0,1-.909,2.265c-.193.27-.36.352-.5.352s-.257-.163-.227-.407a5.5,5.5,0,0,1,.884-2.093c.223-.309.373-.438.545-.438s.223.142.214.322" transform="translate(-173.23 -404.95)" fill="#fff"/>
            <path id="Trazado_25777" data-name="Trazado 25777" d="M791.852,410.623l.789-1.823h-.935l-.789,1.823H788.93l-.33.764h1.986l-.789,1.823h.935l.789-1.823h1.986l.33-.764Z" transform="translate(-754.77 -391.263)" fill="#fff"/>
          </g>
        </g>
      </g>
      <ellipse id="Elipse_390" data-name="Elipse 390" cx="3.241" cy="3.241" rx="3.241" ry="3.241" transform="translate(66.17 15.823)" fill="#fff"/>
      <ellipse id="Elipse_391" data-name="Elipse 391" cx="3.241" cy="3.241" rx="3.241" ry="3.241" transform="translate(143.129 15.823)" fill="#fff"/>
      <ellipse id="Elipse_392" data-name="Elipse 392" cx="3.241" cy="3.241" rx="3.241" ry="3.241" transform="translate(219.368 15.823)" fill="#fff"/>
      <g id="Grupo_32730" data-name="Grupo 32730" transform="translate(306.396)">
        <g id="Grupo_32673" data-name="Grupo 32673" transform="translate(2.927 15.61)">
          <path id="Trazado_42373" data-name="Trazado 42373" d="M55.09,6.39a.127.127,0,0,0-.11-.2h-.166V6.6h.078V6.441h.057l.089.162h.09l-.1-.174A.121.121,0,0,0,55.09,6.39Zm-.115-.025h-.082v-.1h.082c.04,0,.06.017.06.05S55.014,6.365,54.975,6.365ZM54.951,6a.391.391,0,1,0,.391.391A.391.391,0,0,0,54.951,6Zm0,.707a.315.315,0,1,1,.315-.315A.316.316,0,0,1,54.951,6.711ZM54.862,4.24H53.675V5.872h-1.6V4.24H50.441v-1.6h1.632V1.005h1.6V2.637h2.077ZM50.8,4.915V6.693H45.575V.185H50.8V1.962H47.537v.676h2.4v1.6h-2.4v.676ZM39.489.185h5.582V1.962h-1.8V6.693H41.31V1.962H39.489Zm-3.283,0L33.63,6.692h2.079l.235-.707h2.276l.235.707h2.079L37.956.185Zm.17,4.5.705-2.124.7,2.124ZM34.067,3.439c-.008,1.761-.716,3.439-3.137,3.439-2.382,0-3.244-1.678-3.252-3.439C27.686,1.678,28.471,0,30.931,0h0c2.538,0,2.943,1.678,2.95,2.187H31.9s-.085-.645-.962-.645c-.715,0-1.276.444-1.276,1.9,0,1.53.676,1.9,1.274,1.9a1.1,1.1,0,0,0,1.155-1.1H30.873V2.863h3.194ZM27.275,4.722c0,1.2-.872,2.155-2.9,2.155-2.733,0-2.938-1.678-2.945-2.187h1.983c0,.279.163.645.962.645.724,0,.933-.279.933-.542,0-1.064-3.712-.047-3.712-2.832C21.6,1.5,21.973,0,24.368,0c2.356,0,2.715,1.539,2.715,2.035H25.2c0-.206-.141-.588-.858-.588-.636,0-.858.232-.858.515C23.481,3.006,27.275,1.962,27.275,4.722ZM18.893.185h1.962V6.693H18.893L16.931,3.439V6.693H14.968V.185h1.962l1.962,3.254ZM10.973,0c-2.5,0-3.3,1.678-3.311,3.439.008,1.761.812,3.439,3.311,3.439s3.3-1.678,3.311-3.439C14.276,1.678,13.472,0,10.973,0Zm0,5.335c-.637,0-1.315-.367-1.315-1.9s.679-1.9,1.315-1.9,1.315.367,1.315,1.9S11.61,5.335,10.973,5.335ZM5.015.185H6.978V6.693H5.015ZM1.962,4.915H4.4V6.693H0V.185H1.962Z" transform="translate(0)" fill="#fff"/>
        </g>
        <rect id="Rectángulo_18532-10" data-name="Rectángulo 18532" width="62.774" height="37.891" rx="5" transform="translate(0 0)" fill="none"/>
      </g>
      <ellipse id="Elipse_415" data-name="Elipse 415" cx="3.241" cy="3.241" rx="3.241" ry="3.241" transform="translate(296.327 15.823)" fill="#fff"/>
    </g>
  </g>
</svg>
