<svg xmlns="http://www.w3.org/2000/svg" width="301.948" height="53.18" viewBox="0 0 301.948 53.18">
  <g id="pqt_familiar" transform="translate(-265 -453)">
    <g id="Grupo_32689" data-name="Grupo 32689" transform="translate(372 453)">
      <rect id="Rectángulo_18532" data-name="Rectángulo 18532" width="87.948" height="53.085" rx="5" transform="translate(0 0)" fill="none"/>
      <g id="EkzKVN" transform="translate(6.782 18.991)">
        <g id="Grupo_16319" data-name="Grupo 16319" transform="translate(0 0)">
          <path id="Trazado_22262" data-name="Trazado 22262" d="M1154.05,1048.612c0-.9-.012-1.794.006-2.69a3.668,3.668,0,0,1,.132-1.044,1.252,1.252,0,0,1,1.424-.954,1.229,1.229,0,0,1,1.2,1.219c.047.676.029,1.358.023,2.037,0,.418.122.5.539.365,2.164-.69,3.983-.172,5.081,1.4a4.88,4.88,0,0,1-.083,5.784,4.644,4.644,0,0,1-5.375,1.395,4.722,4.722,0,0,1-2.937-4.663c-.031-.95-.005-1.9-.005-2.852Zm2.775,3.225a1.868,1.868,0,0,0,1.946,2.017,2.029,2.029,0,0,0-.015-4.048A1.867,1.867,0,0,0,1156.825,1051.837Z" transform="translate(-1133.762 -1043.554)" fill="#fff"/>
          <path id="Trazado_22263" data-name="Trazado 22263" d="M1029.683,1048.753c0-1.166-.013-2.333.005-3.5a1.3,1.3,0,0,1,1.245-1.427,1.326,1.326,0,0,1,1.472,1.208,10.965,10.965,0,0,1,.076,1.783c-.007.553.141.7.721.528a4.25,4.25,0,0,1,5.569,3.156,4.65,4.65,0,1,1-9.005,2.313,12.793,12.793,0,0,1-.082-2.435C1029.672,1049.838,1029.682,1049.3,1029.683,1048.753Zm4.6.985a1.909,1.909,0,0,0-1.9,2.01,1.913,1.913,0,1,0,1.9-2.01Z" transform="translate(-1029.666 -1043.476)" fill="#fff"/>
          <path id="Trazado_22264" data-name="Trazado 22264" d="M1101.289,1070.146a15.2,15.2,0,0,1-.012,1.787,1.349,1.349,0,0,1-2.149,1.061.984.984,0,0,0-.975-.064,4.285,4.285,0,0,1-5.908-2.757,4.648,4.648,0,0,1,3.178-5.967,4.592,4.592,0,0,1,5.783,3.669A11.4,11.4,0,0,1,1101.289,1070.146Zm-6.5-1.491a1.88,1.88,0,1,0,1.87-1.994A1.807,1.807,0,0,0,1094.792,1068.655Z" transform="translate(-1081.861 -1060.407)" fill="#fff"/>
          <path id="Trazado_22265" data-name="Trazado 22265" d="M1217.261,1068.609c.629-1.384,1.16-2.625,1.753-3.836a1.316,1.316,0,0,1,2.22-.4,1.411,1.411,0,0,1,.127,1.737c-.76,1.711-1.529,3.418-2.292,5.128q-.946,2.119-1.887,4.239c-.241.539-.535,1.014-1.219,1.043a1.327,1.327,0,0,1-1.359-1.854,16.659,16.659,0,0,1,.926-2.081,1.587,1.587,0,0,0-.02-1.679c-.772-1.371-1.492-2.771-2.231-4.161-.14-.263-.288-.525-.4-.8a1.328,1.328,0,0,1,.585-1.872,1.293,1.293,0,0,1,1.77.684c.562,1.022,1.079,2.069,1.617,3.1C1216.946,1068.047,1217.054,1068.232,1217.261,1068.609Z" transform="translate(-1182.868 -1060.298)" fill="#fff"/>
          <path id="Trazado_22266" data-name="Trazado 22266" d="M1393.506,1073.2a4.425,4.425,0,0,1-2.732-1.012,1.325,1.325,0,0,1-.323-1.877,1.261,1.261,0,0,1,1.811-.228,2.45,2.45,0,0,0,1.764.459c.164-.026.348-.06.391-.239.059-.248-.147-.334-.331-.381-.472-.123-.952-.216-1.425-.338a2.821,2.821,0,0,1-2.366-2.808,2.927,2.927,0,0,1,2.441-2.771,4.456,4.456,0,0,1,3.645.718,1.312,1.312,0,0,1,.478,1.781,1.235,1.235,0,0,1-1.76.437,2.744,2.744,0,0,0-1.544-.427c-.186.021-.426.012-.46.245s.2.3.379.343c.526.134,1.062.233,1.582.387a2.666,2.666,0,0,1,2.158,2.612,2.892,2.892,0,0,1-2.136,2.844A4.961,4.961,0,0,1,1393.506,1073.2Z" transform="translate(-1331.401 -1060.263)" fill="#fff"/>
          <path id="Trazado_22267" data-name="Trazado 22267" d="M1274.056,1050.81c0-.542-.023-1.086.006-1.627.036-.7,0-1.245-.781-1.647a1.129,1.129,0,0,1,.133-2,1.587,1.587,0,0,0,.827-1.1,3.656,3.656,0,0,1,3.777-2.72,1.281,1.281,0,0,1,.271,2.538c-.381.116-.834.06-1.114.421a.706.706,0,0,0-.174.433c.017.193.229.19.39.2a3.655,3.655,0,0,1,.564.061,1.2,1.2,0,0,1,1.012,1.289,1.093,1.093,0,0,1-1.147,1.137c-.834-.016-.991.36-.967,1.087.044,1.327.023,2.658.008,3.987-.012,1.074-.561,1.722-1.427,1.728-.828.006-1.371-.68-1.38-1.755C1274.052,1052.166,1274.056,1051.488,1274.056,1050.81Z" transform="translate(-1233.1 -1041.706)" fill="#fff"/>
          <path id="Trazado_22268" data-name="Trazado 22268" d="M1442.723,1058.972a3.264,3.264,0,0,1-3.223-2.787,19.3,19.3,0,0,1-.119-3.167.922.922,0,0,0-.546-.962,1.206,1.206,0,0,1,0-2.239.954.954,0,0,0,.546-.977,3.343,3.343,0,0,1,.084-.806,1.353,1.353,0,0,1,1.468-1.124,1.3,1.3,0,0,1,1.228,1.291,3.043,3.043,0,0,1,.01.57c-.054.581.115.887.781.94a1.228,1.228,0,0,1-.079,2.451c-.526.016-.721.229-.7.745.026.786.012,1.573.007,2.36a.793.793,0,0,0,.776.931c.995.134,1.49.669,1.436,1.433A1.549,1.549,0,0,1,1442.723,1058.972Z" transform="translate(-1371.481 -1046.052)" fill="#fff"/>
          <path id="Trazado_22269" data-name="Trazado 22269" d="M1344.832,1068.557c0-1-.013-2.008,0-3.012.019-1.166.809-1.776,1.89-1.386a1.921,1.921,0,0,0,1.4-.032,3.329,3.329,0,0,1,2.688.137,1.178,1.178,0,0,1,.708,1.4,1.094,1.094,0,0,1-1.262.9c-.434-.017-.869-.038-1.3-.021-1.015.039-1.422.434-1.446,1.464-.029,1.193,0,2.388-.015,3.581-.011,1.047-.483,1.6-1.331,1.584s-1.319-.576-1.33-1.6C1344.823,1070.565,1344.832,1069.561,1344.832,1068.557Z" transform="translate(-1293.436 -1060.289)" fill="#fff"/>
          <path id="Trazado_22270" data-name="Trazado 22270" d="M1320.411,1068.7c0,1.056.018,2.114,0,3.169a1.335,1.335,0,1,1-2.662,0q-.028-3.21,0-6.42a1.28,1.28,0,0,1,1.278-1.382,1.3,1.3,0,0,1,1.38,1.378C1320.432,1066.537,1320.41,1067.621,1320.411,1068.7Z" transform="translate(-1270.758 -1060.428)" fill="#fff"/>
          <path id="Trazado_22271" data-name="Trazado 22271" d="M1320.493,1043.149a1.323,1.323,0,0,1-2.644.089,1.279,1.279,0,0,1,1.268-1.382A1.316,1.316,0,0,1,1320.493,1043.149Z" transform="translate(-1270.856 -1041.831)" fill="#fff"/>
        </g>
      </g>
    </g>
    <g id="Grupo_32690" data-name="Grupo 32690" transform="translate(479 453)">
      <rect id="Rectángulo_18532-2" data-name="Rectángulo 18532" width="87.948" height="53.085" rx="5" transform="translate(0 0)" fill="none"/>
      <g id="edye_calado" data-name="edye calado" transform="translate(18 11)">
        <g id="Grupo_19717" data-name="Grupo 19717" transform="translate(0 0)">
          <path id="Trazado_42096" data-name="Trazado 42096" d="M52.825,55.2a1.263,1.263,0,0,0-1.317,1.357,1.44,1.44,0,0,0,1.435,1.519,1.419,1.419,0,0,0,1.506-1.449A1.493,1.493,0,0,0,52.825,55.2Z" transform="translate(-34.712 -37.201)" fill="#fff"/>
          <path id="Trazado_42097" data-name="Trazado 42097" d="M24.023,49.468c-.26-1.112-.871-1.584-1.731-1.39-.989.231-1.379.917-1.165,2.127Z" transform="translate(-14.199 -32.372)" fill="#fff"/>
          <path id="Trazado_42098" data-name="Trazado 42098" d="M140.439,50.972c-1-.177-1.625.316-1.895,1.516l2.957.433C141.689,51.794,141.307,51.123,140.439,50.972Z" transform="translate(-93.368 -34.327)" fill="#fff"/>
          <g id="Grupo_19716" data-name="Grupo 19716" transform="translate(0 5.881)">
            <path id="Trazado_42099" data-name="Trazado 42099" d="M136.955,64.067a6.16,6.16,0,0,0,2.865.376,6.4,6.4,0,0,0,.682-.1.279.279,0,0,1,.325.159.28.28,0,0,0-.328-.166,6.5,6.5,0,0,1-.682.1,6.164,6.164,0,0,1-2.865-.375,1.607,1.607,0,0,1-1.122-1.309A1.591,1.591,0,0,0,136.955,64.067Z" transform="translate(-91.539 -48.171)" fill="none"/>
            <path id="Trazado_42100" data-name="Trazado 42100" d="M140.439,50.971c-1-.177-1.627.309-1.895,1.516l2.957.433C141.689,51.794,141.307,51.122,140.439,50.971Z" transform="translate(-93.368 -40.208)" fill="none"/>
            <path id="Trazado_42101" data-name="Trazado 42101" d="M121.9,48.574a6.274,6.274,0,0,1,1.608-3.241c.07-.071.142-.138.216-.2a4.866,4.866,0,0,1,2.382-1.191c2.851-.534,5.04.766,5.832,2.853-.79-2.086-2.981-3.389-5.835-2.859a4.867,4.867,0,0,0-2.382,1.19c-.074.071-.146.134-.216.205a6.269,6.269,0,0,0-1.608,3.241,6.068,6.068,0,0,0,.134,2.8A6.069,6.069,0,0,1,121.9,48.574Z" transform="translate(-82.083 -35.408)" fill="none"/>
            <path id="Trazado_42102" data-name="Trazado 42102" d="M50.588,24.639c-1.01.039-1.029.058-1.055,1.091-.036,1.563-.041,3.127-.06,4.758a1.88,1.88,0,0,1-.243-.086,4.725,4.725,0,0,0-6.158,1.406,5.362,5.362,0,0,0-1,3.334,8.4,8.4,0,0,0,.15,1.428c.011.057.024.113.036.169a4.63,4.63,0,0,0,4.8,3.887,16.2,16.2,0,0,0,2.649-.6c-.162.733.41.829,1.023.838.952.008,1.905-.028,2.857,0,.511.016.624-.193.638-.67q.015-.444.027-.889.109-3.753.228-7.506.071-2.27.143-4.538c.005-.153.018-.3.018-.456,0-.061.007-.3.016-.6.005-.185.018-.368.018-.554.007-.221.013-.446.013-.678v-.39c-1.1,0-2.194,0-3.291.024Q50.99,24.623,50.588,24.639Z" transform="translate(-28.348 -22.453)" fill="none"/>
            <path id="Trazado_42103" data-name="Trazado 42103" d="M16.395,48.469a6.376,6.376,0,0,1-3.382,1.108,1.507,1.507,0,0,1-1.694-1.232c-.025-.152.038-.182.135-.166a2.3,2.3,0,0,1,.388.123c1.522.6,4.341-.4,4.838-1.332a.546.546,0,0,0,.072-.34C16.156,42.8,12.427,41,8.9,43.312a4.884,4.884,0,0,0-1.86,2.3c-1.119,2.84.169,6.8,3.266,7.685a6.522,6.522,0,0,0,4.748-.489A5.547,5.547,0,0,0,17.1,51.269a2.387,2.387,0,0,0,.165-1.442C17.153,48.99,16.8,48.186,16.395,48.469Z" transform="translate(-4.474 -34.378)" fill="none"/>
            <path id="Trazado_42104" data-name="Trazado 42104" d="M91.553,40.422c-.095-.016-.3.2-.347.342-.238.67-.466,1.354-.7,2.043-.1.309-.207.624-.312.938l-.2.617-.35,1.072c-.08-.337-.12-.5-.159-.67l-.007-.028q-.268-1.127-.536-2.253-.194-.805-.387-1.609c-.063-.267-.161-.459-.5-.4-1.11.188-2.222.37-3.362.557-.324.052-.751.132-1.081.186a1.874,1.874,0,0,0,.163.536c.055.159.109.319.164.48q.329.956.654,1.912.567,1.655,1.142,3.305.421,1.2.859,2.4a1.623,1.623,0,0,1-.011,1.392c-.531,1.114-1.024,2.245-1.549,3.407a13.972,13.972,0,0,0,3.752,1.587c.794.2.8.206,1.12-.518q2.025-4.6,4.027-9.208l.67-1.538c.161-.374.315-.752.469-1.136.2-.5.4-1.012.607-1.548L95.792,42l.283-.718C94.5,40.975,93.027,40.682,91.553,40.422Z" transform="translate(-56.349 -33.122)" fill="none"/>
            <path id="Trazado_42105" data-name="Trazado 42105" d="M52.14,29.451a6.785,6.785,0,0,0-1.682-3.083,7.371,7.371,0,0,0-6.892-1.932,6.971,6.971,0,0,0-.894.236c-.115.039-.275-.049-.382-.085-.169-.056-.344-.092-.517-.134-1.593-.386-3.2-.708-4.807-1.025-.412-.082-.825-.184-1.242-.229a.741.741,0,0,1-.134-.008,2.368,2.368,0,0,0-2.057.669,2.546,2.546,0,0,0-2.182-.613c-.967.164-1.923.32-2.925.485L28.5,21.31c0-.231.008-.447.011-.678v-.32l.024-1.936s-5.273-.376-6.381-.337a3.153,3.153,0,0,0-2.377.834,3.209,3.209,0,0,0-.771,2.383c-.014.649-.024,1.29-.032,1.939a6.751,6.751,0,0,0-2.041.213,7.9,7.9,0,0,0-4.089,2.847,9.312,9.312,0,0,0-2.5-1.916,7.645,7.645,0,0,0-8.922,2.53,7.468,7.468,0,0,0-1.411,4.1,8.575,8.575,0,0,0,2.93,6.979C6,40.4,11.053,39.642,13.815,37.078c.024-.022.288-.281.287-.282a6.609,6.609,0,0,0,3.977,1.589,6.9,6.9,0,0,0,1.389-.068,3.622,3.622,0,0,0,.548-.111c.083-.025.281-.134.367-.079a3.71,3.71,0,0,0,1.994.5c.915.012,1.829,0,2.744,0,.4,0,1.62-.031,1.83-.5-.08.178-.161.359-.242.536l-.8,1.763a29.3,29.3,0,0,0,3.4,1.876,9.531,9.531,0,0,0,3.739,1.139,2.447,2.447,0,0,0,1.04-.226A2.952,2.952,0,0,0,35.51,41.6c.8-1.781,1.554-3.585,2.355-5.369.048-.112.37-.65.327-.748a6.683,6.683,0,0,0,1.987,2.559,8.615,8.615,0,0,0,5.343,1.839c.253,0,.511-.011.767-.033a7.438,7.438,0,0,0,3.5-1.01,4.326,4.326,0,0,0,1.577-2.484,5.237,5.237,0,0,0,.178-2.043,3.142,3.142,0,0,0,.582-1.2A7.767,7.767,0,0,0,52.14,29.451ZM12.621,34.927a5.547,5.547,0,0,1-2.045,1.534,6.522,6.522,0,0,1-4.748.489c-3.1-.886-4.385-4.845-3.266-7.685a4.884,4.884,0,0,1,1.86-2.3c3.53-2.314,7.259-.509,7.854,3.318a.546.546,0,0,1-.072.34c-.5.929-3.316,1.933-4.838,1.332a2.3,2.3,0,0,0-.388-.123c-.1-.016-.16.014-.135.166a1.507,1.507,0,0,0,1.694,1.232,6.376,6.376,0,0,0,3.382-1.108c.409-.283.759.521.866,1.358A2.387,2.387,0,0,1,12.621,34.927ZM26.334,20.563c0,.232-.006.457-.013.678,0,.186-.012.369-.018.554-.008.3-.013.536-.016.6,0,.151-.012.3-.018.456q-.072,2.268-.143,4.538-.119,3.753-.228,7.506-.012.445-.027.889c-.013.477-.127.686-.638.67-.951-.028-1.9.008-2.857,0-.613-.009-1.185-.1-1.023-.838a16.2,16.2,0,0,1-2.649.6,4.63,4.63,0,0,1-4.8-3.886c-.012-.056-.025-.112-.036-.169a8.4,8.4,0,0,1-.15-1.428,5.362,5.362,0,0,1,1-3.334,4.725,4.725,0,0,1,6.158-1.406,1.88,1.88,0,0,0,.243.086c.019-1.631.024-3.2.06-4.758.026-1.033.045-1.052,1.055-1.091q.4-.016.8-.025c1.1-.027,2.195-.024,3.291-.024Zm13.109,6.351-.111.286c-.206.536-.4,1.047-.607,1.548-.155.383-.308.761-.469,1.136l-.67,1.538q-2,4.608-4.027,9.208c-.318.724-.326.723-1.12.518a13.972,13.972,0,0,1-3.752-1.587c.525-1.162,1.018-2.294,1.549-3.407a1.623,1.623,0,0,0,.011-1.392q-.438-1.2-.859-2.4-.575-1.65-1.142-3.305-.326-.957-.654-1.912c-.055-.161-.109-.321-.164-.48a1.875,1.875,0,0,1-.163-.536c.33-.054.756-.134,1.081-.186,1.14-.186,2.253-.368,3.362-.557.337-.057.435.135.5.4q.193.8.387,1.609.269,1.125.536,2.253l.007.028c.04.166.08.333.159.67l.35-1.072.2-.617c.1-.314.207-.628.312-.938.231-.689.458-1.373.7-2.043.051-.143.252-.359.347-.342,1.475.26,2.949.553,4.522.86ZM50,32.655c-.105.432-.867.663-1.8.68a5.131,5.131,0,0,1-3.378-1.025,2.318,2.318,0,0,0-.311-.268c-.082-.052-.147-.061-.189.1a1.428,1.428,0,0,0-.036.474,1.607,1.607,0,0,0,1.122,1.309,6.164,6.164,0,0,0,2.865.375,6.5,6.5,0,0,0,.682-.1.28.28,0,0,1,.328.166,3.047,3.047,0,0,1-.751,2.69,5.569,5.569,0,0,1-2.479.627,6.506,6.506,0,0,1-4.569-1.375A4.6,4.6,0,0,1,39.952,34a6.068,6.068,0,0,1-.134-2.8,6.269,6.269,0,0,1,1.608-3.241c.07-.071.142-.134.216-.205a4.867,4.867,0,0,1,2.382-1.19c2.853-.53,5.045.773,5.835,2.859A5.432,5.432,0,0,1,50,32.655Z" transform="translate(0 -18.036)" fill="#fff"/>
            <path id="Trazado_42106" data-name="Trazado 42106" d="M141.524,56.174c-.106.431-.867.67-1.8.68a5.131,5.131,0,0,1-3.378-1.025,2.272,2.272,0,0,0-.311-.268c-.082-.052-.152-.048-.189.1a1.416,1.416,0,0,0-.032.481,1.427,1.427,0,0,1,.036-.474c.041-.163.107-.154.189-.1a2.317,2.317,0,0,1,.311.268,5.131,5.131,0,0,0,3.378,1.025c.931-.016,1.693-.248,1.8-.68a5.432,5.432,0,0,0-.143-3.236A5.415,5.415,0,0,1,141.524,56.174Z" transform="translate(-91.524 -41.561)" fill="#153188"/>
            <path id="Trazado_42107" data-name="Trazado 42107" d="M131.107,70.044a5.556,5.556,0,0,1-2.479.627,6.507,6.507,0,0,1-4.569-1.375,4.6,4.6,0,0,1-1.533-2.306A4.6,4.6,0,0,0,124.06,69.3a6.506,6.506,0,0,0,4.569,1.375,5.569,5.569,0,0,0,2.479-.627,3.047,3.047,0,0,0,.751-2.69A3.056,3.056,0,0,1,131.107,70.044Z" transform="translate(-82.573 -51.027)" fill="#153188"/>
          </g>
          <path id="Trazado_42108" data-name="Trazado 42108" d="M37.523,32.018a.865.865,0,1,0-.865-.865A.865.865,0,0,0,37.523,32.018Z" transform="translate(-24.705 -20.411)" fill="#fff"/>
          <path id="Trazado_42109" data-name="Trazado 42109" d="M40.813,24.085a1.5,1.5,0,1,0-1.5-1.5A1.5,1.5,0,0,0,40.813,24.085Z" transform="translate(-26.493 -14.209)" fill="#fff"/>
          <path id="Trazado_42110" data-name="Trazado 42110" d="M32.875,12.192a2.15,2.15,0,1,0-2.15-2.15A2.15,2.15,0,0,0,32.875,12.192Z" transform="translate(-20.706 -5.318)" fill="#fff"/>
          <path id="Trazado_42111" data-name="Trazado 42111" d="M41.2,2.574a1.287,1.287,0,1,0-1.287-1.287A1.287,1.287,0,0,0,41.2,2.574Z" transform="translate(-26.897 0)" fill="#fff"/>
        </g>
      </g>
    </g>
    <g id="Grupo_32688" data-name="Grupo 32688" transform="translate(265 453)">
      <rect id="Rectángulo_18532-3" data-name="Rectángulo 18532" width="88.105" height="53.18" rx="5" transform="translate(0 0)" fill="none"/>
      <g id="Grupo_22158" data-name="Grupo 22158" transform="translate(14.288 10.319)">
        <path id="Trazado_42240" data-name="Trazado 42240" d="M44.983-378.069c-.54.025-1.08.047-1.62.06-.107,0-.133.028-.132.134,0,1.088,0,2.176,0,3.264,0,.245.008.491-.006.735a1.2,1.2,0,0,1-1.359,1.265,1.083,1.083,0,0,1-1.055-.8,2,2,0,0,1-.088-.6c0-1.241,0-2.482,0-3.723,0-.139-.035-.161-.167-.155-.591.028-1.181.078-1.773.07v4.383a1.437,1.437,0,0,1,.09.406,2.488,2.488,0,0,0,1.768,1.984,4.361,4.361,0,0,0,2.577.011,2.5,2.5,0,0,0,1.726-1.694,4.552,4.552,0,0,0,.207-1.447c0-1.241,0-2.482.006-3.723C45.164-378.055,45.111-378.075,44.983-378.069Z" transform="translate(-38.788 390.88)" fill="#fff"/>
        <path id="Trazado_42241" data-name="Trazado 42241" d="M232.621-372.585c-.124,0-.148-.043-.148-.158,0-1.655,0-3.31.006-4.965,0-.13-.038-.162-.156-.166-.535-.02-1.07-.043-1.6-.076-.129-.008-.146.032-.146.146q0,3.379,0,6.758c0,.115.022.153.146.152.976-.006,1.951,0,2.927,0l2.053,0v-1.655C234.673-372.567,233.647-372.58,232.621-372.585Z" transform="translate(-176.05 390.795)" fill="#fff"/>
        <path id="Trazado_42242" data-name="Trazado 42242" d="M140.908-423.1c0-.009.013-.015.008-.026h-.889c-.005.011,0,.018.008.027Z" transform="translate(-111.245 423.13)" fill="#fff"/>
        <path id="Trazado_42243" data-name="Trazado 42243" d="M143.367-423.106c0-.008.011-.015.006-.025h-.214c0,.009,0,.017,0,.026Z" transform="translate(-113.487 423.13)" fill="#fff"/>
        <path id="Trazado_42244" data-name="Trazado 42244" d="M139.483-423.1a.168.168,0,0,0,0-.027h-.215c-.005.01,0,.017.006.025Z" transform="translate(-110.704 423.13)" fill="#fff"/>
        <path id="Trazado_42245" data-name="Trazado 42245" d="M90.414-412.535a14.6,14.6,0,0,1,.716-1.551,14.418,14.418,0,0,1,4.953-5.459,13.935,13.935,0,0,1,8.283-2.211,14.234,14.234,0,0,1,3.973.725,15.206,15.206,0,0,1,6.622,4.377,15.014,15.014,0,0,1,2.826,4.617c.041.106.087.154.205.145.153-.012.306,0,.46,0,.178,0,.179,0,.123-.165a15.986,15.986,0,0,0-4.262-6.653A15.961,15.961,0,0,0,104.06-423.1a.131.131,0,0,1,0-.026h-.184a.059.059,0,0,1,0,.025h-.008c0,.007,0,.016-.005.022a.164.164,0,0,1-.2-.021h-.012c0,.008,0,.018-.007.024a2.691,2.691,0,0,1-.859,0c-.008-.005,0-.015-.006-.022h-.011a.167.167,0,0,1-.2.019c-.007-.006,0-.014,0-.021h-.008a.123.123,0,0,1,0-.025h-.184a.068.068,0,0,1,0,.027,16.2,16.2,0,0,0-14.4,10.74c.774-.018,1.544-.036,2.314-.05C90.377-412.415,90.391-412.475,90.414-412.535Z" transform="translate(-73.989 423.13)" fill="#fff"/>
        <path id="Trazado_42246" data-name="Trazado 42246" d="M72.137-378.8c0-.106-.023-.135-.134-.131-.535.021-1.071.034-1.607.046-.111,0-.151.035-.151.158.005,1.154,0,2.309,0,3.463a.323.323,0,0,1-.024.182l-.175-.233-2.521-3.371c-.043-.057-.077-.111-.167-.108-.515.019-1.03.036-1.545.046-.106,0-.137.032-.137.139q0,3.441,0,6.88c0,.112.036.133.139.132.526,0,1.052-.007,1.578,0,.126,0,.16-.031.159-.159-.005-1.195,0-2.39,0-3.585,0-.05-.019-.107.027-.157q1.4,1.9,2.794,3.789a.229.229,0,0,0,.211.112q.7-.01,1.41,0c.113,0,.143-.023.143-.14-.005-1.154,0-2.309,0-3.463C72.134-376.4,72.133-377.6,72.137-378.8Z" transform="translate(-58.034 391.496)" fill="#fff"/>
        <path id="Trazado_42247" data-name="Trazado 42247" d="M160.207-374.53c-.056-.089-.053-.122.048-.174a2.244,2.244,0,0,0,1.165-1.389,2.951,2.951,0,0,0,.1-1.122,2.3,2.3,0,0,0-1.3-1.973,3.208,3.208,0,0,0-1.448-.333c-1.057-.007-2.115,0-3.172,0-.109,0-.147.02-.147.141q.006,3.609,0,7.218c0,.11.02.148.14.146q.82-.011,1.64,0c.128,0,.147-.042.146-.155,0-.664,0-1.328-.005-1.992,0-.125.038-.152.153-.147a5.732,5.732,0,0,0,.628,0,.246.246,0,0,1,.269.161c.35.679.709,1.353,1.064,2.029.029.054.044.1.127.1.7,0,1.408,0,2.141,0l-.1-.168Q160.932-373.361,160.207-374.53Zm-.617-2.051a.811.811,0,0,1-.694.589,10.576,10.576,0,0,1-1.451.035c-.086,0-.064-.062-.064-.108,0-.27,0-.54,0-.811s0-.531,0-.8c0-.06,0-.108.083-.106.444.011.888-.023,1.33.016A.88.88,0,0,1,159.59-376.581Z" transform="translate(-122.288 391.922)" fill="#fff"/>
        <path id="Trazado_42248" data-name="Trazado 42248" d="M131.832-372.022q2.636-.006,5.271,0c.1,0,.127-.025.126-.125-.005-.485-.008-.971,0-1.456,0-.146-.023-.2-.186-.194-1.078.009-2.155,0-3.234.007-.11,0-.164-.013-.159-.145.011-.3.012-.592,0-.888-.005-.138.037-.167.17-.166.96.006,1.92,0,2.881.006.115,0,.146-.03.144-.144-.007-.449-.008-.9,0-1.348,0-.129-.034-.159-.16-.158-.965.005-1.931,0-2.9.005-.105,0-.14-.026-.138-.135.007-.281.01-.562,0-.843-.005-.129.03-.158.157-.157,1.077.006,2.156,0,3.233.005.092,0,.132-.013.13-.121q-.01-.758,0-1.517c0-.117-.043-.129-.142-.129q-2.59,0-5.179,0c-.12,0-.152.03-.151.151,0,1.2,0,2.4,0,3.6s0,2.411,0,3.616C131.7-372.056,131.72-372.021,131.832-372.022Z" transform="translate(-105.287 391.923)" fill="#fff"/>
        <path id="Trazado_42249" data-name="Trazado 42249" d="M183.748-376.188a6.526,6.526,0,0,0-1.349-.48,3.282,3.282,0,0,1-.968-.365.43.43,0,0,1-.243-.455.446.446,0,0,1,.38-.35,1.568,1.568,0,0,1,.609-.012,3.334,3.334,0,0,1,1.5.648c.089.065.121.054.178-.035.255-.4.515-.8.784-1.187.071-.1.059-.152-.034-.229a4.064,4.064,0,0,0-2.656-.934,3.528,3.528,0,0,0-.9.1,2.227,2.227,0,0,0-1.739,2.714,2.05,2.05,0,0,0,1.093,1.348,6.03,6.03,0,0,0,1.495.566,3.144,3.144,0,0,1,.856.315.43.43,0,0,1,.225.422.44.44,0,0,1-.3.388,1.2,1.2,0,0,1-.435.073,3.234,3.234,0,0,1-2.093-.774c-.152-.121-.152-.122-.273.036l-.776,1.006c-.165.215-.167.218.044.393a4.511,4.511,0,0,0,3.768.98,2.2,2.2,0,0,0,1.955-1.925A1.956,1.956,0,0,0,183.748-376.188Z" transform="translate(-139.128 391.966)" fill="#fff"/>
        <path id="Trazado_42250" data-name="Trazado 42250" d="M207.31-374.48l-1.633-4.08c-.028-.068-.042-.135-.151-.137q-.8-.01-1.607-.04c-.109,0-.146.04-.182.132q-1.155,2.893-2.316,5.785l-.538,1.342c.02.01.028.018.037.018.623,0,1.246,0,1.87,0,.085,0,.1-.052.12-.109.139-.361.281-.721.416-1.083a.136.136,0,0,1,.153-.1q1.2.006,2.391,0a.136.136,0,0,1,.152.107c.133.357.275.712.407,1.07a.158.158,0,0,0,.177.121c.6-.005,1.2,0,1.793,0,.034,0,.068,0,.1-.006.016-.046-.01-.075-.023-.108Zm-3.39.159.77-2.021.747,2.021Z" transform="translate(-154.801 391.358)" fill="#fff"/>
        <path id="Trazado_42251" data-name="Trazado 42251" d="M108.288-379.369q-.385,1.264-.777,2.525c-.208.673-.417,1.347-.627,2.026-.052-.026-.053-.073-.065-.108q-.376-1.074-.747-2.149-.4-1.146-.8-2.292c-.02-.058-.033-.106-.119-.105-.668,0-1.337,0-2.039,0,.029.088.041.126.055.164q1.343,3.588,2.684,7.176a.154.154,0,0,0,.177.116q.781-.008,1.563,0a.17.17,0,0,0,.193-.136q1.136-3.184,2.279-6.365c.118-.328.235-.657.358-1h-.171c-.6.005-1.195.014-1.792.012C108.351-379.506,108.317-379.465,108.288-379.369Z" transform="translate(-84.829 391.916)" fill="#fff"/>
        <path id="Trazado_42252" data-name="Trazado 42252" d="M95.172-379.166c-.576.018-1.152.028-1.729.036-.09,0-.107.03-.107.113q0,3.569,0,7.139c0,.1.031.115.121.115.557,0,1.113-.005,1.67,0,.116,0,.152-.023.151-.147-.005-1.18,0-2.359,0-3.539s0-2.39,0-3.585C95.275-379.106,95.29-379.17,95.172-379.166Z" transform="translate(-77.829 391.665)" fill="#fff"/>
        <path id="Trazado_42253" data-name="Trazado 42253" d="M184.874-345.146h-2.048v-2.048h-1.658v2.048H179.12v1.658h2.048v2.048h1.658v-2.048h2.048Z" transform="translate(-139.225 368.782)" fill="#fff"/>
        <path id="Trazado_42254" data-name="Trazado 42254" d="M105.454-336.858a16.585,16.585,0,0,1-3.969-.115,14.577,14.577,0,0,1-4.5-1.405,14.135,14.135,0,0,1-6.108-5.971,15.581,15.581,0,0,1-.952-2.1c-.019-.052-.02-.12-.112-.119-.469,0-.937,0-1.4,0-.023.055.007.091.02.128a15.1,15.1,0,0,0,3.5,5.768,15.659,15.659,0,0,0,9.969,4.757,16.683,16.683,0,0,0,5.742-.424,15.341,15.341,0,0,0,7.087-3.9l-.975-.049A14.035,14.035,0,0,1,105.454-336.858Z" transform="translate(-74.299 368.332)" fill="#fff"/>
      </g>
    </g>
    <ellipse id="Elipse_390" data-name="Elipse 390" cx="3.503" cy="3.503" rx="3.503" ry="3.503" transform="translate(359 476)" fill="#fff"/>
    <ellipse id="Elipse_398" data-name="Elipse 398" cx="3.503" cy="3.503" rx="3.503" ry="3.503" transform="translate(466 476)" fill="#fff"/>
  </g>
</svg>
