<svg xmlns="http://www.w3.org/2000/svg" xmlns:xlink="http://www.w3.org/1999/xlink" width="409.871" height="53.642" viewBox="0 0 409.871 53.642">
  <defs>
    <clipPath id="clip-path">
      <rect id="Rectángulo_18610" data-name="Rectángulo 18610" width="45.404" height="28.416" fill="#fff"/>
    </clipPath>
  </defs>
  <g id="pqt_familiar_mas" transform="translate(-732 -453)">
    <g id="Grupo_32695" data-name="Grupo 32695" transform="translate(1053.105 452.058)">
      <rect id="Rectángulo_18532" data-name="Rectángulo 18532" width="88.871" height="53.642" rx="5" transform="translate(-0.105 0.942)" fill="none"/>
      <g id="Grupo_32685" data-name="Grupo 32685" transform="translate(20.895 13.942)">
        <path id="Trazado_43304" data-name="Trazado 43304" d="M5.753,18.231H8.687v7.921H5.753v-.71a2.578,2.578,0,0,1-2.123.935,3.276,3.276,0,0,1-2.615-1.185,4.462,4.462,0,0,1-1.015-3,4.45,4.45,0,0,1,1.015-3A3.275,3.275,0,0,1,3.63,18a2.583,2.583,0,0,1,2.123.935ZM3.32,23.255a1.318,1.318,0,0,0,1.022.428,1.319,1.319,0,0,0,1.022-.428,1.648,1.648,0,0,0,0-2.125A1.319,1.319,0,0,0,4.343,20.7a1.318,1.318,0,0,0-1.022.428,1.648,1.648,0,0,0,0,2.125" transform="translate(1.201 -14.395)" fill="#fff"/>
        <path id="Trazado_43305" data-name="Trazado 43305" d="M54.735,18.007a2.644,2.644,0,0,1,2.084.889,3.926,3.926,0,0,1,.785,2.667v4.593H54.671V21.9q0-1.062-.982-1.062a.982.982,0,0,0-.8.333,1.392,1.392,0,0,0-.274.919v4.07H49.678v-7.92h2.936v.776a2.451,2.451,0,0,1,2.12-1" transform="translate(-38.523 -14.399)" fill="#fff"/>
        <path id="Trazado_43306" data-name="Trazado 43306" d="M96.013,3.233a1.573,1.573,0,0,1-1.15-.483A1.572,1.572,0,0,1,94.819.528l.044-.044A1.568,1.568,0,0,1,96.013,0a1.551,1.551,0,0,1,1.133.483,1.572,1.572,0,0,1,.044,2.223l-.044.044a1.558,1.558,0,0,1-1.133.483m-1.474.6h2.932v7.92H94.539Z" transform="translate(-74.27 0)" fill="#fff"/>
        <path id="Trazado_43307" data-name="Trazado 43307" d="M125.487,18.007a2.747,2.747,0,0,1,2.156.864,3.6,3.6,0,0,1,.782,2.47v4.815h-2.938V21.738q0-.9-.809-.9-.933,0-.935,1.173v4.148h-2.932V21.738q0-.9-.809-.9-.936,0-.935,1.173v4.148h-2.932v-7.92h2.932v.741a2.612,2.612,0,0,1,2.156-.969,2.147,2.147,0,0,1,1.982.982,2.876,2.876,0,0,1,2.282-.982" transform="translate(-91.666 -14.399)" fill="#fff"/>
        <path id="Trazado_43308" data-name="Trazado 43308" d="M184.59,23.193a1.609,1.609,0,0,0,1.616.793,2.075,2.075,0,0,0,1.347-.5l1.919,1.616a4.34,4.34,0,0,1-3.36,1.283,4.5,4.5,0,0,1-3.259-1.185,3.944,3.944,0,0,1-1.228-2.972,4.119,4.119,0,0,1,4.218-4.224,3.988,3.988,0,0,1,2.972,1.185,4.065,4.065,0,0,1,1.163,2.973,4.222,4.222,0,0,1-.126,1.037Zm-.048-1.886h2.667a1.209,1.209,0,0,0-1.285-.951,1.367,1.367,0,0,0-1.382.954Z" transform="translate(-144.032 -14.399)" fill="#fff"/>
        <g id="Polígono_5" data-name="Polígono 5" transform="matrix(0.719, -0.695, 0.695, 0.719, 0, 18.466)" fill="#fff">
          <path d="M 1.569603443145752 1.213077545166016 L 0.9999940991401672 1.213077545166016 L 1.284798741340637 0.8333349823951721 L 1.569603443145752 1.213077545166016 Z" stroke="none"/>
          <path d="M 1.284798741340637 -2.503395080566406e-06 L 2.56959867477417 1.713077545166016 L -1.192092895507812e-06 1.713077545166016 L 1.284798741340637 -2.503395080566406e-06 Z" stroke="none" fill="#fff"/>
        </g>
        <g id="Polígono_6" data-name="Polígono 6" transform="translate(7.319 16.658) rotate(49)" fill="#fff">
          <path d="M 1.5695641040802 1.213039040565491 L 1.000004053115845 1.213039040565491 L 1.284784078598022 0.8333323001861572 L 1.5695641040802 1.213039040565491 Z" stroke="none"/>
          <path d="M 1.284784078598022 -1.072883605957031e-06 L 2.5695641040802 1.713039040565491 L 4.053115844726562e-06 1.713039040565491 L 1.284784078598022 -1.072883605957031e-06 Z" stroke="none" fill="#fff"/>
        </g>
        <path id="Trazado_43309" data-name="Trazado 43309" d="M284.595,18.11a2.666,2.666,0,0,0-2.43,1.275V18.306h-1.3V25.8h1.3V21.83a2.558,2.558,0,0,1,.6-1.867,2.118,2.118,0,0,1,1.575-.611,1.828,1.828,0,0,1,1.364.5,1.928,1.928,0,0,1,.495,1.417V25.8h1.3V21.2a3.132,3.132,0,0,0-.795-2.256,2.785,2.785,0,0,0-2.113-.833" transform="translate(-270.73 -1.429)" fill="#fff"/>
        <path id="Trazado_43310" data-name="Trazado 43310" d="M325.216,18.11a3.787,3.787,0,0,0-2.835,1.121,3.867,3.867,0,0,0-1.093,2.818,3.826,3.826,0,0,0,1.121,2.827A3.94,3.94,0,0,0,325.31,26a3.662,3.662,0,0,0,3.3-1.694l-1.108-.631a2.345,2.345,0,0,1-2.16,1.1,2.868,2.868,0,0,1-1.791-.561,2.467,2.467,0,0,1-.926-1.554H328.9a3.823,3.823,0,0,0,.045-.584,4.045,4.045,0,0,0-1.041-2.8,3.464,3.464,0,0,0-2.691-1.156m-2.594,3.4a2.489,2.489,0,0,1,2.594-2.174,2.4,2.4,0,0,1,1.574.561,2.526,2.526,0,0,1,.841,1.619Z" transform="translate(-303.496 -1.429)" fill="#fff"/>
        <path id="Trazado_43311" data-name="Trazado 43311" d="M372.066,19.593a3.181,3.181,0,0,0-2.82-1.486,3.656,3.656,0,0,0-2.713,1.132,4.018,4.018,0,0,0,0,5.546,3.643,3.643,0,0,0,2.713,1.139,3.2,3.2,0,0,0,2.82-1.5V25.49a2.178,2.178,0,0,1-.669,1.682,2.59,2.59,0,0,1-1.836.615,2.449,2.449,0,0,1-2.444-1.261l-1.139.645a3.139,3.139,0,0,0,1.383,1.35,4.673,4.673,0,0,0,2.174.472,4.118,4.118,0,0,0,2.7-.922,3.159,3.159,0,0,0,1.121-2.586V18.3h-1.289Zm-.765,4.318a2.689,2.689,0,1,1,.765-1.9,2.587,2.587,0,0,1-.765,1.9" transform="translate(-339.265 -1.426)" fill="#fff"/>
        <path id="Trazado_43312" data-name="Trazado 43312" d="M420.152,19.595a3.181,3.181,0,0,0-2.834-1.485,3.6,3.6,0,0,0-2.684,1.148,4.1,4.1,0,0,0,0,5.606,3.6,3.6,0,0,0,2.684,1.148,3.178,3.178,0,0,0,2.834-1.484V25.8h1.3V18.306h-1.3Zm-.764,4.37a2.716,2.716,0,0,1-3.794,0,2.767,2.767,0,0,1,0-3.823,2.716,2.716,0,0,1,3.794,0,2.771,2.771,0,0,1,0,3.823" transform="translate(-378.252 -1.428)" fill="#fff"/>
        <rect id="Rectángulo_18629" data-name="Rectángulo 18629" width="1.305" height="7.497" transform="translate(44.81 16.877)" fill="#fff"/>
        <path id="Trazado_43313" data-name="Trazado 43313" d="M463.561,4.438a.866.866,0,0,0,.865-.867.866.866,0,0,0-.255-.622.828.828,0,0,0-.61-.265.841.841,0,0,0-.631.262.865.865,0,0,0-.255.622.841.841,0,0,0,.251.618.858.858,0,0,0,.635.252" transform="translate(-418.087 11.074)" fill="#fff"/>
        <path id="Trazado_43314" data-name="Trazado 43314" d="M239.089,19.582l-2.638.4a4.006,4.006,0,0,0-2.842,0l-2.692-.4L231.4,22.5a3.973,3.973,0,0,0-.114.964,3.7,3.7,0,0,0,3.66,3.733h.073a3.644,3.644,0,0,0,2.654-1.079,3.585,3.585,0,0,0,1.093-2.654,3.98,3.98,0,0,0-.114-.963Zm-7.212,1.774-.2-1.027,1.041.147Zm4.933,3.9a2.506,2.506,0,0,1-4.287-1.8,2.448,2.448,0,0,1,.725-1.8,2.555,2.555,0,0,1,3.563,0,2.605,2.605,0,0,1,0,3.606m1.317-3.878-.855-.869,1.033-.167Z" transform="translate(-230.252 -2.622)" fill="#fff"/>
      </g>
    </g>
    <g id="Grupo_32692" data-name="Grupo 32692" transform="translate(732 453)">
      <rect id="Rectángulo_18532-2" data-name="Rectángulo 18532" width="87.278" height="52.682" rx="5" transform="translate(0 0)" fill="none"/>
      <g id="Grupo_20453" data-name="Grupo 20453" transform="translate(21.229 11.794)" clip-path="url(#clip-path)">
        <path id="Trazado_43170" data-name="Trazado 43170" d="M1.138,25.267a.481.481,0,0,1-.331-.1.449.449,0,0,1-.1-.34V13.2a.449.449,0,0,1,.1-.34.481.481,0,0,1,.331-.1H2.393a.45.45,0,0,1,.488.383L3,13.605a3.855,3.855,0,0,1,1.264-.8,4.036,4.036,0,0,1,1.508-.3A3.236,3.236,0,0,1,8.45,13.745a5.228,5.228,0,0,1,.985,3.347,6.1,6.1,0,0,1-.488,2.528,3.951,3.951,0,0,1-1.325,1.665,3.267,3.267,0,0,1-1.918.584,4.076,4.076,0,0,1-1.36-.227,3.269,3.269,0,0,1-1.1-.628v3.817a.477.477,0,0,1-.1.34.477.477,0,0,1-.34.1ZM4.955,19.95a1.632,1.632,0,0,0,1.438-.662A3.719,3.719,0,0,0,6.856,17.2a3.818,3.818,0,0,0-.453-2.11,1.629,1.629,0,0,0-1.447-.662,3.317,3.317,0,0,0-1.708.471V19.48a3.2,3.2,0,0,0,1.708.471" transform="translate(-0.487 -8.672)" fill="#fff"/>
        <path id="Trazado_43171" data-name="Trazado 43171" d="M35.186,22.071a.376.376,0,0,1-.436-.436V13.6a.449.449,0,0,1,.1-.34.481.481,0,0,1,.331-.1h1.255a.451.451,0,0,1,.488.383l.227.942A4.973,4.973,0,0,1,38.472,13.4a2.808,2.808,0,0,1,1.316-.323h.244a.51.51,0,0,1,.348.1.448.448,0,0,1,.1.34v1.464a.48.48,0,0,1-.1.331.448.448,0,0,1-.34.1q-.122,0-.314-.017c-.128-.011-.291-.017-.488-.017a5.2,5.2,0,0,0-.976.113,4.8,4.8,0,0,0-.976.288v5.857a.482.482,0,0,1-.1.331.449.449,0,0,1-.34.1Z" transform="translate(-24.095 -9.067)" fill="#fff"/>
        <path id="Trazado_43172" data-name="Trazado 43172" d="M58.307,2.719a1.514,1.514,0,0,1-1.063-.366,1.278,1.278,0,0,1-.4-.994,1.278,1.278,0,0,1,.4-.994,1.728,1.728,0,0,1,2.126,0,1.28,1.28,0,0,1,.4.994,1.28,1.28,0,0,1-.4.994,1.516,1.516,0,0,1-1.063.366M57.47,13a.376.376,0,0,1-.436-.436V4.532a.448.448,0,0,1,.1-.34.481.481,0,0,1,.331-.1h1.674a.476.476,0,0,1,.34.1.476.476,0,0,1,.1.34v8.036a.48.48,0,0,1-.1.331.448.448,0,0,1-.34.1Z" transform="translate(-39.414 0)" fill="#fff"/>
        <path id="Trazado_43173" data-name="Trazado 43173" d="M73.243,21.676a.376.376,0,0,1-.436-.436V13.2a.449.449,0,0,1,.1-.34.481.481,0,0,1,.331-.1H74.5a.45.45,0,0,1,.488.383l.14.471a7.517,7.517,0,0,1,1.665-.863,4.689,4.689,0,0,1,1.525-.253,2.346,2.346,0,0,1,2.214,1.115,7.138,7.138,0,0,1,1.674-.854,5.087,5.087,0,0,1,1.621-.262,2.537,2.537,0,0,1,1.891.68,2.587,2.587,0,0,1,.671,1.9V21.24a.481.481,0,0,1-.1.331.449.449,0,0,1-.34.1H84.277a.377.377,0,0,1-.436-.436v-5.6q0-1.185-1.063-1.185a4.42,4.42,0,0,0-1.9.453V21.24a.48.48,0,0,1-.1.331.448.448,0,0,1-.34.1H78.769a.376.376,0,0,1-.436-.436v-5.6q0-1.185-1.063-1.185a4.25,4.25,0,0,0-1.918.47V21.24a.481.481,0,0,1-.1.331.449.449,0,0,1-.34.1Z" transform="translate(-50.483 -8.672)" fill="#fff"/>
        <path id="Trazado_43174" data-name="Trazado 43174" d="M126.692,21.938a4.434,4.434,0,0,1-3.321-1.185,4.66,4.66,0,0,1-1.159-3.4A5.056,5.056,0,0,1,123.4,13.8a4.251,4.251,0,0,1,3.295-1.29,3.776,3.776,0,0,1,2.536.784,2.617,2.617,0,0,1,.915,2.092,2.241,2.241,0,0,1-.985,1.979,5.166,5.166,0,0,1-2.9.671,6.866,6.866,0,0,1-1.726-.192,2.367,2.367,0,0,0,.706,1.673,2.778,2.778,0,0,0,1.822.506,7.237,7.237,0,0,0,.95-.061,11.81,11.81,0,0,0,1.281-.27.654.654,0,0,1,.1-.026.548.548,0,0,1,.087-.009q.3,0,.3.4v.8a.723.723,0,0,1-.078.392.641.641,0,0,1-.305.2,7.482,7.482,0,0,1-2.7.488m-.575-5.473a2.368,2.368,0,0,0,1.29-.27.93.93,0,0,0,.4-.828q0-1.1-1.307-1.1-1.674,0-1.935,2.057a7.916,7.916,0,0,0,1.551.14" transform="translate(-84.74 -8.672)" fill="#fff"/>
        <path id="Trazado_43175" data-name="Trazado 43175" d="M41.04,65.954c-4.971,3.668-12.177,5.619-18.383,5.619A33.267,33.267,0,0,1,.2,63.007c-.465-.42-.05-.994.509-.669A45.2,45.2,0,0,0,23.179,68.3a44.7,44.7,0,0,0,17.138-3.507c.84-.356,1.545.554.722,1.161" transform="translate(0 -43.158)" fill="#fff" fill-rule="evenodd"/>
        <path id="Trazado_43176" data-name="Trazado 43176" d="M126.534,61.571c-.636-.814-4.2-.386-5.805-.194-.485.058-.561-.366-.123-.673,2.846-2,7.508-1.421,8.05-.752s-.143,5.349-2.81,7.58c-.41.343-.8.16-.619-.293.6-1.5,1.944-4.853,1.307-5.668" transform="translate(-83.426 -41.136)" fill="#fff" fill-rule="evenodd"/>
      </g>
    </g>
    <g id="Grupo_32694" data-name="Grupo 32694" transform="translate(945.106 452.501)">
      <rect id="Rectángulo_18532-3" data-name="Rectángulo 18532" width="88.105" height="53.18" rx="5" transform="translate(-0.106 0.499)" fill="none"/>
      <g id="Grupo_22158" data-name="Grupo 22158" transform="translate(15.893 11.499)">
        <path id="Trazado_42240" data-name="Trazado 42240" d="M44.6-378.069c-.507.023-1.014.044-1.521.056-.1,0-.125.026-.124.126,0,1.021,0,2.042,0,3.063,0,.23.007.461-.006.69a1.123,1.123,0,0,1-1.276,1.188,1.017,1.017,0,0,1-.99-.751,1.882,1.882,0,0,1-.082-.566c0-1.165,0-2.33,0-3.495,0-.131-.033-.151-.157-.145-.554.027-1.108.073-1.664.066v4.114a1.348,1.348,0,0,1,.085.381,2.335,2.335,0,0,0,1.659,1.862,4.093,4.093,0,0,0,2.419.01,2.341,2.341,0,0,0,1.62-1.59,4.273,4.273,0,0,0,.194-1.358c0-1.165,0-2.33.006-3.495C44.772-378.056,44.723-378.075,44.6-378.069Z" transform="translate(-38.788 390.094)" fill="#fff"/>
        <path id="Trazado_42241" data-name="Trazado 42241" d="M232.5-372.915c-.117,0-.139-.04-.139-.148,0-1.553,0-3.107.006-4.66,0-.122-.035-.152-.146-.156-.5-.019-1-.04-1.506-.071-.121-.008-.137.03-.137.137q0,3.172,0,6.343c0,.108.02.144.137.143.916-.006,1.831,0,2.747,0l1.927,0v-1.554C234.422-372.9,233.459-372.91,232.5-372.915Z" transform="translate(-179.397 390.007)" fill="#fff"/>
        <path id="Trazado_42242" data-name="Trazado 42242" d="M140.854-423.106c0-.008.012-.014.007-.024h-.834c0,.011,0,.017.008.025Z" transform="translate(-113.012 423.13)" fill="#fff"/>
        <path id="Trazado_42243" data-name="Trazado 42243" d="M143.354-423.107c0-.008.01-.014.005-.023h-.2c0,.008,0,.016,0,.024Z" transform="translate(-115.308 423.13)" fill="#fff"/>
        <path id="Trazado_42244" data-name="Trazado 42244" d="M139.47-423.1a.158.158,0,0,0,0-.025h-.2c0,.009,0,.016.005.024Z" transform="translate(-112.458 423.13)" fill="#fff"/>
        <path id="Trazado_42245" data-name="Trazado 42245" d="M90.264-413.185a13.705,13.705,0,0,1,.672-1.456,13.533,13.533,0,0,1,4.649-5.124,13.08,13.08,0,0,1,7.775-2.075,13.359,13.359,0,0,1,3.73.681,14.272,14.272,0,0,1,6.215,4.108,14.093,14.093,0,0,1,2.652,4.333c.038.1.081.145.193.136.143-.011.288,0,.431,0,.167,0,.168,0,.115-.155a15,15,0,0,0-4-6.244,14.981,14.981,0,0,0-9.624-4.121.123.123,0,0,1,0-.025H102.9a.055.055,0,0,1,0,.023h-.008c0,.007,0,.015,0,.021a.154.154,0,0,1-.188-.02h-.011c0,.007,0,.017-.007.022a2.524,2.524,0,0,1-.806,0c-.008,0,0-.014-.006-.021h-.011a.157.157,0,0,1-.189.018c-.007-.005,0-.013,0-.02h-.008a.115.115,0,0,1,0-.024h-.173a.064.064,0,0,1,0,.025,15.2,15.2,0,0,0-13.516,10.081c.727-.017,1.449-.034,2.172-.047C90.229-413.073,90.242-413.129,90.264-413.185Z" transform="translate(-74.847 423.13)" fill="#fff"/>
        <path id="Trazado_42246" data-name="Trazado 42246" d="M71.74-378.806c0-.1-.022-.127-.126-.123-.5.02-1.005.032-1.508.043-.1,0-.142.033-.141.148.005,1.083,0,2.167,0,3.25a.3.3,0,0,1-.022.171l-.165-.219L67.415-378.7c-.04-.054-.073-.1-.157-.1-.483.018-.966.034-1.45.043-.1,0-.129.03-.128.131q0,3.229,0,6.458c0,.1.033.125.13.124.494,0,.988-.006,1.481,0,.119,0,.15-.029.149-.149-.005-1.122,0-2.243,0-3.365,0-.047-.018-.1.025-.147q1.318,1.785,2.623,3.556a.215.215,0,0,0,.2.1q.662-.009,1.323,0c.106,0,.134-.021.134-.131,0-1.083,0-2.167,0-3.25C71.738-376.553,71.737-377.68,71.74-378.806Z" transform="translate(-58.503 390.724)" fill="#fff"/>
        <path id="Trazado_42247" data-name="Trazado 42247" d="M159.915-374.837c-.052-.084-.049-.114.045-.163a2.107,2.107,0,0,0,1.093-1.3,2.77,2.77,0,0,0,.094-1.053,2.154,2.154,0,0,0-1.218-1.852,3.011,3.011,0,0,0-1.359-.312c-.992-.006-1.985,0-2.977,0-.1,0-.138.019-.138.132q.006,3.388,0,6.775c0,.1.018.139.131.137q.77-.01,1.539,0c.12,0,.138-.04.137-.146,0-.623,0-1.247-.005-1.87,0-.117.035-.143.144-.138a5.387,5.387,0,0,0,.589,0,.231.231,0,0,1,.252.151c.328.637.665,1.27,1,1.9.027.051.042.1.12.1.661,0,1.322,0,2.009,0l-.1-.158Q160.6-373.74,159.915-374.837Zm-.579-1.925a.761.761,0,0,1-.652.553,9.934,9.934,0,0,1-1.362.033c-.081,0-.06-.058-.06-.1,0-.254,0-.507,0-.761s0-.5,0-.747c0-.056,0-.1.078-.1.416.01.834-.022,1.248.015A.826.826,0,0,1,159.336-376.761Z" transform="translate(-124.325 391.161)" fill="#fff"/>
        <path id="Trazado_42248" data-name="Trazado 42248" d="M131.824-372.483q2.474-.005,4.948,0c.094,0,.119-.023.118-.117-.005-.456-.008-.911,0-1.366,0-.137-.022-.183-.174-.182-1.011.008-2.023,0-3.035.006-.1,0-.154-.012-.149-.136.01-.278.011-.556,0-.834-.005-.13.034-.157.159-.156.9.006,1.8,0,2.7.006.108,0,.137-.028.135-.136-.006-.422-.007-.844,0-1.266,0-.121-.032-.149-.15-.148-.906.005-1.812,0-2.718.005-.1,0-.132-.024-.129-.127.007-.264.01-.528,0-.791,0-.121.028-.148.148-.147,1.011.005,2.023,0,3.035,0,.086,0,.124-.012.122-.113q-.009-.712,0-1.424c0-.109-.041-.121-.133-.121q-2.431,0-4.862,0c-.113,0-.142.028-.142.142,0,1.127,0,2.253,0,3.38s0,2.263,0,3.394C131.7-372.515,131.719-372.482,131.824-372.483Z" transform="translate(-106.908 391.162)" fill="#fff"/>
        <path id="Trazado_42249" data-name="Trazado 42249" d="M183.456-376.4a6.126,6.126,0,0,0-1.266-.451,3.081,3.081,0,0,1-.908-.342.4.4,0,0,1-.228-.427.418.418,0,0,1,.357-.329,1.472,1.472,0,0,1,.571-.011,3.129,3.129,0,0,1,1.407.609c.083.061.114.051.167-.033.24-.375.484-.747.735-1.114.067-.1.056-.142-.032-.214a3.814,3.814,0,0,0-2.493-.877,3.312,3.312,0,0,0-.84.092,2.09,2.09,0,0,0-1.632,2.548,1.924,1.924,0,0,0,1.026,1.265,5.66,5.66,0,0,0,1.4.532,2.951,2.951,0,0,1,.8.3.4.4,0,0,1,.212.4.413.413,0,0,1-.284.364,1.127,1.127,0,0,1-.408.069,3.035,3.035,0,0,1-1.964-.727c-.143-.114-.142-.115-.256.033l-.728.944c-.155.2-.157.2.042.369a4.234,4.234,0,0,0,3.536.92,2.061,2.061,0,0,0,1.835-1.806A1.836,1.836,0,0,0,183.456-376.4Z" transform="translate(-141.575 391.206)" fill="#fff"/>
        <path id="Trazado_42250" data-name="Trazado 42250" d="M206.916-374.741l-1.533-3.829c-.026-.064-.04-.127-.141-.128q-.754-.009-1.508-.038c-.1,0-.137.037-.171.123q-1.084,2.716-2.174,5.43l-.505,1.26c.018.009.026.017.034.017.585,0,1.17,0,1.755,0,.08,0,.092-.049.113-.1.131-.339.264-.676.39-1.017a.128.128,0,0,1,.144-.1q1.122.006,2.244,0a.128.128,0,0,1,.143.1c.125.335.258.668.382,1a.148.148,0,0,0,.166.114c.561,0,1.122,0,1.683,0,.032,0,.064,0,.094-.006.015-.043-.009-.071-.022-.1Zm-3.182.15.723-1.9.7,1.9Z" transform="translate(-157.63 390.583)" fill="#fff"/>
        <path id="Trazado_42251" data-name="Trazado 42251" d="M107.97-379.378q-.361,1.186-.729,2.37c-.2.632-.391,1.264-.588,1.9-.049-.025-.05-.069-.061-.1q-.353-1.008-.7-2.017-.373-1.075-.748-2.151c-.019-.054-.031-.1-.111-.1-.627,0-1.255,0-1.914,0,.028.082.038.118.052.154q1.26,3.367,2.519,6.735a.145.145,0,0,0,.166.109q.733-.007,1.467,0a.159.159,0,0,0,.181-.128q1.066-2.989,2.139-5.975l.336-.939h-.16c-.561,0-1.122.013-1.682.011C108.03-379.507,108-379.468,107.97-379.378Z" transform="translate(-85.952 391.155)" fill="#fff"/>
        <path id="Trazado_42252" data-name="Trazado 42252" d="M95.059-379.166c-.541.017-1.082.027-1.623.033-.085,0-.1.028-.1.106q0,3.35,0,6.7c0,.093.029.108.113.108.522,0,1.045-.005,1.567,0,.109,0,.143-.022.142-.138,0-1.107,0-2.214,0-3.322s0-2.243,0-3.364C95.156-379.11,95.17-379.17,95.059-379.166Z" transform="translate(-78.78 390.897)" fill="#fff"/>
        <path id="Trazado_42253" data-name="Trazado 42253" d="M184.521-345.272H182.6v-1.922h-1.556v1.922H179.12v1.556h1.922v1.922H182.6v-1.922h1.922Z" transform="translate(-141.674 367.457)" fill="#fff"/>
        <path id="Trazado_42254" data-name="Trazado 42254" d="M104.408-337.454a15.568,15.568,0,0,1-3.725-.108,13.681,13.681,0,0,1-4.224-1.319,13.267,13.267,0,0,1-5.733-5.6,14.626,14.626,0,0,1-.894-1.969c-.018-.048-.019-.112-.1-.112-.44,0-.88,0-1.315,0-.021.052.007.085.018.12a14.176,14.176,0,0,0,3.286,5.414,14.7,14.7,0,0,0,9.357,4.465,15.66,15.66,0,0,0,5.39-.4,14.4,14.4,0,0,0,6.652-3.66l-.916-.046A13.174,13.174,0,0,1,104.408-337.454Z" transform="translate(-75.165 366.996)" fill="#fff"/>
      </g>
    </g>
    <g id="Grupo_32693" data-name="Grupo 32693" transform="translate(839 453)">
      <g id="Grupo_32673" data-name="Grupo 32673" transform="translate(4.069 21.703)">
        <path id="Trazado_42373" data-name="Trazado 42373" d="M76.595,8.884a.176.176,0,0,0-.152-.282h-.23v.579h.109V8.955h.08l.124.225h.125l-.137-.241A.168.168,0,0,0,76.595,8.884Zm-.161-.035h-.113V8.71h.113c.055,0,.084.023.084.069S76.49,8.849,76.434,8.849Zm-.033-.5a.544.544,0,1,0,.544.544A.544.544,0,0,0,76.4,8.348Zm0,.982a.438.438,0,1,1,.438-.438A.439.439,0,0,1,76.4,9.33Zm-.123-3.435H74.627V8.164H72.4V5.895H70.131V3.667H72.4V1.4h2.228V3.667h2.888Zm-5.65.94V9.305H63.365V.257h7.263V2.728H66.093v.939H69.43V5.895H66.093v.94ZM54.9.257h7.761V2.728h-2.5V9.305H57.436V2.728H54.9Zm-4.564,0L46.757,9.3h2.891l.326-.983h3.164l.326.983h2.891L52.773.257Zm.237,6.252.98-2.953.98,2.953ZM47.365,4.781c-.01,2.448-1,4.781-4.361,4.781-3.312,0-4.51-2.333-4.521-4.781C38.494,2.333,39.585,0,43.005,0h0c3.529,0,4.092,2.333,4.1,3.041H44.35s-.118-.9-1.338-.9c-.993,0-1.774.618-1.774,2.637,0,2.127.94,2.637,1.771,2.637a1.528,1.528,0,0,0,1.605-1.535H42.924V3.98h4.441ZM37.922,6.566c0,1.675-1.212,3-4.026,3-3.8,0-4.085-2.333-4.095-3.041h2.757c0,.387.226.9,1.338.9,1.007,0,1.3-.388,1.3-.753,0-1.48-5.161-.066-5.161-3.937,0-.639.519-2.727,3.848-2.727,3.275,0,3.774,2.139,3.774,2.829H35.031c0-.286-.2-.818-1.192-.818-.885,0-1.192.322-1.192.717C32.647,4.179,37.922,2.728,37.922,6.566ZM26.268.257H29V9.305H26.268L23.539,4.781V9.305H20.811V.257H23.54l2.728,4.524ZM15.256,0c-3.474,0-4.593,2.333-4.6,4.781.01,2.448,1.129,4.781,4.6,4.781s4.593-2.333,4.6-4.781C19.849,2.333,18.73,0,15.256,0Zm0,7.418c-.885,0-1.829-.51-1.829-2.637s.944-2.637,1.829-2.637,1.829.51,1.829,2.637S16.141,7.418,15.256,7.418ZM6.973.257H9.7V9.305H6.973ZM2.728,6.834h3.4V9.305H0V.257H2.728Z" transform="translate(0)" fill="#fff"/>
      </g>
      <rect id="Rectángulo_18532-4" data-name="Rectángulo 18532" width="87.278" height="52.682" rx="5" transform="translate(0 0)" fill="none"/>
    </g>
    <ellipse id="Elipse_399" data-name="Elipse 399" cx="3.503" cy="3.503" rx="3.503" ry="3.503" transform="translate(826 476)" fill="#fff"/>
    <ellipse id="Elipse_400" data-name="Elipse 400" cx="3.503" cy="3.503" rx="3.503" ry="3.503" transform="translate(932 476)" fill="#fff"/>
    <ellipse id="Elipse_401" data-name="Elipse 401" cx="3.503" cy="3.503" rx="3.503" ry="3.503" transform="translate(1040 476)" fill="#fff"/>
  </g>
</svg>
